/* XPM */
static char *port2_c1693383950[] = {
/* columns rows colors chars-per-pixel */
"64 64 252 2 ",
"   c #030D03",
".  c #0B0E03",
"X  c #1D0D05",
"o  c #051303",
"O  c #0A1404",
"+  c #061904",
"@  c #0B1A05",
"#  c #0C1909",
"$  c #151707",
"%  c #1B1505",
"&  c #131B04",
"*  c #1C1A05",
"=  c #261606",
"-  c #241C06",
";  c #2C1A06",
":  c #2B1C0A",
">  c #391907",
",  c #3C1D09",
"<  c #0D210A",
"1  c #162108",
"2  c #29220A",
"3  c #38230C",
"4  c #491A08",
"5  c #581706",
"6  c #541C0B",
"7  c #5D1B0A",
"8  c #681909",
"9  c #721B0B",
"0  c #781808",
"q  c #7A1C0A",
"w  c #661C11",
"e  c #46220B",
"r  c #58230B",
"t  c #68230C",
"y  c #7B220A",
"u  c #722210",
"i  c #881907",
"p  c #8B1C0A",
"a  c #971707",
"s  c #931C0B",
"d  c #9C1D0B",
"f  c #A91807",
"g  c #A41C0B",
"h  c #AB1D0B",
"j  c #B71708",
"k  c #B0160E",
"l  c #B31C0B",
"z  c #BB1B0A",
"x  c #87250B",
"c  c #93220B",
"v  c #9B230D",
"b  c #872411",
"n  c #972611",
"m  c #A3230B",
"M  c #AA260A",
"N  c #B3240C",
"B  c #B82809",
"V  c #BB2C0B",
"C  c #BB3609",
"Z  c #B62611",
"A  c #C61B09",
"S  c #D31D06",
"D  c #C62809",
"F  c #CB2C0A",
"G  c #D72707",
"H  c #C83806",
"J  c #C4340A",
"K  c #CC340B",
"L  c #C53B0A",
"P  c #CC3C0A",
"I  c #D63909",
"U  c #D43B0A",
"Y  c #C62911",
"T  c #C43511",
"R  c #D53310",
"E  c #E13A08",
"W  c #CC4607",
"Q  c #CE430A",
"!  c #D34C06",
"~  c #D2430A",
"^  c #DA4608",
"/  c #D44C0A",
"(  c #CE5309",
")  c #DA5306",
"_  c #D95906",
"`  c #D5530A",
"'  c #DA540B",
"]  c #D55A09",
"[  c #DD5C0A",
"{  c #CA4711",
"}  c #D64611",
"|  c #DA5912",
" . c #E2490A",
".. c #E3560C",
"X. c #E04A10",
"o. c #DC6305",
"O. c #D96707",
"+. c #DC630A",
"@. c #DC6B0A",
"#. c #DD7906",
"$. c #DC740A",
"%. c #DB7417",
"&. c #E26908",
"*. c #E26B0B",
"=. c #E47807",
"-. c #E4730A",
";. c #E37B0B",
":. c #E36613",
">. c #E97514",
",. c #DD8707",
"<. c #DD9909",
"1. c #DE9015",
"2. c #E38307",
"3. c #E28B06",
"4. c #E3840A",
"5. c #E48B0A",
"6. c #E98A0B",
"7. c #E4930B",
"8. c #E8950A",
"9. c #E49B0B",
"0. c #E88813",
"q. c #F18516",
"w. c #E39312",
"e. c #E59B13",
"r. c #E79A19",
"t. c #DCA60A",
"y. c #DEAF10",
"u. c #E4A30B",
"i. c #E6A90A",
"p. c #E7B70A",
"a. c #E4B40C",
"s. c #E5BB0B",
"d. c #E5A413",
"f. c #E3A41A",
"g. c #E9A818",
"h. c #E7B916",
"j. c #E69A27",
"k. c #E49C36",
"l. c #DAAA31",
"z. c #E7A625",
"x. c #E8B82A",
"c. c #E8A837",
"v. c #E9B636",
"b. c #F3BA33",
"n. c #E6C20C",
"m. c #E8C80B",
"M. c #E7D80B",
"N. c #E8C717",
"B. c #E8D616",
"V. c #E7E60F",
"C. c #EAE31B",
"Z. c #E9E718",
"A. c #DFC926",
"S. c #E8C827",
"D. c #EAD726",
"F. c #EACA37",
"G. c #EADA38",
"H. c #F3DB3C",
"J. c #EBE627",
"K. c #EDF02A",
"L. c #ECE636",
"P. c #EDF93C",
"I. c #DEAD54",
"U. c #E9A948",
"Y. c #E8BA47",
"T. c #EAAC52",
"R. c #EBB958",
"E. c #F3B851",
"W. c #EAB964",
"Q. c #F1BA69",
"!. c #ECBD74",
"~. c #EAC64B",
"^. c #ECD849",
"/. c #ECC657",
"(. c #F2CE52",
"). c #EED659",
"_. c #ECE948",
"`. c #F1E748",
"'. c #EDF44A",
"]. c #EDE956",
"[. c #F2E859",
"{. c #EDF759",
"}. c #EDC56B",
"|. c #F2C669",
" X c #EDD965",
".X c #F1D868",
"XX c #EDC877",
"oX c #F2C575",
"OX c #F1CD7C",
"+X c #F4D77B",
"@X c #EEE76E",
"#X c #F3E96A",
"$X c #EEF865",
"%X c #F1F869",
"&X c #F2E779",
"*X c #EDF878",
"=X c #F2F87A",
"-X c #EDC983",
";X c #F4C387",
":X c #F2CC83",
">X c #F3CE8A",
",X c #EBD28B",
"<X c #F4D78B",
"1X c #F3CC94",
"2X c #F5D394",
"3X c #F4D59C",
"4X c #F6DB99",
"5X c #F5EB85",
"6X c #F4FA88",
"7X c #EFE498",
"8X c #F4E798",
"9X c #F4F797",
"0X c #EBD4A8",
"qX c #F4D5A4",
"wX c #F5DCA3",
"eX c #F7D8AA",
"rX c #F5DCAD",
"tX c #F6DCB3",
"yX c #F9DCB8",
"uX c #F7E5A9",
"iX c #F5FCA4",
"pX c #F7F5A8",
"aX c #F6FDAB",
"sX c #F9E5B4",
"dX c #F7E7B8",
"fX c #F6EABC",
"gX c #F9F5B6",
"hX c #F5FDB4",
"jX c #F6FEBC",
"kX c #F9FDBC",
"lX c #F7E8C7",
"zX c #F7ECC5",
"xX c #F9ECC3",
"cX c #FAEECB",
"vX c #F7F3C7",
"bX c #FBF3C5",
"nX c #F7FDC3",
"mX c #F9FDC4",
"MX c #FAF3CB",
"NX c #F7FDCC",
"BX c #FAFDCC",
"VX c #F9EDD2",
"CX c #FAF4D3",
"ZX c #F7FCD3",
"AX c #F9FDD4",
"SX c #F8F7D8",
"DX c #F9FDDC",
"FX c #F7FCE2",
"GX c #FAFEE4",
"HX c #FBFDEC",
"JX c #FBFCF5",
"KX c #FDFEFA",
/* pixels */
"  O > X   O & * $ O o o < 2 < 1 * # * o o O #         +     O o @ @ o o O * o o o o o $ # O # O < 1 $ # O o @ 1 < 1 1 # # % = % ",
"o O 8 7 7 s c v c r + 3 3 ; t y 7 6 9 w # O $ > % # + 2 3 3 w 9 t 9 # - e 5 7 @ r 4 9 8 w % 1 b g s s b @ 1 : 3 e u 7 t 8 y 5 . ",
"o 8 g g m } V J V v 8 c y 6 M Y Y k l f p i l m b T M e q n N V B N > 3 q N g y g l z f n n m M U B T g r b s 6 t Z F z f a = $ ",
"O w k N h / Q ! K J v T L p T ^ R D p l A G F K ^ | ' 9 s P ( ( ` C e M J K P N f l U w 6 Z Z T / } P J J a J d d } I R K M 7 o ",
"@ 4 j Y ^ -.o.' ! ) &.;.I B -.@.&.I z H &.>.O.o.&.$.$.M { +.O.J / M 0 ) +.&.] G A A 4.[ ( f ! D $...) ! *.-.=.f } -.@.:.z d d o ",
"+ r Z R ` 6.3.@.;.-.2.5.D _ 4.5.7.G -.5.2.7.8.4.,.w.>.+.;.;.U &.h j &.=.2.4.-.S G G 7.7.,.#.4.;.6.,.O.-.4.6.>.K 2.2.7.;.) } M 4 ",
"+ u N ^ @.5.d.,.z.9.e.r.) w.d.8.;.I r.9.9.g.z.<.u.k.U 9.9.4._ ^ O.7.3.j.j.j.w.G ..E p.z.z.g.e.X.u.9.u.j.9.r.j.>.z.z.7.@.! D M 4 ",
"+ t v J :.4.z.g.a.s.v.c.@.c.v.o.4.c.h.a.h./.x.a.z.Q.' s.h.i. .&.c.u.u.U.T.T. .E.g.I a.R.R.R.$.g.0.v.v.a.x.E.7.g.E.<.#.) ` P f 5 ",
"& 2 4 p f } w.v.N./.oX,.j.oXF.[ R.!.N.h.|./.N.p.|.v.}.F.Y.6.;.&./.a.p.oX;X!...6.0. .m.OXOXoXv./.R.W.S.S.}.OXU.XXn.z.5.[ H P M 4 ",
"+ : t C ! H ) ,.oX2X3X9.>X1Xn.oX1X3XD.E.tX).M.M.8XU.1XOX<X,.2.oX~.m.n.qXeXqX=.eX<XQ.B.wXuX}.[ 2X+X:X).2X3XwX<X:Xn.i.4.*.W a >   ",
"o : x N O.5.r.Y.XX3XuXF.yXsXN.4XyXdXM.2XzX XV.J.cX8.lXyXtX2.d.tXH.M.m.lXdX4X|.fXx.4XZ.sXfXOX>XfX4XD.sXrX XS.4X:XR.f.7.;.W 9 &   ",
"o + r p o.2.9.l.XXrXN.uXfXfXB.dXzXcXJ.lXMXMXV.J.AXv.cXvXcXn..XcXJ.B.D.VXcXF.CXSX,.].K.CX5X+XgXCX7X8XcXcXsXuXg.,.2.c.5.#.' a e + ",
"o t c V Q o.u.s.S.3X^.xXxXMX@XcXMXMXL.vX9XnXZ.Z.GXpXCXSXSXB.bXCXJ.L..XCXCXD.DXAX^.K.=XDXCXG.a.CXsXDXCXMXfXlX3X:X;._ ..D K s ; ; ",
"# b B I W -.r.a.N.<X4XCXCX@X8XMXZXbXpXBXNX9XZ.nXHXGXHXHXBXL.DXDX_.L.@XDXDXuXGXB.9XAXAXDXDXn.N.DXkXpX'.&XfXdXqX:XW.j.;.F f u % ; ",
"# c V / ` &.#.9.h.m.F.MXZX_.AXAXDX$XBXNXZX_.K.HX&XHXJXHX=XmXHXkXiXK.8XGXDXGX6X`.=XDXDXHXHXm.D.mXDXAXBX@XG.D.m.n.b.y.7.#.C D x = ",
"+ y T P o.2.d.x.g.<XuXxXMX9XAXAXAX*XDXZXnXaXP.HXJ.JXHXJX6XJXHX=XGXP.BXGXBXGXK.BXmXDXHXJXHXG._.9XDXAXCXVXxXdX3X1.^ 5.3.=...I i 4 ",
"+ y J } [ 4.q.O.v.3XtXMXfXgXBXmXAXmXHXZX9XNX=XJXVXKXKXJX%XJXHX$XFX'.HXHXiX9X{.ZXFXHXJXFXGXnX6X9XBXAXZXCXxXxXeX:XT...5.-.~ G i & ",
"O e d d W ` U r./.OXsXCXAXAXBXmXmXDXDXNXmXAXBXJXKXJXJXJX6XKXJX%XHX6XHXHXFX6XiXhXHXJXGXHXHXDXFXDXZX=X*XnXbXfXeX:XR.0.S Y F j 0 % ",
"  $ d T f B e.I.R.&.5.S.5Xs.S.5XiX@X6XjXAXGXGXKXJXJXJXJXAXJXJXhXjXnXJXFXZXnXZXFXJXJXHXJXJXHXJXJXJXDXMX5XC.M.B.D.s.f.>.I k A i > ",
"O 3 n b a 4.g.R.!.3XdXMXDXDXmXpX=X*XhXZXHXAXJXKXJXJXJXJXJXKXJXGX6XDXJXFXZXnXZXFXJXJXJXJXJXJXHXGXFXGXZXNXcXxXqXN.h.u.8.o.F j a   ",
"  w s 5 M 3.e.R.OX<X).uXCXCXHXJXHXFXJXFXJXDXKXKXJXJXJXJXJXJXJXJX6XHXJXHXZXjXFXJXJXJXJXJXJXJXGXkXgXBXZXBXpXCXtX4XR.i.7.&.S a 4   ",
"$ u l m ] 2.d.Y.XX4XsXBXFXHXJXJXJXJXJXJXHXNXKXKXJXJXJXJXJXJXJXJXaXHXJXJXJXJXJXJXJXJXJXJXJXHXHXDXGXkX5X'.].5X<XN.m.t.8.2.` F a . ",
"O 7 g l ' q.I G ^ >X4XL.9XFXHXJXJXJXJXJXJXJXJXJXJXJXJXJXJXJXJXVXJXJXJXJXJXJXJXJXJXJXJXJXKXJXJXHXDXiXP.Z.M.V.B.m.F.l.9.+.P z = = ",
"# , m l A S I O.-.$.#.g._.*XiXHXHXJXJXJXJXJXJXJXJXJXJXJXJXJXJXJXJXJXJXJXJXJXJXJXJXJXJXJXKXKXJXJXHXHXGX%XZ.C.B.m.a.y.6.$.L A 4 . ",
"o , d g z S ^ r.2.qXcXnXD.F.gXDXgXFXHXJXJXJXJXJXJXJXJXJXJXJXJXJXJXJXJXJXJXJXJXJXJXJXJXKXKXKXKXJX9XD.9XGXDXCXzX<X|.t.9.;.[ m % o ",
"  # 3 Y U E I ^ 6.w.xXVXDXDXC.J.pXZXZXZXHXJXJXJXJXJXJXJXJXJXJXJXJXJXJXJXJXJXJXJXJXJXJXKXKXKXKXJXJXHXJXDXsX/.4X[ oXI.e.2.O.P ;   ",
"+ w m I +.4.j.U.f.OXh.u.sXDXHX5X].6XaXnXFXHXJXJXJXJXJXJXJXJXJXJXJXJXJXJXJXJXJXJXJXJXJXKXKXKXKXKXHXHXJXDXCXfX0X,XR.J H #.) C & 1 ",
"@ 2 t F ) ,.r.U.!.qXyXfXCXMX@XgXGXDXnXZXSXHXJXJXJXJXJXJXJXJXJXJXJXJXJXJXJXJXJXJXJXJXJXKXKXKXKXJXJXJXHXDXVXlX<X(.S.<.;.N i 8 * 2 ",
"o ; t B ` ;.7.U.!.eXlXVXCXFXHXHXHXHXGXGXJXJXJXJXJXJXJXJXJXJXJXJXJXJXJXJXJXJXJXJXJXJXJXKXJXJXBX$X'.[.L.nXCXfX4X/.h.t.4.' V x r o ",
"  O ; , x &.,.u.g.x.F..X7XCXHXHXHXHXHXHXHXJXJXJXJXJXJXJXJXJXJXJXJXJXJXJXJXJXJXJXJXJXJXJXKXKXKXJXJXHX&XZ.B.i.#.;.7.7.5.-.W V 5 + ",
"@ t y y 8 f 8.9.p.m.m.M.M.Z.L.{.iXDXHXHXHXHXJXJXJXJXJXJXJXJXJXJXJXJXJXJXJXJXJXJXJXJXJXHXHXJXJXHXHXHXFXCXzX).h.#.) ( P ( ] H i % ",
"o u M W ( f -.i.n.m.B.D.L.gXDXDXkX%X$X=XnXFXJXJXJXJXJXJXJXJXJXJXJXJXJXJXJXJXJXJXJXJXJXJXJXGXaX{.{.{.9XzXzXdXtXT...^ :.W O.H i - ",
"o t N / Q H G H 4.>XyX&XL.Z.K.P.=XBXHXHXGXZXJXJXJXJXJXJXJXJXJXJXJXJXJXJXJXJXJXJXJXJXJXBX=X6XAXGXHXGX9X`.J.D.F.S.T.e.z L o.H i * ",
"o w N / O.H ! ~ >.r.rXzXCXDXGXHXJXJXDXAXAXHXJXJXJXJXJXKXJXKXJXKXJXJXJXJXJXJXJXJXKXJXJXJXJXGXAX6X'.K.Z.Z.M.M.m.n.t.<.+.d 8 N i > ",
"o 4 v Q @.4.O.0.;.8.F.^.L.].GXHXHXJXKXKXKXKXJXKXJXJXKXJXJXKXKXJXJXJXJXJXJXJXJXJXKXJXKXJXJXHXJXHXHXGXpX#X^.S.N.a.y.1.,.i 5 ; * + ",
"o $ y d / ;.9.a.x.(. X8X5X_.Z.J.=XGXJXKXKXKXKXJXJXKXJXJXKXJXJXJXJXJXJXJXJXJXJXJXJXKXJXJXJXHXHXJXJXHXGXGXVXlX0XqXW.k.#.+.L t & o ",
"o : 6 b a =.9.f.|.1XyXzXSXGXJXJXJXKXHXGXBXDXKXKXKXKXJXKXJXKXJXKXJXJXJXJXJXJXJXJXJXKXJXJXJXGXGXHXuXBXGXSXCXlXyX1XW.k.5.&.~ c r - ",
"+ # r v $.V H c.oXqXuXcXSXHXHXHXJXJXKXKXKXKXKXJXJXJXJXJXJXKXKXJXJXJXJXJXJXJXJXJXJXKXKXJXJXGXmX=XgXGXGX5XF.N.tX1X!.U.4.;.Q A s - ",
"  # M | @.0.c.z.+.,.dXlXSXGXHXJXKXKXKXKXKXKXJXJXKXJXKXJXJXJXKXJXJXJXJXJXJXJXJXJXJXJXJXJXJXGXBX6XJ.C.GXDXSXcXw.*.^ $.) ) ! f 8 O ",
"o O n ' +.w.f.R.>XXX-XfX&XS.&XGXJXKXKXKXKXKXKXKXKXKXKXKXKXKXKXJXJXJXJXJXJXJXJXJXKXKXKXKXHXGXAXhXAXiXB.].BXcXyXr.j.| G A B g 4 o ",
"o 4 Z P | 2.<.a.p.m.M.V.J.DXHXHXJXJXJXKXKXKXKXKXKXKXKXKXKXKXKXKXJXJXKXKXKXJXKXKXKXKXKXKXJXHXHXDXFXiX6X#Xd.3.e.W.#.+.E A l j i + ",
"O - d F ~ 2.i.Y.N.m.D.C.Z.K.AXHXHXJXKXJXKXKXKXKXKXKXJXKXKXJXKXKXJXJXKXKXKXKXKXKXJXKXKXJXKXKXJXHXGXDXAXaX_.[.yX%.I K I A D j 9 + ",
"$ 4 k } $.3.d.a.N.D.5XuXL.#X6XkXhXaXhXkXkXNXKXKXKXJXKXKXKXKXKXKXJXJXKXKXKXKXKXKXKXKXKXJXHXGXHXHXDXDXAXAX_.J.J.B.N.s.d.5.' A a X ",
"  + 9 D &.2.9.Y.}.qXsXbXBXCXGXDXHXHXHXGXHXHXKXKXKXDXDXNXDXJXJXDXkXJXKXJXDXKXKXKXKXJXaXHXJXHXHXHXHXJXHXNXSXnX<X>X}.c.9.@.8 0 a $ ",
"  X i j G 5.9.h.N.3XsXbXBXGXJXJXKXJXKXKXJXKXJXKXJXAXAXNXGXKXJXmXHXCXKXKXhXKXKXKXKXKX6XHXDXAXGXFXGXHXDXAXMXvXyX2XW.l.7.@.0 8 X   ",
"o 9 f d A ,.w.a.N.B.M.D.8XBXGXHXJXKXJXJXKXKXKXKXGXhXaXkXGXJXJX%XHXaXKXJXBXJXKXKXKXKX6XHXnXhXaXaX=XH.s.H.n.i.,.|.W.l.0.k N f 8 O ",
"o 7 f D j j >.I.!.2XtXxXgX&X$XkXGXGXGXHXJXJXJXJXDXAX6XkXHXKXHX%XHXhXJXJXHXJXKXKXGXJX=XGXBXKXJXnX9X#X`.#XpXMXz.~./.%.O.O.H l > o ",
"+ 4 l I I 8.! #.Y.>XzXxXbXBXAXAX6XhX9XhXJXHXJXJXmXAX{.GXJXJXBX$XAXDXHXAXJXJXKXKXDXJX$XBXDXJXDX6XnXaXMXSXvXfXqX-XY.W 7.W L V B & ",
"@ t Z I ..3.e.w.7.1XrXzXMXZXAXZXAXDX{.H.JXGXKXGXiX9XL.GXJXJXiXiX6XHXHX=XJXJXJXJXGXHX6X=XDXHXDXiXAXDXDXpXfX5X<XOX+.z.9.#.( Q f > ",
"@ r l } #.4.i.t.s.n.s.^. XCXAXNXBXGXB.).JXHXGXGXBXB.CXpXHXHX#XkX'.HXHXJ.HXHXJXFXHXHX=X6XGXGXgXBXAXAXkXhXCX XD.Y.x.w.4.[ / J g 5 ",
"+ r 7 m D ;.r.c.}.1X8X.XC._.pXiX#XFXp.gXAXGXnX'.9X9XGX^.GXHXJ.AXZ.DXGXM.HXGXHX&XHXBX%XDXCXBX_.BXBXCX5XCXSXzX4XA.Y.f.,.` Q P m 4 ",
"# 3 6 s f D ..2.Q.:XeXxXzXCXDX8XL.DX^.ZXCXDXnX#X9.DXDXuXSXCXB.sXZ.DX^.].FXDXSXN.kXZ._.vXkXBX[.MXMXcXL.MXvXMX4X-Xs.y.,.` L B 0 - ",
"o - x T @.;.w.z.2.l.wXuXxXNXcXuXxXSXpXCXfXCXP.H.5XSX/.7XcXuXM.J.K.cX).[.cXcXVX XM.J.&XbXBX8X7XfXcXG.M.zXfXuXuX,X/.<.5.$./ 8 *   ",
"o 1 c i o.6.d.U.}.<Xz./.sXfXlXuXlXvXv.xX+XxXJ.2.CXfX9.lXlXOXM.B.+XdX~.^.lXdXfXY.n.C.8XfXxXB.8XzXdXh.<XfXzXt.rXuX!.z.7.$.W c % O ",
"  # r J ..4.9.i.|.1X}.wX3X3Xn.2XwXwX#.tXuXuX+X*.yXyXb.eXtX~.m.m.qXXX7.F.eXeXT.1.t.D.D.7XrXm.qXeX1Xu.OXqX>X/.3X3XT.l.U #.( g 3 O ",
"@ 9 v B Q =.j.p.S.:Xc.OXOX(.s.Y.}.XX;.>X>X2Xh.^ c.6.c.1X1Xv.n.s.OX;.-.S.;X-X! :Xa.m.m.2XXXm.}.|.|.a.:X}.4.:X|.OXS.k.;.z d 8 = : ",
"O c V W ! o.e.v.Y.0.z.E.p.h.h.b.@.Y.R.R.|.|. .:.r.z.4.Q.W.c.i.i.) &.' h.Y.E.*.}.u.x.n./.x.s.R.z.3.9.R.R.;.W.v.s.Y.v.$.%.f i , * ",
"@ 0 N U ) ;.u.z.j.$.z.d.a.z.3.z.0.R k.z.c.v...I q.G k.c.j.w.9.8.I I 4.u.u.0.j.c.u.x.g.d.u.i.j.^ ,.9.j.;.c.z.i.d.d.<.9.&.o.K a , ",
"@ v J ' o.3.8.5.@.^ 5.5.;.5.=.7.7.:./ 5.9.9.e.S R G 6.5.4.;.$.f D >.=.#.4.V w.e.5.5.6.7.5.5.S 5.9.8.0.&.| 6.5.4.=.2.7.2.] F i = ",
"  y M h K &.$.;.Y U ;.$.+.! ) @.-.>.B z O.=.4.A A I -.*.+.B i V ! V =.[ M | ,.$.&.[ ;.;.*.I k ] @.=.:.j ;.-.&.) ! [ #.B ! A q * ",
"  @ v g K I ..N s ^ H C P L / ~ / V } i 8 0 ] A l P ~ ~ L t 6 C O.+.) H c M ..] Q K ` E D A j I I _ g a ` H ) H ~ ^ ! V F B 0 > ",
"# = l j z D F V 8 c d 8 f J H J } N N s p D z f z 8 D g a * 8 J T V V y x 8 P L Y f Y i a z j D G J x 7 d i 8 l J B ~ m N M i 5 ",
"o 4 p q 8 9 p t * = r + 4 d g a M 9 5 O 8 a 0 0 5 @ i > > - 7 s i b 9 > ; @ @ @ ; $ 9 . 5 a i 0 0 i > ; , - @ i m g f f > 5 X 5 ",
"O X O % # @ - * 3 * o O O = > % %     . o % O o +   + & o o & @ @ @ o   @ &         $       % O = - & - o o   o = - %       o . "
};
