/* XPM */
static char *port1_c1693383950[] = {
/* columns rows colors chars-per-pixel */
"64 64 256 2 ",
"   c #040703",
".  c #060D05",
"X  c #0A0D05",
"o  c #0A0D09",
"O  c #061305",
"+  c #0B1305",
"@  c #091A07",
"#  c #0B1309",
"$  c #161107",
"%  c #141405",
"&  c #12150A",
"*  c #1B140A",
"=  c #191808",
"-  c #250E07",
";  c #330F04",
":  c #281708",
">  c #241A0A",
",  c #391708",
"<  c #342006",
"1  c #2D3027",
"2  c #570F07",
"3  c #481508",
"4  c #581708",
"5  c #501D13",
"6  c #6C0E06",
"7  c #66180A",
"8  c #73140A",
"9  c #76120C",
"0  c #791609",
"q  c #7C1C0A",
"w  c #722309",
"e  c #870D08",
"r  c #980D06",
"t  c #8A1706",
"y  c #84140B",
"u  c #8B150B",
"i  c #831A0B",
"p  c #8A190B",
"a  c #961709",
"s  c #94150B",
"d  c #9C1B0B",
"f  c #8A1A11",
"g  c #971A10",
"h  c #A80E07",
"j  c #BE0D0A",
"k  c #A71707",
"l  c #A3140A",
"z  c #AD150B",
"x  c #A41B0B",
"c  c #AD1C0C",
"v  c #B71607",
"b  c #B3150A",
"n  c #BB130B",
"m  c #B41B0C",
"M  c #BB1C0B",
"N  c #A31410",
"B  c #B91D10",
"V  c #94220D",
"C  c #AA230B",
"Z  c #B3230C",
"A  c #BD240B",
"S  c #B82909",
"D  c #BA280E",
"F  c #BC2A0C",
"G  c #C40B07",
"H  c #C71707",
"J  c #CD140C",
"K  c #C21C0A",
"L  c #CB1B0B",
"P  c #D91708",
"I  c #C82706",
"U  c #C3230A",
"Y  c #CB250C",
"T  c #C42A0B",
"R  c #CC2B0A",
"E  c #D42B05",
"W  c #D72909",
"Q  c #C83509",
"!  c #CD340A",
"~  c #CB3A0B",
"^  c #D83807",
"/  c #D3340A",
"(  c #D43B0B",
")  c #DA3C0A",
"_  c #C72411",
"`  c #CD3511",
"'  c #DA3913",
"]  c #E0370D",
"[  c #CE4409",
"{  c #D74707",
"}  c #DB4C05",
"|  c #D5440B",
" . c #DA450B",
".. c #DB4B0B",
"X. c #DB5406",
"o. c #DC5C06",
"O. c #D65608",
"+. c #DB540B",
"@. c #DC5A0B",
"#. c #DC4C10",
"$. c #DE5B10",
"%. c #E1480A",
"&. c #E3550C",
"*. c #E25B0B",
"=. c #E65C11",
"-. c #D66104",
";. c #DC6405",
":. c #DD6C06",
">. c #DD640B",
",. c #DD6B0A",
"<. c #DD7306",
"1. c #DE7B06",
"2. c #DE7509",
"3. c #DF7C0B",
"4. c #DE7114",
"5. c #E3660A",
"6. c #E26C0C",
"7. c #E17D07",
"8. c #E2730A",
"9. c #E5770A",
"0. c #E37C0B",
"q. c #E66A14",
"w. c #E87713",
"e. c #E37C13",
"r. c #DE8508",
"t. c #DD9906",
"y. c #DE9012",
"u. c #E28B07",
"i. c #E48408",
"p. c #E3840C",
"a. c #E48B0B",
"s. c #E69708",
"d. c #E4930C",
"f. c #E49D0B",
"g. c #E48B12",
"h. c #E68916",
"j. c #F18518",
"k. c #E39313",
"l. c #E49C13",
"z. c #E99B14",
"x. c #E79619",
"c. c #E5A30B",
"v. c #E7A909",
"b. c #E4AC0B",
"n. c #E5B506",
"m. c #E6B30A",
"M. c #E7B90B",
"N. c #E4AC14",
"B. c #E6A418",
"V. c #E5B615",
"C. c #EA8E20",
"Z. c #E89824",
"A. c #E79B34",
"S. c #E6A526",
"D. c #E8B727",
"F. c #E9A733",
"G. c #F2AB39",
"H. c #EAB838",
"J. c #E6C30B",
"K. c #E6CA0A",
"L. c #E8C80B",
"P. c #E8D40A",
"I. c #EADB0B",
"U. c #E7C714",
"Y. c #E9D917",
"T. c #E7E412",
"R. c #E8C727",
"E. c #EADB28",
"W. c #E8C839",
"Q. c #EADA38",
"!. c #EAE524",
"~. c #EBEC28",
"^. c #E8E637",
"/. c #ECE534",
"(. c #EDA647",
"). c #E8B447",
"_. c #EABB45",
"`. c #F1B046",
"'. c #EBB659",
"]. c #F1BB55",
"[. c #EDBA66",
"{. c #F2B968",
"}. c #F3BC7C",
"|. c #EAC648",
" X c #F2C94E",
".X c #ECDB48",
"XX c #F2DB46",
"oX c #ECCB5B",
"OX c #ECD859",
"+X c #ECE448",
"@X c #EFEE4F",
"#X c #EEEB56",
"$X c #EDCA68",
"%X c #F3DD64",
"&X c #EECF70",
"*X c #EEC875",
"=X c #F3C47C",
"-X c #F3D778",
";X c #EFEE6E",
":X c #F3E668",
">X c #F2F36A",
",X c #F1E979",
"<X c #F1BD81",
"1X c #EEC889",
"2X c #F3C787",
"3X c #F3CD8C",
"4X c #EFD789",
"5X c #F4D587",
"6X c #F5C994",
"7X c #F4D697",
"8X c #F4D99C",
"9X c #EDE888",
"0X c #F5E686",
"qX c #F4F788",
"wX c #F6E898",
"eX c #F5F896",
"rX c #F4D5A3",
"tX c #F8D7A6",
"yX c #F5DAA3",
"uX c #F5DCAB",
"iX c #F4DCAC",
"pX c #F6E7A9",
"aX c #F9E4AC",
"sX c #F6FEA3",
"dX c #F7F7A9",
"fX c #F6E3B3",
"gX c #F9E4B4",
"hX c #F7EBB3",
"jX c #F6E5BA",
"kX c #F9E2BA",
"lX c #F7EBBD",
"zX c #F9ECBB",
"xX c #F8F7B9",
"cX c #F9FDBB",
"vX c #F8DEC1",
"bX c #F7EDC2",
"nX c #F9EDC4",
"mX c #F8EFCA",
"MX c #F9F3C4",
"NX c #F7FAC5",
"BX c #F8FDC4",
"VX c #F6F5CC",
"CX c #F9F3CB",
"ZX c #F9FDCB",
"AX c #FAEFD0",
"SX c #FAF5D2",
"DX c #FAF5D7",
"FX c #F7FAD3",
"GX c #F9FCD5",
"HX c #F7FCDA",
"JX c #F9FDDC",
"KX c #FCF6E3",
"LX c #F9FEE3",
"PX c #FAFDEC",
"IX c #FBFCF5",
"UX c #FDFEF9",
/* pixels */
"1 1 3 : X X   O : : .   O   + % + + O O O - + X + @ , : , > + @ @ @ O O @ + @ O $ % X - X $ $ o o   % , . . . X . = = O : ; 2 > ",
"# : e y y = 7 t e , X % 4 7 0 s i t 0 + % 0   O 7 7 t x s e 7 3 , 7 = > a t 7 > O ; , e e s 0 9 $ 9 a 8 - + , 7 s s u t d y 6 # ",
"+ $ 6 l z L R A _ 3 3 s n z b z I K r 2 h b S d i d F R C x C F Q S i a I A C 7 0 b n J J h y T U T R u 3 2 z M M m M I W h 0 o ",
"> y U ' 2.^ +.O.R 4 z k R R ^ K / ( K d l O.*.+.Q Z ~ o.I Q ~ ~ O.[ k { } E b d | ^ W W K ^ M +.| O...a 7 a A ! / E / I / z 6 * ",
"@ p R | 6.g.o.9.} h M H b X.^ X.X.8.I L j a.i.<.[ =.{ A Q *.5.5.2.M Q 2.8.v H ' 0.@.6.5.j ..&.9.2.8.:.z a K b H ..6.8.5. .9 6 + ",
"* 0 K Y ..i.a.8.6.Y 7.L H 7.r.i.:.p.P P G c.:.u.h.x.z.7.;.u.a.i.a.W i.r.:.E a.i.d.a.t.9.| 0.0.p.a.0.0.G &.1.H +.h.k.i.8.{ c > # ",
"> N B K ,.u.d.v.c.e.x.o.W g.u.s.a.) e.2.u.M.8.z.^ ^ d.] s.B.B.B.*.{ x.l.k.w.y.S.N.b.v.P w.1.9.A.l.l.k.6.u.g.^ >.c.k.7.9.X.A 3 o ",
"# f B ' } r.x.S.M.m.S.F.6.(.t.v.+.A.C.v.F._.1.X.^ 5.j.m.b.V.H._.} a.).).V.N.'.[.W.M.H.^  .`.i.n.D.F.c.f.z.F.i.b.S.h.0.8.| m 0 o ",
"o 7 B ! %.w...A.{.1X2XH._.'.c.V.o.).D.[.).|.O.[ V.O.[ R.R.$XoX*X;.a.H.*XM.2X1X1XR.K. Xh.<.].3.J.n.n.n.D.F.*X'.D.c.u.&.| R b y = ",
"o 7 B _ b L E @.g.{.rX5X8X2XV.V.r.2XU.1X1X.Xd.>.U.t.-.&XQ.iX4XrXr.U.rXU.f.8X8XuXY.XXfX3Xd.3Xm.J.K.J.K.V.3X$X}.G.z.&.H r 3 3 , = ",
"o @ 7 s U 9.k.(.[.6XuX5XpX%X4X5XN.OX4X-XkX+XgXt.,XP.oXY.iXlXjXjXt.XXuXP.v.gXgXjX^.+XxXuX$X8XJ.7XP.K.U.4XfXrX1X'.Z.a.8.M x 3 O # ",
"# & 3 i x q.k.l.).6XuXkXzXhXnX.XgX4XkXjXbX+XAXnXlXP..XT.bXbXbXVXM.:X+XE.U.nXmXcXnX;XNXfXgXgXY.pXI.P.E.wXgX'._.).F.:.E H r t # X ",
", 7 7 f z G >.c.D.J.W.E.9XMXSXMXFXCXbXzXxX@XKXDXHXT.dXeXHXVXVXVXK.SX/.,XwXSXFXdXDXMXdXmXmXmX%XzXI.!.gXpXgXuX<XS.5.W L b R m , # ",
"* V ` $.>.h.k.c.M.L.P.Q.hX+XHXHXHXHXGXVXNX@XLXFXHX~.HXsXHXHXHX9XQ.SX/.GXHXLXHX@XcXZXZXFXGXFX,XNXT.FX:XE.U.P.=X).(.g.7.} R c 4 o ",
"o 9 _ $.9.p.x.H.m.J.P.L.I.MXHXLXPXPXPXLXFXqXPXPXLXeXHXHXHXHXHX^.LXcX#XJXLXIXKX,XdXFXJXKXHXHXcXHX>XdXhXzXvX*XV.b.s.d.i.^ E c 0 # ",
"o & D #.9.g.z.B.n.J.P.I.I./.dXGXHXPXPXPXLXxXLXPXPXPXPXLXHXPXPX9XJXsXeXJXIXIXJXqXZXJXIXLXJXGXHXJXNXMXMX-XM.5XJ.V.c.s.p. .K z f & ",
"& 7 _ $.p.g.A.m.J.L.5XaXlXzXZXBXBXZXsXeXBXPXPXPXIXIXvXIXKXIXIXVXHX9XHXPXIXPXsX9XHXPXIXIXLXNXHXHXZX9XxXzXfXm.y.o.{ u.:.X./ A i @ ",
"o f 9 ` 4.>.x.3.i.M.K.!.:X;XJXHXHXPXPXIXPXIXIXIXIXKXIXIXIXKXHXHXLXsXHXPXIXPXsXdXHXIXIXIXPXHXPXPXPXDXCXkX|.7X2X`.3.^ 1.8.^ M p @ ",
"* f n #.` p.h.(.$X3XuXjXnXSXGXGXJXLXPXPXIXIXIXIXIXIXIXKXIXIXHXHXHXFXHXIXIXHXlXVXPXIXIXIXIXLXIXIXIXIXDXzXfX-XV.).1.e.W ( K e q # ",
"o f J n j ' j.%.:.i.D.pXCXFXHXJXLXJXPXPXPXIXIXIXIXIXIXIXIXHXHXIXHXHXPXIXIXPXKXIXIXIXIXIXIXPXIXIXIXIXLXzXjX5X6X_.v.*.P H s 3 + # ",
"- u L Y q.i.P ..h.6XaXhXmXFXHXLXLXKXPXKXPXIXIXIXIXIXIXIXIXIXIXIXPXLXPXIXIXIXIXIXIXIXIXIXPXPXPXIXIXIXFXbXlXkX3X).B.u.G j l u % # ",
": y L ' q.d.0.F.W.*XaXjXMXHXPXPXIXIXIXIXIXIXIXIXIXIXIXIXIXIXIXIXIXIXIXIXIXIXIXIXIXIXIXIXIXPXLXLXIXHXeX>X#X+X.X|._.V.c.p.+.x 7 * ",
"o , n ` @.d.m.M.Y.XX:XdXSXGXHXPXIXIXIXIXIXIXIXIXIXIXIXIXIXIXIXIXIXIXIXIXIXIXIXIXIXIXIXIXIXIXIXIXPXPXLXKXmXkXi.o.r.8.e.i.=.C o # ",
"& * f [ p.d.N.W.U.Y.OXSXVXdXBXJXHXPXPXIXIXIXIXIXIXIXIXIXIXIXIXIXIXIXIXIXIXIXIXIXIXIXIXIXIXPXIXPXLXPXHXDXlXt.>.| h.z.y.2.@.q # o ",
"+ , 3 x =.k.F.[.1XyXhXdX>X@XqXqX9XNXHXHXIXIXIXIXIXIXIXIXIXIXIXIXIXIXIXIXIXIXIXIXIXIXIXIXIXPXPXPXPXLXLXFXzXwXR.z.W  .p.>.~ w 4 # ",
"O 4 l m ' i.S.[.1XrXfXmXSXFXGXcXqXsXdXNXHXIXIXIXIXIXIXIXIXIXIXIXIXIXIXIXIXIXIXIXIXIXIXPXIXIXIXPXPXsX@X~.I.P.c.o.&./ h.#.Z g 4 # ",
"O t A R m Y Z.F.3XyXfXbXSXFXJXLXLXHXHXHXHXIXIXIXIXIXIXIXIXIXIXIXIXIXIXIXIXIXIXIXIXIXIXIXPXIXIXPXPXHXJXhX.XZ.o.%.w.d.a.+.` Z q > ",
"@ d T ^ 6.:.c.B.r.r.W.8XCXGXLXIXIXIXIXIXIXIXIXIXIXIXIXIXIXIXIXIXIXIXIXIXIXIXIXIXIXIXIXPXIXPXPXLXLXBXxXeXI.+X3XM.b.^ 9.T @.F N > ",
"O , x { 7.i.B.).'.K.P.+XxXxXJXJXLXIXIXIXIXIXIXIXIXIXIXIXIXIXIXIXIXIXIXIXIXIXIXIXIXIXIXIXIXPXPXPXLXHXFXFXbXaXQ.R.v.a.o.~ F C t > ",
"O = 8 Z @.i.Z.).|.7X8X.XQ.^.>XZXLXPXIXPXIXIXIXIXIXIXIXIXIXIXIXIXIXIXIXIXIXIXIXIXIXIXIXIXPXPXPXPXLXLXFXVXnXzX7X$XV.c.a.o.Q d p = ",
"@ 4 Q ~ v I 6.d.r.m.Q.0XSXcXdX,XqXcXHXHXLXIXIXIXIXIXIXIXIXIXIXIXIXIXIXIXIXIXIXIXIXIXIXJXZXHXHXPXHXHXFXVXMXjX7XoXD.B.a.;.Q d 7 @ ",
"O , Q O.0.p. .} ;.r.t.M.J.9XLXJXHXLXFXFXHXIXIXIXIXIXIXIXIXIXIXIXIXIXIXIXIXIXIXIXIXIXIXLXLXLXHXcXqX^.pXCXMXkX7X*X_.c.a.;.Q S < O ",
"O 3 F [ 8.a.S.`.*XyXjXnX9X:X#XeXZXLXJXJXJXIXUXUXIXUXIXUXIXUXIXUXIXIXIXIXIXIXIXIXUXIXIXJXJXJXJXJXJXZXY.L.n.f.u.;.X.9.a.2.} F , O ",
"@ 7 k Q 5.d.v.H.&X4XjXmXCXGXGXLXJXBXBXJXLXUXIXIXIXIXUXIXUXIXUXUXIXIXIXIXIXIXIXIXIXUXIXPXLXZXsXeXcXcXSXCX:X%XR.s.9.^ E M | S 4 O ",
"= q k | 5.d.B.D.$X7XjXCXVXFXHXLXPXPXPXPXPXUXIXUXUXIXIXUXIXUXUXIXIXIXIXIXIXIXIXIXIXUXUXIXIXIXPXGXqX@X/./.:XkX8X|.).x.9.U x q = O ",
", t c T ( :.s.V.|.-XkXCXVXDXLXPXPXUXIXIXIXUXUXIXIXUXUXIXUXIXIXUXIXIXIXIXIXIXIXIXUXIXUXIXPXIXIXPXJXGXGX,XE.P.V.*X).l.p.8...i > . ",
"< d T o.~ u.+.v.R.|.I.!.9XdXLXLXPXIXIXIXIXIXUXUXUXUXIXUXIXUXIXIXIXIXIXIXIXIXIXIXUXIXUXIXIXUXIXPXPXPXKXpXL.v.u.M.N.d.:.8.{ A t @ ",
"3 t Q | F c.d.z.;.d.5XE.9XHXLXPXPXUXPXPXIXIXIXUXUXIXUXIXUXUXUXUXIXIXIXIXIXIXIXIXIXUXUXPXPXLXPXPXPXPXLXCXlXfXyX*XB.+.E M / v t + ",
"@ 4 g Z $.x.) 5.} u.P.I.T.~.qXLXPXIXPXUXUXUXUXUXUXUXUXUXUXUXUXUXUXUXIXIXIXIXIXIXUXIXUXPXBXcXsXsXGXGXFXCXCXgXyX1X{.l.a.H c m 4 @ ",
"& 7 p F A w.' ] v.L.Q.MXGXLXLXPXPXPXPXIXIXUXUXUXUXUXUXUXUXUXUXUXUXUXIXIXIXIXIXIXUXUXUXIXGXBXsXqXqX>X>XcXMXjXuX1X[.B.0.Y d 7 > O ",
"# = p } <.d.x.{  .,.H.SXDXLXPXPXPXIXIXIXPXUXUXUXUXUXUXUXUXUXUXUXUXUXUXUXUXUXUXUXUXUXUXUXPXPXPXPXLXcXJXDXdX/.Y.W._.N.k.i.` 4 O @ ",
"& + S =.y.3.;.2.6.g.kXAXKXPXPXUXIXIXUXIXUXUXUXUXUXUXUXUXUXUXUXUXUXUXUXUXUXUXUXUXUXUXUXUXUXUXUXUXUXUXIXKX0X+XXXU.M.m.a.@.( z , @ ",
"> 5 x @.d.d.D.H.oXOX%X0XeXNXPXUXUXUXUXUXUXUXUXUXUXUXUXUXUXUXUXUXUXUXUXUXUXUXUXIXUXUXUXIXPXUXUXUXIXPXPXxXNXzXuXoXH.c.t.>.W n , o ",
"# % l r n G u.F.V.2XkXnXSXPXUXUXUXUXUXUXUXUXUXUXUXUXUXUXUXUXUXUXUXUXUXUXUXIXIXIXIXUXIXIXPXPXPXIXIXIXHXbXhXyX3Xe.^ P 0.*.W K y * ",
"O X 2 d R P d.N.'.2X4XlXDXIXUXUXUXUXUXUXUXUXUXUXIXPXIXUXUXUXPXPXIXPXIXIXIXPXIXPXIXIXPXPXPXLXLXJXLXJXGXnXhX5Xz.7. .w.@.L _ L f o ",
"+ 4 e v H P j.Z.M. X8XfXAXLXIXIXUXUXIXIXIXPXUXPXGXBXLXUXUXPXcXLXHXPXPXPXIXIXIXPXPXIXJXPXPXJXZXcXGXJXGXnXpX2X=XG.(.3.3...' N f # ",
"# s H ( 0.5.%.(.{.=XR.aXMXCXSXJXPXIXLXPXLXPXUXLXeXcXPXUXPXLXeXLXFXLXPXPXPXPXIXIXPXIXLXLXIXPXLXJXJXdX0X:XR.V.v.x.e.q.h.' B g 9 & ",
"+ 9 R ^ o.p.d.p.9.H.*XgXpX,XxXBXGXJXcXJXPXPXUXJXqXBXIXIXPXZXeXJXxXPXPXPXLXPXPXPXIXIXPXZXLXLXGXJXJXGXMXzXwX8XU.M.b.A.h.e.$.g 9 # ",
"= p b L o.i.f.l.D.D.W.M.yXNXNXxXZXZXJXJXJXUXIXGXqXPXUXPXGXqXcXJXqXLXLXLXJXPXPXPXPXPXIXLXPXLXGXzXBX#XT.I.I.P.J.n.S.f.a.2.| Z # # ",
"& q m E o.u.d.c.m.D.3XfXpX$XNX>XJXxXJXHXJXUXPXeX,XIXIXPXHX@XcXeX#XHXLXKXZXLXZXLXPXIXUXLXPXLXCXeXFXxXCXI.P.P.J.m.F.x.e.8.$.A 7 o ",
"o 0 b ^ X.7.x.(.'._.K.E.OXhXVX!.ZXwXFXGXLXIXJXSXeXIXPXJXCX/.CX!.zXFXGXGXxXGXeXJXdXPXUXKXPXLXNXNXCXMX#XgXU.K.L.n.f.k.i.6.#._ f # ",
"o 4 m ! b R W e.{.6XyXfXpXwXY.T.nX-XCXCXCXNXcXAXCXDXmX,X:X/.CXP.GXVXVXCXdXcX>XDXDXPXUXJXDXCXhXbX5XzXQ.,XaX7XU.D.f.9.J m x f q > ",
"& = s c b H X.0.r.k.rXkXgXU.I.I.wXoX&XpXhXMX>XwXMXMXlXJ.E.:X:Xn.CXbXbXlXI.R.!.xX7XDXIXLXjXkXOX7Xn.kXY.jXaXuX3XS.g.a.%.u 4 , : & ",
"& + 2 d I 2.g.F.[.6X8XtX8XL.P.P.rX|.H.tXyXbX#X/.kXgXgXn.Y.kX%XN.fXjXjX0X+X1.P.pXV.nXzXDXrX-XyXm.tXoXR.rX).rX&X[.F.g.9.U d 3 & # ",
"& - 3 2 r { i.z.N.<X6X6X|.J.M.K.U.Z.].B.3XfXXXY.uXyXyXm.R.7XD.d.7X7XyXU.5X&.m.$X:.B.+X3X6XV.=Xl.J.M.2X}.$X1X].A.0.^ J b Z N > o ",
"< e B A ! R d.f.).Z.{.V.H.m.m.V.J._.l.i.2.oXU.|.1X2X[.M.=X].z.:.&XoX$XU.J.%.-.Z.} -.W.'.H.'.`.-.V.b.'.l.'.).`.D.c.o.+.R ` c 5 # ",
"O t U } 8.7.x.S.k.2.F.z.f.z.N.`.m.A.F.&.&.H.n._.[.'.s.N.(.).0.5._.W.V.v.m.} &.E 8.i.H.B.b.p.a.} v.f.(.5.G.x.l.c.S.l.k.O.` M f # ",
". 7 T } 9.e.k.x.^ ^ d.9.i.x.k.z.A.%.p.&.P m.m.N.B.l.%.d.t.z.) x.c.z.c.f.] x.^ +.x.1.V.u...e.E u.f.d.j.W 0.a. .a.x.d.C.q.R Z f @ ",
"+ X K { 8.u.a.p.^ J 1.^ L i.p.a.p.p.5.e.p.u.s.a.9.p.^ 8.a.e.E u.p.a.d.;.p.c.i.z.d.:.v.G P W i.<.i.i.1.H %.0.J *.0.p.a.,.O.U V & ",
"o q x +.8.o.{ } b b H t A 8.9.8.0./ %.Y &.5.*.i.L K I 8.6.U A <.>.-.@.~ A @.! 6.2.9.i.j H } 6.%.} ^ X.b H v r +.8.9.9.*.I D C > ",
"* 6 h v ) Y I / / m x 2 A ..+.| +.z ' ' W E ) ~ d c ! { ^ k { O.Q ~ Q T @.T Z [ &.*...h s I ) R v E I Y a l 2 ( { ..} %.^ K M w ",
"o e r Y T M m M M l 3 3 C T T M c l h K L M k 7 9 n M I i V S F S x x C T C d 0 V Z c a 2 z U T c z m m y 3 3 A A T M 6 H j k m ",
"% 2 4 p y i i t 3 > $ : y p 7 % 9 9 y y u ; ; O > 7 t t = = 4 : 3 7 i s d w 4 4 O . y % X q i i p 9 3 , + O , t 0 , 3 6 6 0 9 e ",
"* - O % + % % . . X o * > # . o $ * # # - . @ % O @ + @ O O + O O @ > , : : @ + X # - O O + @ # & O   O   . : = .   X   -   X - "
};
