/* XPM */
static char *port31693303857[] = {
/* columns rows colors chars-per-pixel */
"64 64 256 2 ",
"   c #010105",
".  c #04030A",
"X  c #040113",
"o  c #05011B",
"O  c #060A1D",
"+  c #050223",
"@  c #050B24",
"#  c #05022B",
"$  c #08062B",
"%  c #060B2C",
"&  c #08082B",
"*  c #06112B",
"=  c #060334",
"-  c #050D32",
";  c #06023B",
":  c #08083A",
">  c #061235",
",  c #06133C",
"<  c #07163C",
"1  c #060344",
"2  c #090243",
"3  c #07084A",
"4  c #061342",
"5  c #071847",
"6  c #071C4B",
"7  c #091C4A",
"8  c #090656",
"9  c #081754",
"0  c #0A1D53",
"q  c #092448",
"w  c #09244B",
"e  c #092555",
"r  c #0A235B",
"t  c #0A2C5C",
"y  c #0A0467",
"u  c #0A1A67",
"i  c #0B0274",
"p  c #0A0A76",
"a  c #0B1779",
"s  c #121773",
"d  c #0A2C62",
"f  c #092969",
"g  c #0C356A",
"h  c #0B346C",
"j  c #0C2876",
"k  c #0C3476",
"l  c #113474",
"z  c #0E447B",
"x  c #0D0787",
"c  c #100F85",
"v  c #0C1687",
"b  c #111587",
"n  c #0E0592",
"m  c #100599",
"M  c #0C1798",
"N  c #0B268A",
"B  c #10298F",
"V  c #0E3C84",
"C  c #0E3988",
"Z  c #123A89",
"A  c #0D2898",
"S  c #0D3A96",
"D  c #113998",
"F  c #0E10AC",
"G  c #111BA8",
"H  c #1209B8",
"J  c #131AB9",
"K  c #0D28A7",
"L  c #1327AB",
"P  c #1337A8",
"I  c #1326B7",
"U  c #0D31B6",
"Y  c #133AB9",
"T  c #0D4387",
"R  c #11428A",
"E  c #0E4599",
"W  c #124699",
"Q  c #0F45A5",
"!  c #1248AA",
"~  c #1553AA",
"^  c #0D47B7",
"/  c #144CB3",
"(  c #1447BA",
")  c #1453B7",
"_  c #1568AF",
"`  c #1307C5",
"'  c #0F1CC4",
"]  c #1318C9",
"[  c #1607D7",
"{  c #1419D9",
"}  c #1426C8",
"|  c #1439C9",
" . c #1528D9",
".. c #0E31D0",
"X. c #183BDA",
"o. c #1709E6",
"O. c #1617E7",
"+. c #1909F0",
"@. c #1618F4",
"#. c #1627E8",
"$. c #1A3AE6",
"%. c #1739E9",
"&. c #1728F4",
"*. c #0F3CF0",
"=. c #1837F5",
"-. c #0D48C7",
";. c #1546C6",
":. c #1657C7",
">. c #1847D4",
",. c #1859D7",
"<. c #1864DB",
"1. c #1670DB",
"2. c #2168DF",
"3. c #1947EA",
"4. c #185AE6",
"5. c #1953ED",
"6. c #1A5CED",
"7. c #1A44F5",
"8. c #1649F4",
"9. c #1A4BF4",
"0. c #1A53F4",
"q. c #1955F5",
"w. c #1B5BF5",
"e. c #2153F3",
"r. c #1A63E4",
"t. c #196CE7",
"y. c #1B64ED",
"u. c #1B6BEB",
"i. c #1975E8",
"p. c #1B7AED",
"a. c #1B63F4",
"s. c #1965F5",
"d. c #1B6BF4",
"f. c #1D6BF9",
"g. c #1C73F4",
"h. c #1C7BF5",
"j. c #1D74F9",
"k. c #1D7CF9",
"l. c #2167E9",
"z. c #2073EC",
"x. c #2177F9",
"c. c #1C90E9",
"v. c #1B84F5",
"b. c #1788F4",
"n. c #1B8BF5",
"m. c #1D82F9",
"M. c #1D8BF9",
"N. c #1E92F4",
"B. c #1A98F6",
"V. c #1D9BF4",
"C. c #1E93F9",
"Z. c #238FEC",
"A. c #2289F7",
"S. c #2184F9",
"D. c #2194F4",
"F. c #229CF6",
"G. c #2699F9",
"H. c #3396F6",
"J. c #1AABED",
"K. c #1EA2F4",
"L. c #1CA8F4",
"P. c #1DB5F0",
"I. c #25AAEB",
"U. c #23A4F3",
"Y. c #24AAF5",
"T. c #2BAAF6",
"R. c #22A5F9",
"E. c #24ACF9",
"W. c #35A8F6",
"Q. c #23B4F3",
"!. c #25BBF3",
"~. c #2CBCF4",
"^. c #27B6F8",
"/. c #35BAF5",
"(. c #42B4F4",
"). c #1FC6ED",
"_. c #32D1ED",
"`. c #25C4F4",
"'. c #2BC3F4",
"]. c #2DCAF4",
"[. c #28C9F9",
"{. c #33C4F3",
"}. c #3AC5F3",
"|. c #35CAF3",
" X c #3CCAF6",
".X c #38CAF9",
"XX c #2BD6F8",
"oX c #36D5F6",
"OX c #3DDAF5",
"+X c #38EBF6",
"@X c #39E4F8",
"#X c #4FD2EF",
"$X c #45D8EF",
"%X c #47C9F4",
"&X c #44D4F4",
"*X c #47D8F5",
"=X c #4CDCF3",
"-X c #53DCF3",
";X c #59DBF4",
":X c #6ADAEF",
">X c #64DEF3",
",X c #76DDF3",
"<X c #45E3F5",
"1X c #4CE4F3",
"2X c #49E9F7",
"3X c #53E3F3",
"4X c #5BE3F4",
"5X c #53E9F4",
"6X c #55EAF6",
"7X c #5AEBF5",
"8X c #57E9F9",
"9X c #63E4F3",
"0X c #6CE4F4",
"qX c #66E9F7",
"wX c #6CECF4",
"eX c #6DECF4",
"rX c #74E4F4",
"tX c #7BE5F3",
"yX c #76EAF7",
"uX c #7DEAF4",
"iX c #84DDED",
"pX c #83DDF3",
"aX c #8CDFF3",
"sX c #97DDF2",
"dX c #A7DCF5",
"fX c #83E5EF",
"gX c #83E4F4",
"hX c #8BE3F5",
"jX c #89E7F7",
"kX c #83EAF5",
"lX c #93E4F4",
"zX c #9CE4F4",
"xX c #97ECF6",
"cX c #A6E7F6",
"vX c #B8E7F7",
"bX c #A6F0F9",
"nX c #CEDFF6",
"mX c #E5DDF7",
"MX c #C9E7F9",
"NX c #D3E5F9",
"BX c #D6E8F8",
"VX c #DBEBFA",
"CX c #DBF0F9",
"ZX c #E8E6F6",
"AX c #E2E4F9",
"SX c #EDE4F9",
"DX c #E4EBFB",
"FX c #ECEBFA",
"GX c #F6E7F8",
"HX c #F4E5FA",
"JX c #F4ECFB",
"KX c #FAEDFB",
"LX c #E7F2FA",
"PX c #F5F1FB",
"IX c #FBF2FC",
"UX c #FCF8FD",
/* pixels */
"ZXKXJXKXIXKXHXAXnXnXIXKXJXNXNXMXBXSXVXJXKXFXLXLXLXUXUXLXPXIXJXPXCXAXLXKXBXvXCXIXIXIXUXZXSXGXSXGXIXZXMXNXJXKXGXNXmXMXvXHXAXVXKXKX",
"vXbXbXcXcXuXrX4XyXFXHXNXlXtXkX0XhXyXyXDXMXwXkXeXeXuXgXVXvXbXtXkXyXrXBXlX7XeXPXKXDXbXbXgXuXBXcXcX:X0X;XiXHXHXdXyXtXrXuXtXqXeXDXVX",
"FXvXzXqX*X~.|.}.%XlXMXyXhXqX3X8X1X2XoX1XbXoX7X6XqXxXuX0X0X4XOX*X*XqXxX1X1X<XzX2X6X<X+X3XvXzXyX{.{.oX/.#XNXgXgXzX3X=X1X1XOX*XjXDX",
"FXhX;X{. XG.E.U.^.,X X.XqXqX^.L.!.[.!.<XoX].7X7X0XqXfX4X-X{.~.~.~.tX3X_.~.!.qX!.].R.`.~.;X%X~.F.K.Y.Y.4X>X}.#X9X-XQ.!.].P.&XjXFX",
"GXhX4X&X{.Z.n.n.T.U.R.D.|.OXm.n.D.R.@X[.`.h.V.N.2Xb.2X1X&Xn.n.M.M.@X7X).N.V.+XC.A.k.f.8X7XR.OXM.S.Z.N.T.^.C.K.5XN.m.C.E.E.&XzXJX",
"GXaX#X%XT.v.h.m.n.n.x.h.v.v.g.k.S.@X^.v.d.u.S.h.i.g.D.J.v.x.h.x.g.2XoXm.h.d.XXR.Q.d.6.OXoX!.x.b.S.m.b.b.h.m.h.[.h.g.j.v.~.~.uXIX",
"SXiX>X%XH.x.a.i.g.u.d.<.E.F.r.f.z.[.l.w.r.8.q.q.5.:.l.[.<.,.,.:.[.XXg.u.s.,.k.D.i.( %.<.u.t.<.a.a.x.x.u.s.r.Z.v.t.s.j.R.F.|.,XGX",
"GXaX>X%XH.x.l.<.5.9.>.r.u.! 5.l.R.^.) :.w.*.7.8.( D t.i.Q ! a.W F.p.q.9.>.! m.B.i.D =./ Q Z.~ q.0.w.w.w.9.~ F.) ) q.t.N.K..X;XDX",
"KXhX,X,X1X!.c.,.E D C :.S T 8.;.G.z 3.Z Y %.&.=.k k Q.Y B W a.-.K.Y %.%.V ;.x.M.f 0 &.Z k T :.3.X.>.T / >.Z z.R W w.i.U.T.}.0XMX",
"KXvXlXrX8Xv.L.A.) g w V e t %.Z W t | k 7 c &.&.0 0 V.k N N 2.H.x.$.U A w 9.a.x., #.@.f t t n.f P ! d h h h S g >.6.b.Y.rXhXFXNX",
"IXGXsX;X/.S.i.) ! ! ( a < , I e r K j j O @ b &.> , a.s v a.L S. . .6 4 4 a.9 q.J J o.7 7 7 U X.6 $.w d 0 e.w r ;.w.x.Y.&XMXHXKX",
"KXGXVX>X*Xh.d.w.>.g r 6 j 9 9 5 > I M %   . 1 @.$ $ $.9 u I e.l.} G : - L 5.: I p # o., < % 5 9.4 L A u 5 P t Z ,.r.h.N. XtXBXKX",
"KXSXsXgX;Xn.d.q.;.l r 0 - = $ @ @ 4 4 O     + @.o o %.8 : $.e.s { ; $ +  .N } J o o o.& * $ > 5 : 9  .$ > j 6 Z u.Q.v.{.4XhXsXJX",
"GX,X#X(.W.M.v.a.;.l f M { - + + % 3 = o .   X +.X X p 8 . 8 =.o { + o o #.# G ` + + 2 o $ $ & 2 : $ u & - < e R ) C.c.<X9XyXtXNX",
"GX,X#XW.H.k.k.d.R k j e < % 8 x 8 = + o X   . o..   # x . X b o H . X X I o # i o i X X o o + $ : $ $ $ 8 I 3.8.:.<.g.v.^.=XkXNX",
"KXlX%X(.G.b.j.w.q.9.X.K } ] ] x ; o o o X .   [     . ` . . $ o i X o o o o { o o 3 . . . o o o i # o + , e P 3.r.a.g.M.L.8X9XMX",
"KXsX}.(.A.p.a.6.;.h w u f : $ + o o X X . . . x . . . G . $ . . o X O 8 X . H X o X . . . o o X x 2 $ + , e / G.F.g.S.D.'.1XhXNX",
"GXNX:X%X*X~.n.p.g.y.| w , @ + o o X X X . . X 2 . . . s . 8 . $ . . X 2 . . 2 X o . . . X X X o m 3 & 3 } M t z ^.[.XXK.[.2XyXSX",
"KXMXtX#XW.h.i.1.E d 7 * @ @ + X X . X . . . . . . . . O . X . $ . X X . . 2 O . . . . . . o X X 2 o O % u j $.>.~ l.^.@XQ.oXeXNX",
"JXcXvXhX4X@XXX,.T d < O X . . . . . . . . . . . . . . . . . o $ . . X . . 2 X O . . . . X . . X o . . . O j k V :.w.n.[.<X1XDXJX",
"KXcX>X&X=X2Xd.) V t < @ X X X X . . . . . . . . . . . . . . O . . . X . . $ . . . . . X X X . X . . . . X * d | 0.r.d.XXoXxXVXKX",
"ZXlX-X XH.U.s.6.W j 7 - @ @ o X . . . . . . . . . O O . . O . . . . . . . . . . . . . . . X . . . . . . X 3 G X.%.q.f.v.oX-XyXJX",
"IXCX<X!.v.d.4.Q N &.F - ; y m = O . . . . . . . . . O . . O . . . . . . . . . . . . . . . . . . . . X o - c &.&.7.w.m.K.8X6XkXLX",
"IXJX4X|.W.v.,.D f 4 { p + + o o 3 : O . . . . . . . . . . . . O . . . . . . . . . . . . o # i m H [ o.@.@.&.&.=.7.q.m.V.6X6XeXCX",
"IXKX0X_.E.^.h.n.d.! v 3 F n # + & o o o . . . . . . . . . O . . . . . . . . . . . . .             . X + = , 9 k ;.4.g.2XqXqXqXDX",
"KXJXvX9XP.).XXR.h.s.| %.%.M  .` y $ o o O . . . . . . . . . . . . . . . . . . . . . . .             X o $ , 0 g D ;.h.b.eXxXyXPX",
"GXuX4X&X].R.u.) ,.s.4.v a o # # + m i : . . . . . . . . . . . . . . . . . . . . . . .           X = p %.X.,.D.F.<.r.b.&XgXuXhXPX",
"FXfX3X}.W.h.s.^ k d K q.9.I + X X X o o O O . . . . . . . . . . . . . . . . . . . . . . O 8 n i y # + @ - 9 f ( U.`.L.8X9X9XBXLX",
"IXzXeX-X Xv.s.q.%.A , - @ + 1 M i $ X . . . . . . . . . . . . . . . . . . . . . . . .           .   X 8 b G A D ! u.n.&X1XyXbXJX",
"GXFXfX4X6X].p.w.8.#.6 - % o X X X o o o . . . . . . . . . . . . . O . . . . . . . . . .   # 2 X X X s ..K w.j R / ,.h.Z.|.4XcXPX",
"GXfXcXfX6X2X+Xs.-.%.K 5 % o . X X X X . . . . . . . . . . . . . . . . O . . . . . .   X o .   X + I =.9.w.v u.s.s.,.u.S.~.OXtXFX",
"IXlX;X%XH.b.XX[.R.8.#.#.{ M 1 . . X . . . . . . . . . . . . . . . O . . . . . . . . . X # ; X X o o o N a.m.N.^ W :.x.n.^.&XuXPX",
"JXzX8X%XF.k.t.) <.b.6...0 8 8 8 i 8 # . . . . . . . . . . . . . . . . . . . . . . . . . .   . = x H ] ] ' #.S.B.c.!.g.S.~.*XrXCX",
"IXzX#X(.H.h.,.,.( 6.g.s.0.X.o . X = o X X .   . . .   . . .   . . . . . . . . . .   . . . . X . X . + p ]  .X.>.L.@XOXQ.eX;X0XVX",
"UXzX8X%XH.h.6.^ s.d./ A ..1 b } b o       . .     . .   . .   . . . . . . . . .   . .   . . X X X X o @ < 9 A 7.q.g.2X6X4XxXMXAX",
"IXzXgXqX/.n.u.~ V e 6 6 # o ; ; X           .   .     . .   .   . . . . . . . . . .       X + ; o X o + % 5 K %.9.y.m.XXOX1XlXJX",
"JXMXhX;X%XJ.[.d.8.&.&.O.O.O.` i = .         . . .   . . .   . . . . . . . . . . .   . X . . X o + } #.J b , w Z >.s.h.n.{.1X7XBX",
"IXVX0XxXwX<XXX`.N.p.,.K 4 X   .     X + ; O .     . .   .     . . . . . . . . .   . . o = = + o o o # P q.d.3.;.Q 4.g.F.!.<XeXvX",
"UXVXuXfX/.h.4./ C r 4 % + $ 8 # X X           . .     .   . .   . . . . . . . .   . .     X # i n + I M : 9 s.j.m.g.[.+XwXhXFXMX",
"UXfXeXkXW.m.,.Q k r 4 $ o o .               .   . .   . . .   . . . . . . . . . .   . . .     X + m { G $.s.h.C.R.Q.L.S.Q.6XPXIX",
"PXxX9XeX7Xb.y.5.=.N ' @.O.+.` 1 X                   .     .     . . . .     .   .   .     .   . X o + = n M , j A.c.P.b.'.6XDXPX",
"PXxXrXeXW.n.a.9.=.&.{ ' F n x i i 3 ; # X         .             . . . .                       . ; 8 + o # J  .0 D ;.s.j.R.*XbXPX",
"FXtX$X_./.k.0.7.=.J % X   .                                     . . . .               .   . . X X + i [ [ ] @.&.=.7.6.g.`.+XbXIX",
"GXZXvX5X@Xj.t.6.! e @ .       .     . . X X         X + . X X X . . . .   ;       +   . . . . . X + # % 4 5 d V / ,.OX8X~.1XgXDX",
"KXJXcX2X@Xv.f.:.3.V 4 @ X .           X o X   . o   = .   o X . . .       X       ;   X . X X o o + # - , 7 t V ! <.XX6X;XzXuXJX",
"GXcX1XOXoXB.u.4.~ k f A @ @ o X X X X X X .   o o . 8 . X X X . $ $ .     .       1   X X X X o o o @ % : 6 t V 1.c.oXL.>XvXMXJX",
"GXgX*X^.<X[.E.i.E V #.I v s : @ o X X X X . X = X o y X + o X . 8 o 2 . X   X     8   . X X o # # + # - 6 -.4.V ~ <.h..X'.rXcXFX",
"GXaX4XoX^.n.m.`.i.g q 4 u 4 y p + o + + o X o 3 X 8 # . x X X . i . G . ; . X   + y   . . X o 3 $ # $ 7 3.3.k 3.q.s.n.v.R./.cXKX",
"GXlX>X'.F.v.f.f./ ;.Y K < % 8 H + o # o o o = + + ` $ o x X . X 3 . y 2 n X =   y y   X # 8 8 p = = = 4 < q B ;.e.6.A.S.K.{.:XIX",
"SXpX4X{.n.h.s.w.q.9.Y 9 < $ = ] $ + 1 o + + m o + @.# # ; o . 3 ; # @ @ [ . 3   [ i   X o # 3 3 $ $ 2 b ' $.Y 4.e.x.v.n.Y.oX9XZX",
"GXhX-X-XK.v.u.:.E ( A I v 3 @ b 4 + : $ # $ i o m G o %.o o o M 3 7.o o o.X X X +.n . . . @ 9 4 - - L s u w f T e.x.Z.N.I./.;XMX",
"KXaXlX0X6XXXB.u.T h w r > O., u u , > - - $ = $ H $.8 7.@ & $ { 5 9.%.% { 3 + o @.H o . o - v u , 7 { , 0 j f ! w.d.b.T.#X&XgXBX",
"IXNXhX>X*XS.i.E.t.Q r q e A t 0 j 5 * 4 , , = 9 3 %.N q.- - 9 #.U s.} 5 O.| $ $ &.O.O O - L ' , L r  .< w D r | 5.a.h.{.,XMXHXJX",
"KXGXzX#X~.m.d.:.Z t >.r r w P B e I q w 6 6 F { B U q.a > 6 L &.q.j.6.4 #.l., 4 O.@.- > 0 r  .w D Y N q 0 >.r V W r.k.c. XhXHXKX",
"IXSXNX,X8XA.s.q.P h ( d l g V e.l u.d d r j O.4 -.4.s.w N  .%.*.v.,.6.w &.n.e r I &.M t V k g z Y 7.P l ,.h l W _ <.i.V.%XpXcXKX",
"GXsX-X#X^.D.d.,.E ) W >.;.Q W 9.( h.R V V R N d d.g.4.k %.*.-.R.i.-.w.C =.V.k k =.=.&.E >.3.z 1./ e.W R x.W ;.! W u.I.&X9XzXtXNX",
"GX,X|.W.N.v.g.:.:.v.~ w.q.w.f.e.5.i.p.~ / q.D W n.B.~ / 9.q.6.[.! 6./ Q q.`.Q Q 9.7.=.q.) ,.B.E.y.w.) ,.R.) q.w.6.a.y.n.-X3X,XAX",
"KXtX$XT.F.p.d.t.n.Q.u.a.d.S.j.f.y.b.i.].u.a.,.,.g.[.y.a.a.p.@XoX<.,.4.<.XX].,.,.s.d.0.u.f.t.!.j.d.a.x.V.i.d.a.j.h.x.d.j.I.1XtXMX",
"IXiX X^.b.v.h.h.'.S.m.m.n.M.m.m.b.F.h.@X2XD.a.A.!.).N.h.h.).+Xb.j.h.h.m.P.2Xx.p.x.m.g.d.h.K._.M.h.x.h.XXx.m.M.A.v.M.h.Y.K.=XtXvX",
"KXsX X|.V.F.M.n.2X=XF..X XV.D.n.C.*X~.1X1XV.h.F.E.P.[.V.'.2X2Xn.C.A.N.Q..XqXL.L.[.K.K.+XXX@X~.^.F.n.I.2X/.^.*XE.D.C.v.U.'. X,XAX",
"JXzX4X!.oX`.Q.}.,X9X%X#XrXT.E.Y.I.}.}.tX{.!.I._.XX3X X'.$X1XyX'.{.~.{.4X=XkXyXtXeXeX].1X<X'.!.].'.!.4X>X-X%X,XOXY.T.K.Y.|.9X0XdX",
"ZXvX4X$X1X=X4X4XgXhXtXNXpX%X X}.'.:X:XvX3X<X@X3X7XcX3X$X1XuXlX$X=X$X4XeX,X>XkX4X7XqXXXcXhX@X$X4X;X3X7XzXhXzXvX%X%X_. X.XrXcXjXhX",
"DXDXcXyXtXhXyXpXtXdXGXGXSX:X>XhXfXvXMXlXlXtXvXVXIXGXuXeXkXVXgXkXgXgXzXcXNXMXMXyXyXxXwXDXGXeXyXpXhXgXpXkXvXHXGXpX4X0XgXvXvXNXlXbX",
"PXJXKXZXHXNXnXVXmXGXKXIXZXVXSXGXGXGXJXGXZXZXIXIXIXPXBXBXKXKXZXFXJXPXKXIXLXIXUXUXPXLXPXKXIXZXJXJXNXVXmXSXKXKXGXVXDXGXIXUXJXJXJXFX"
};
