/* XPM */
static char *port7_c1693383949[] = {
/* columns rows colors chars-per-pixel */
"64 64 254 2 ",
"   c #070A07",
".  c #050D04",
"X  c #0B0C05",
"o  c #051204",
"O  c #071607",
"+  c #0C1305",
"@  c #0B130A",
"#  c #0E1B0A",
"$  c #131405",
"%  c #1B1306",
"&  c #14140A",
"*  c #1A1008",
"=  c #161808",
"-  c #300E04",
";  c #231305",
":  c #2B1506",
">  c #28170A",
",  c #371608",
"<  c #3B140A",
"1  c #3C2516",
"2  c #490E05",
"3  c #550E06",
"4  c #44140A",
"5  c #4A190A",
"6  c #53130A",
"7  c #581609",
"8  c #451C16",
"9  c #63150A",
"0  c #6F120A",
"q  c #691709",
"w  c #751409",
"e  c #7C150A",
"r  c #781809",
"t  c #4F200D",
"y  c #70270C",
"u  c #743C23",
"i  c #870E08",
"p  c #990D09",
"a  c #871407",
"s  c #8D140B",
"d  c #831B0B",
"f  c #8B1A0B",
"g  c #971506",
"h  c #94130B",
"j  c #9B140B",
"k  c #941A0A",
"l  c #9B190C",
"z  c #901D12",
"x  c #A80F08",
"c  c #B90C07",
"v  c #A71406",
"b  c #A3140A",
"n  c #AC140A",
"m  c #A51A0B",
"M  c #AB1C0A",
"N  c #B71706",
"B  c #B4150B",
"V  c #BC140A",
"C  c #B31D0C",
"Z  c #BB1B0B",
"A  c #AB1D11",
"S  c #8F220A",
"D  c #AC230A",
"F  c #B7230A",
"G  c #BC220B",
"H  c #B82C0D",
"J  c #C50C07",
"K  c #C81708",
"L  c #C41B0A",
"P  c #D81908",
"I  c #C31910",
"U  c #C3230B",
"Y  c #C42B0B",
"T  c #CA2808",
"R  c #D72A09",
"E  c #CC330B",
"W  c #C93809",
"Q  c #D73607",
"!  c #D4350B",
"~  c #D53C0B",
"^  c #DA3C0B",
"/  c #C52712",
"(  c #CD3412",
")  c #D93913",
"_  c #E03C0C",
"`  c #CE450B",
"'  c #DB4D04",
"]  c #D74608",
"[  c #D4440B",
"{  c #DC4409",
"}  c #DC4C0B",
"|  c #DD5406",
" . c #DB5B06",
".. c #D75209",
"X. c #DB530A",
"o. c #DD5C09",
"O. c #D44D16",
"+. c #E2490A",
"@. c #E25709",
"#. c #E25C0A",
"$. c #E74A12",
"%. c #E45312",
"&. c #DD6406",
"*. c #DD6C05",
"=. c #DD6309",
"-. c #DC6C0A",
";. c #DD7807",
":. c #DE7C05",
">. c #DE7309",
",. c #E3630C",
"<. c #E36A08",
"1. c #E26B0A",
"2. c #E27C06",
"3. c #E3740A",
"4. c #E47408",
"5. c #E37D0C",
"6. c #E56811",
"7. c #E57914",
"8. c #DD632F",
"9. c #DD8407",
"0. c #DE8A05",
"q. c #DF8819",
"w. c #E38307",
"e. c #E4830B",
"r. c #E68609",
"t. c #E48C0B",
"y. c #E4930C",
"u. c #E59A08",
"i. c #E49D0B",
"p. c #E48313",
"a. c #E48D12",
"s. c #E88916",
"d. c #E49313",
"f. c #E49B13",
"g. c #E5981A",
"h. c #E3A30B",
"j. c #E6A90A",
"k. c #E4AD0B",
"l. c #E5B307",
"z. c #E6B40C",
"x. c #E7B809",
"c. c #E5BB0C",
"v. c #E6A617",
"b. c #E4A31B",
"n. c #E7B818",
"m. c #E68725",
"M. c #E79927",
"N. c #E4883C",
"B. c #E89836",
"V. c #E7A828",
"C. c #E6B424",
"Z. c #E8B929",
"A. c #E8A836",
"S. c #EAB739",
"D. c #F4B439",
"F. c #E6C30A",
"G. c #E7C70A",
"H. c #E6CA0A",
"J. c #E9CB0B",
"K. c #E6D709",
"L. c #EAD40C",
"P. c #EADB0C",
"I. c #E7C616",
"U. c #E8D918",
"Y. c #E9E60C",
"T. c #EAE519",
"R. c #E6F615",
"E. c #E8C524",
"W. c #F2CE2B",
"Q. c #EAD729",
"!. c #E9C637",
"~. c #EAD736",
"^. c #EAE526",
"/. c #EEEC38",
"(. c #ECF234",
"). c #EBA946",
"_. c #EEAF4F",
"`. c #EBB748",
"'. c #EBB556",
"]. c #EDBA5B",
"[. c #EDB964",
"{. c #F1B866",
"}. c #EFBD75",
"|. c #F1BC75",
" X c #EAC847",
".X c #F3C648",
"XX c #EBD745",
"oX c #EDC35A",
"OX c #F5C75B",
"+X c #ECD755",
"@X c #F2D654",
"#X c #EDE546",
"$X c #F2EA4E",
"%X c #EDE757",
"&X c #EEF658",
"*X c #F0F455",
"=X c #EDC56B",
"-X c #F2C469",
";X c #F3D567",
":X c #EEC776",
">X c #F2C77A",
",X c #ECDA75",
"<X c #F1D976",
"1X c #F2E767",
"2X c #EFF764",
"3X c #F2E775",
"4X c #F0F471",
"5X c #F3FC7D",
"6X c #F2CA86",
"7X c #EED288",
"8X c #F4D78A",
"9X c #F5CA97",
"0X c #F4D598",
"qX c #EDE88C",
"wX c #F5E789",
"eX c #F3F887",
"rX c #F5E699",
"tX c #F6F999",
"yX c #F5D5A4",
"uX c #F5DAA4",
"iX c #F6D9AB",
"pX c #F7DCB3",
"aX c #F6E2AA",
"sX c #F7E8A8",
"dX c #F7F9A7",
"fX c #FAE3B4",
"gX c #F6EBB4",
"hX c #F8E6B9",
"jX c #F9ECBC",
"kX c #F8F8B7",
"lX c #F6FDBA",
"zX c #F9FCBC",
"xX c #F8E7C3",
"cX c #FAEBC2",
"vX c #F9EDCB",
"bX c #F7F6C6",
"nX c #FAF4C5",
"mX c #F9FCC3",
"MX c #FAF4CC",
"NX c #F7FBCC",
"BX c #F9FCCC",
"VX c #F9EFD1",
"CX c #F7F6D1",
"ZX c #FAF5D3",
"AX c #F7FAD4",
"SX c #F9FCD4",
"DX c #FAF5DB",
"FX c #F7FBDA",
"GX c #F9FDDC",
"HX c #FAF8E1",
"JX c #FAFDE3",
"KX c #FAFDEC",
"LX c #FBFCF5",
"PX c #FDFEF9",
/* pixels */
"+ * - X . . X . . . o ; = = O = , ; o . o . > X X >       X , $ . .   . X % + $ X o @ & * & @ o   & O + + o % = $ O - : % $ 4 % ",
"7 3 i i w 0 % 2 3 w r r f : t g h ; o X 5 2 p p p e e $ w k i ; X % q s e j e g q * * j w i h , 6 > 7 w d d d d ; r h d $ ; 9 < ",
"5 9 p v q e j k k Z G F m 9 N D V d b C N L K L x x C L T E C 5 2 j V Z Z N E K i 3 b E h x l 0 z d f M H F G e r C Z F 9 N v 2 ",
"> , e a i r l D E [ [ W a l N E ~ k ] ~  .^ R Q ) C X.} ..X.C 3 n M ! ~ ! L ~ [ U j s ) p s f f r D M [ [ W ` f C U [ W M S v > ",
"# y y v =.F b v 3.*.*.<.E v U 1.#.K *.3.e.9.6.J %.{ 2.>.3.3.U p T c N +...| o.4.K R B 6.,.[ o.=.m H X.3.>.4.4.K n ) -...F r 2 . ",
"= e H X.>.w.X.1.e.t.r.w.T J 2.r.t.Q ' #.t.i.e.4.3.5.s.y.5.5.K _ :.K Q 2.r.r.p.>.R P J t.5.9.a.9.T $.5.t.t.y.2.c Q ;.=.W a e 7 + ",
"O 7 D H 7.q.} g.v.V.M.| K p.y.u.g.y.{ ' A.c.P @.e.+.B.f.g.g.e.r.y. .Q g.y.u.d.{ s.e.y.k.h.v.V.V.1.R M.b.V.M.T R a.e.&.&.F f 3 : ",
"# # e D O.7.#.]._.u.[.7.$.j.j.n.].y.| 1.oXI.^ | A.).l.A.C.h.u.b.A.a.m.).h.b.r.).B.v.V.F.c.x.-X[.R z.].`.v.[.Q V.n.v.g.*.Y k 3 $ ",
"# y 6 d C H 8.oX>Xy.!.#.E.l.I.=XZ.9.-.-XaXK.a.e.V.'.F.l.z.l.S.n.].d.|.'.k.C.*.{.I.[.n.J.L.F.9X7X| I.6Xh.D.>.=.C.n.S.g.3...F e > ",
"# 9 M m G ..8.N.<Xw.&.9.E.;X@XpXc.u.:.xXU.T.9XV.:X`.I.H.F.H.`.9X9Xg.9XE.Z.I.A.>X.X6X8XwXK.XXaXaX=.W.pXy..Xe.I.I.n.S.f.:...U g : ",
"# 8 l E o.9.M.M.t.0X5.W.Q.aXpXxXu.aXu.dX%XeXxXfXOX:X0XL.H.H.0XuXuX0XyXF.8X XoX!.yX8XhXvX^.P.nXcX0.~.cXC.t.u.c.m.}.).0.2.' G f = ",
"# 8 D W &.e.V.'. Xu.y.~.U.cXCXrXj.nXc.#XSXtXDXvXrX<XwXP.K.H.aXgXhXhXiXQ.hXx.hXaXhXMXvXDX*XY.CXAXn.#XgXW.j. XP.g.+.R 5.2...U v , ",
"+ 8 m ( =.r.f.A.y.u.wX/.qXAXFX$X XdX%XdXKXzXKXDXvXwXjXY.U.qX#XxXgXxXhX<XgXaXkXZXDXHXJXJXtXY.JXJXeX/.GX@X!.sXE.n.V.w.c c g w q , ",
"@ > d D X.4.g.).[.7X7X/.AXJXHXU.GX3X^.HXKXGXKXGXSXsXMXT.AX,XqXAXgXbXwXVX,XMXsXHXKXLXKXKXkXR.KXJXJX(.KXKX,XxX+XK.x.y.-.L v g , + ",
"# t q F E ` ,.f.Z.K.~.^.kXHXKXU.JXGX&XJXHXPXJXFXFXzXFX/.FXFXFXFXbXNX#XDXmXDXSXLXLXLXLXLXmX(.KXlXKX(.BXSXAXvXyXQ.c.j.r.4.N U v # ",
"= # r A k L +.} 5.OXaXdXHXKXKXDXJXtXlXlXkXLXKXJXGXmXGXdXFXFXFXFXFXAX1XAXGXHXKXLXLXLXLXHXNXkXPXAXLX2XwXE.n.W.hX9X{.b.t.4. .N a q ",
"  & f w A 5.g.A.).A.!.qX,XqXlXGXKXR.JXKXLXLXKXJXgXFXFXAXFXFXFXFXFXFXgXDXHXHXLXLXLXLXLXLXNXJXPXKXLXdXJXBX;Xj.h.i.`.V.0.| ~ Z a 6 ",
"  t j e O.7.f.'.6X0XhXCXFXKXBXKXJX4XJXGXLXPXLXJXAXFXLXKXKXKXKXFXFXFXFXLXLXLXLXLXLXLXKXLXNXPXPXKXlX*X$X~.E.I.8Xu.<.,.P K L r = + ",
"@ 9 b l f ..i.z. XuXgXjXdXmXLXLXGXmXJXSXLXPXKXKXFXLXHXHXKXKXKXKXKXFXHXLXLXLXLXLXLXLXKXLXAXPXPXLXKXJX2X(.dX@XC.0.4.t. .' Q K % . ",
"# 7 l j #.e.d.k.F.H.Y.K.Y.(.2X5XeXdXlXmXSXKXLXLXLXLXLXLXKXKXKXFXFXFXLXLXLXLXLXLXLXLXKXPXFXPXLXLXKXKXJXJXAX#X3XsX>X'.d.;.' Z q o ",
"1 9 n L } =.f.z.H.K.rXCXGXKXLXLXLXLXKXKXLXLXKXLXLXLXVXLXLXHXLXVXKXKXLXLXLXLXLXLXLXLXHXLXFXLXLXLXKXlX&XzXSXkXT.Q.7X`.h.r.&.T w . ",
"@ & q 9 j c t.b.y.0XuXbXMXHXLXLXLXLXLXLXLXLXLXLXLXLXLXLXLXLXLXLXLXLXLXLXLXLXLXLXLXLXLXLXLXLXLXLXKXJXFXCXjXaX7XZ.`.3.t.4.^ R x 4 ",
"O @ 3 n J J 7.b.'.6XiXxXDXLXLXLXLXLXLXLXLXLXLXLXLXLXLXLXLXLXLXLXLXLXLXLXLXLXLXLXLXLXLXLXLXLXKXKXJXFXSXMXjXhX0XA.,.R s.! R V b - ",
"O o < e K R ~ d.n.=XiXuXVXKXLXKXLXLXLXLXLXLXLXLXLXLXLXLXLXLXLXLXLXLXLXLXLXLXLXLXLXLXLXLXKXKXJXFXFXJXGXNXsXZ.y.*.+.^ >.J V L x : ",
"# t j ! 1.5.Q N.{.S.!.hXVXDXDXJXHXKXLXLXLXLXLXLXLXLXLXLXLXLXLXHXLXLXLXLXLXLXLXLXLXLXLXLXKXKXKXJXGXSXmXMXcXpX8X>X'.M.t.%.+.L h 4 ",
"o 9 B ^ 1.4.=.o.g.`.yXsX%XjXZXZXVXHXKXLXLXLXLXLXLXLXLXLXLXLXLXLXLXLXLXLXLXLXLXLXLXLXLXKXKXLXKXKXGXGXsX1X#XU.I.z.e.M.p.2.V h e , ",
"@ 9 b U ^ 5.y.d.s.>Xk.c.fXjXMXdXdXNXFXFXKXKXLXLXLXLXLXLXLXLXLXLXLXLXLXLXLXLXLXLXLXLXLXKXbXdX5X5XeXtXdXjXhXyXG.G.l.A.t.2.=.! < - ",
"O q C n Q e.y.h.z.I.:X8XI.8XMXZXNXAXNXAXFXHXLXLXLXLXLXLXLXLXLXLXLXLXLXLXLXLXLXLXLXLXLXKXKXKXKXFXGXGXgX^.L.L.J.c.z.f.y.2.#.T ,   ",
". t B T Q 4.s.b.z.z.n.8XxXMXMXzXNXAXFXFXJXKXLXLXLXLXLXLXLXLXLXLXLXLXHXLXLXLXLXLXLXLXLXLXKXKXKXKXJXSXMX%XJ.J.F.l.C.B.a.e.,.~ h X ",
"    j Z _ &.,.s.'.}.0X<X^.Q./.wXNXAXFXJXKXLXLXLXLXLXLXLXLXLXLXLXLXLXLXLXLXLXLXLXLXLXLXKXKXKXJXFXGXGX%XsXsXXXE.c.k.f.:.4.X.E x : ",
". o h U N J P Q ;.C.yXpXxXjXmXSXmXtXdXJXLXKXLXLXLXLXLXLXLXLXLXLXLXLXLXLXLXLXLXLXLXLXLXKXLXKXKXJXGXSXSXgXXX~.I.n.v.t.J J s w 3 6 ",
"  O , i R | >.B.'.6X0X8X0XjXBXSXFXJXKXKXLXLXLXLXLXLXLXLXLXLXLXLXLXLXLXLXLXLXLXLXLXLXLXLXKXLXKXHXGXNXMXvXhXfX9X{.V.i.e.X.n 3 % . ",
"X O - q v ,.r.y.V.:XyXjXxXvXnXNXGXJXKXLXLXLXLXLXLXLXPXLXLXLXPXLXLXLXLXLXLXLXLXLXPXLXLXJXKXKXKXJXFXNXmXjX8X0X0X}.).M.o.~ Z w ; X ",
"@ , 2 q p J K d.A.I.I.U.wXnXCXDXGXJXLXPXLXLXPXLXPXPXLXLXPXPXLXLXLXLXLXLXLXLXLXLXLXLXPXJXGXBXdXzXBXAXNXjXhXiX6Xf.1.! P K Z N f . ",
"+ 4 M ~ #.*.0.f.k.I.!.XXaXwXtXGXGXJXKXKXKXLXLXPXLXPXLXPXLXPXLXPXLXLXLXLXLXLXLXLXLXPXPXKXKXKXGXSXBXwXQ.^.Q.<X9X}._.7.s.-.! V a X ",
"X , v { <.e.a.A.n.c.H.H.J.3XSXJXKXKXKXKXKXKXPXLXPXLXPXLXPXLXPXLXLXLXLXLXLXLXLXLXPXLXPXPXPXKXGXSXBXMXMXvXhX@Xc.x.v.M.p.*.~ U m > ",
".   k ) &.e.y.u.j.c.K.K.K./.nXGXGXJXKXKXKXLXPXPXLXPXLXPXPXLXPXPXLXLXLXLXLXLXLXLXLXPXLXKXKXGXSXSXBXMXMX;Xn.fX!.c.z.h.t.5.U B x 4 ",
"o < 9 [ 3.e.d.V.c.F.Q.pXhXjXdXtXeXeXeXdXBXKXPXLXPXLXPXLXLXPXLXLXLXLXLXLXLXLXLXLXPXLXPXLXKXGXSXmXdXkXnXjXrXc.D.>X-.d.t.3.R R b < ",
"# < w G K 3.p.a.9.c.I.K.#X1XBXGXFXKXKXKXKXLXLXPXPXLXLXPXPXLXPXLXLXLXLXLXLXLXLXLXLXPXPXLXPXKXJXJXGXDXZXjX1XuX9X`.s.} 7.7.,.! b , ",
"& 7 n ! %.o.-.A.'.>XuXfXvXZXzXGXJXKXKXKXLXKXPXLXPXPXPXLXLXPXPXLXLXLXLXLXLXLXLXLXPXLXPXPXLXPXPXLXKXKXHXHXVXpXI.`.A.B.! 5.o.T g < ",
"  6 V B c K s.+.,.2.h.C.sXSXFXJXJXJXJXKXKXLXPXPXPXPXPXPXPXPXPXPXLXLXLXLXPXPXPXPXPXPXPXLXPXLXPXPXPXPXPXKXDXpX7X`.n.6.) ) L w >   ",
"& 4 A K _ ~ $.Q 1.=XuXhXnXMXSXGXJXKXKXLXKXPXPXPXPXPXPXPXPXPXPXPXLXLXLXLXPXPXPXPXPXPXPXPXPXPXPXPXPXPXPXLXHXxX8X|.).b.R J x B 9 @ ",
"8 6 L R +.5.<.s.C.oX0XsXjXCXFXGXKXLXPXPXLXPXPXPXPXPXPXPXPXPXPXPXPXLXPXPXLXPXLXLXPXPXPXKXKXPXKXLXLXLXLXKXDXhXiX-Xv.h.T B h 0 > @ ",
"o X p ! 2.t.v.`.<XY./.NXNXlX&XmXJXLXPXPXKXPXPXPXPXPXPXPXLXPXPXPXLXLXLXLXKXKXJXLXLXLXPXPXPXPXPXPXPXPXLXKXGXMX/.L.J.z.a. .) Z j < ",
"o o a T ' :.g.[.8XgXU.1XGXGXJXJXSXKXPXPXGXPXPXPXPXPXPXPXPXPXLXLXPXLXLXKXKXKXJXLXLXLXPXKXlXtX5X2X*X*X(.R.Y.Y.K.I.F.k.s.5.Y A n < ",
"o + q T ' ^ 4.2.0.A.,XgX4X*XmXKXLXPXPXLXGXKXPXPXPXPXPXPXPXLXLXLXPXLXKXKXKXKXKXKXLXLXPXPXPXPXPXPXPXLXkX5X&XsXgX8Xn.j.i.N f A b < ",
"O = - f ^ K R &.:.i.8X XI.@X4XeXJXKXPXPXGXKXPXPXPXPXPXPXLXKXKXLXLXLXJXKXKXJXKXKXJXLXPXPXPXPXPXPXPXPXKXJXFXbXfX0X:X'.g.7.( 0 b 1 ",
"O q d T Q +.t.A.S.i.j.1X3XmXKXtXPXKXKXBXGXKXPXPXPXPXPXPXLXJXzXLXLXKXJXJXJXAXJXJXAXLXPXPXPXPXPXmXSXGXtX%XsXgXZ.:X].A.a.7.z 9 7 @ ",
"o w v E &.4.u.V.=XyXfXl.!.~.kX&XLXBXLXBXGXGXPXPXPXPXPXLXKXGXwXJXJXJXGXHXGXdXGXSXJXKXLXKXzXdXkXtXBXJXKXJXDXhX0X`.>.{ %.C f l 5 > ",
"o : j T N :.t.j.I..XhXMXGXBXKX(.LXkXLXeXJXLXPXPXPXPXLXKXAXDXrXSXGXSXDXDXSX(.GXkXGXGXKXPXJXKX&XGXKXsXlX2X^.Y.L.I.Z.d.6.[ / k 5 > ",
"O $ 6 p x K 4.h.x.I.rXjX+XJXKX(.JXJXKX4XGXPXPXPXPXPXGXGXsXVXjXvXgXMX3X1XMXT.BXrXSXGXGXSXLXGX^.wXSX+XnX1XwX.XwX9X].A.a.3.` A y & ",
"O 7 3 w n c J r.S.E.~.gXZ.XXAX/.wXJXJX*XBXPXPXPXKXHXZXfXkX,XxXjXsXxX3XwXT.Y.jX<XvXMXJXmXKXdX%XsX!.#XdX8X!.3XA.y.y.).g.5.o./ z > ",
"O 4 M E  .2.#.Q [ !.P.@Xi.W.gX#Xn.AXAX/.tXLXLXKXDXZXcXI.hX~.aXgXpXfXfXH.K.P.3XXXrXjXDXkXSX*XI.zXh.qXCXgXI.v.e.v.S.).g.e...Y l > ",
"# , g T | w.y.).OXM.I.u.9.Z.hX/.0.jXnX^.%XDXDXcXxX@X-X!.8XG.yXyXuXuXuXF.H.K.uXS.].pXvXtX3XdXu.aXu.vXfXaXQ.Q.r.m._.m.y.e...Y z > ",
"X 5 D W  .2.f.A.!.n.H.e..Xt.iX~.1.fXaXXXU.rXuXyX-X=XD.E.Z.E.9Xf.9X9X=XJ.F.H.E.v.=XV.uX/.Q.cX9.u.z.pX+X,XE.0.9.f.N.) / p.F H M 8 ",
". , f Y <.r.V.S.I.Z. .*.D.h.7Xn.@.7X9XI.L.L.S.=Xc.|.3.C.k.].{.g.{.n.`.x.l.x.x.A.Z.e.q.L.uX<X<.0.Z.:XI.c.Z.=.@Xi.[.A./ n m d , t ",
"O : q v ^ 3.V.n.v.v.~ ].f.`.[.j.R [.-Xc.c.F.V.v.M.).5.b.i.).3.s.B.b.i.h.C.A.l.M.D.+.7.I.[.&.| d.'.n.k.j.+.7.'.u.`.).3.^ Z m q # ",
"O , q D G 6.-.d.t.! R V.A.b.M.R 6.A.V.h.h.z.y.s.s.} y.i.s.g.Q ,.a.r.y.g.g.g.B.#.e.+.P n.A.' [ y.f.u.d.t.K ~ A.V.b.f.#.e.O.U z > ",
"O + a q j ` 4.:.+.V 5.y.t.t.r.$.U 0.d.e.e.y.K P R @.r.t.r.r.T K 2.{ Q 2.2.t.s.e.7.5.e.h.y.@.+.Q t.t.2.c T w.w.t.9.3.,.2.=.Y m q ",
"X o q D T ..1.) B V 4.4.>.4.` W b 1.o.O.6.6.V ) K 3.X.=. .X.n V E p E 4.5.>.2.#.%.J 6.e.r.2.*.K ,.1.L v ~ *.4.4.6.D m G ` M 6 5 ",
"X 5 Z S F W ' U F k ` [ ` [ D A e z l h p ) j b T [ ~ K R ^ ! n B 6 H X.#.} o.B ) ! R +. .~ ' g ~ W N l a W ] ] E M g d k j < + ",
"o q v Z 9 D F M w q G C H M f S z e l A s / b 3 i U T C B C Z h 3 5 Z U T Z M j x I P B Z M j a Z M n 7 D F F G k f l i r v q ; ",
"= 6 7 % $ e g d : d f d d r 6 : 7 4 j h e n : > 9 g f j a s w ; + ; p l e * e i h p p 3 3 $ o : g j 5 , f d d e 6 2 ; 0 i g i - ",
"u : 2 $ $ > : o O = = + + O O & @   @ & & & o o + & + $ X .   .   & > o     @ & @ + > . o . o % : # o $ $ = . . . . X . . X ; $ "
};
