/* XPM */
static char *port5_c1693383949[] = {
/* columns rows colors chars-per-pixel */
"64 64 254 2 ",
"   c #050D04",
".  c #080C05",
"X  c #061305",
"o  c #0A1505",
"O  c #071905",
"+  c #0B1A06",
"@  c #071308",
"#  c #0B140A",
"$  c #0C1B0A",
"%  c #181707",
"&  c #121A05",
"*  c #131308",
"=  c #131D0B",
"-  c #291B07",
";  c #241D08",
":  c #2C1C09",
">  c #371A08",
",  c #3D1D13",
"<  c #0D220A",
"1  c #17230D",
"2  c #132510",
"3  c #29220A",
"4  c #372008",
"5  c #471B09",
"6  c #531C09",
"7  c #591908",
"8  c #66190A",
"9  c #6D1D0B",
"0  c #761808",
"q  c #741C0B",
"w  c #7C1C0A",
"e  c #6D1F10",
"r  c #48210A",
"t  c #58220B",
"y  c #65220C",
"u  c #6A210A",
"i  c #78230C",
"p  c #682513",
"a  c #762512",
"s  c #881807",
"d  c #841C0B",
"f  c #8C1C0B",
"g  c #94170A",
"h  c #981508",
"j  c #941C0A",
"k  c #9C1C0A",
"l  c #A31C0B",
"z  c #AA1808",
"x  c #AB1C0B",
"c  c #B81A0B",
"v  c #AE1E10",
"b  c #84220D",
"n  c #8B230C",
"m  c #92230C",
"M  c #9B240D",
"N  c #862411",
"B  c #9A2611",
"V  c #A4240C",
"C  c #AA250B",
"Z  c #AA2809",
"A  c #B62807",
"S  c #B4240A",
"D  c #BB250B",
"F  c #B42C0C",
"G  c #BB2C0C",
"H  c #B9340A",
"J  c #AF2E10",
"K  c #B42911",
"L  c #C61A07",
"P  c #D51907",
"I  c #C92607",
"U  c #C3230B",
"Y  c #C42C0B",
"T  c #CC2D0B",
"R  c #D52707",
"E  c #CA3607",
"W  c #C4330B",
"Q  c #CB350A",
"!  c #C53A0B",
"~  c #CB3C0B",
"^  c #D63709",
"/  c #CA2F10",
"(  c #C83711",
")  c #E23C09",
"_  c #CC4307",
"`  c #CD430B",
"'  c #D84707",
"]  c #D4440C",
"[  c #D54B0B",
"{  c #DB4D0A",
"}  c #C75009",
"|  c #DA5406",
" . c #D75807",
".. c #D4520A",
"X. c #DB530A",
"o. c #DD5B0B",
"O. c #D54814",
"+. c #DB5311",
"@. c #E1490B",
"#. c #E2580A",
"$. c #E15C0B",
"%. c #E25911",
"&. c #DB6506",
"*. c #DD6A06",
"=. c #DD6409",
"-. c #DE6B0A",
";. c #DE750A",
":. c #DE7908",
">. c #DB6B10",
",. c #E36806",
"<. c #E2640B",
"1. c #E26B0B",
"2. c #E27306",
"3. c #E27B06",
"4. c #E3740B",
"5. c #E9750A",
"6. c #E37B0A",
"7. c #E86C15",
"8. c #E67613",
"9. c #DE8807",
"0. c #DF9608",
"q. c #DF9115",
"w. c #E3840B",
"e. c #E38B0B",
"r. c #E48808",
"t. c #E4930B",
"y. c #E69509",
"u. c #E49C0C",
"i. c #E48413",
"p. c #E68B17",
"a. c #E49412",
"s. c #E59C12",
"d. c #E89518",
"f. c #E59B1C",
"g. c #DFA80E",
"h. c #E4A708",
"j. c #E4A40B",
"k. c #E4AC0B",
"l. c #E5B60A",
"z. c #E5BC0B",
"x. c #E4A413",
"c. c #E7A817",
"v. c #E4A31B",
"b. c #E6B816",
"n. c #DE9F25",
"m. c #E68D25",
"M. c #E79926",
"N. c #E89A37",
"B. c #E7A828",
"V. c #E8B729",
"C. c #E7A735",
"Z. c #EAAC34",
"A. c #E9B737",
"S. c #F2B036",
"D. c #E5C40B",
"F. c #E7C60B",
"G. c #E8D60C",
"H. c #E7C816",
"J. c #E8D819",
"K. c #E7E413",
"L. c #E9C825",
"P. c #E9D528",
"I. c #E9C835",
"U. c #ECD538",
"Y. c #F1D135",
"T. c #EAE627",
"R. c #EBE636",
"E. c #F0E936",
"W. c #EBA945",
"Q. c #EBB648",
"!. c #EFAF51",
"~. c #ECB657",
"^. c #EDBB54",
"/. c #F1B857",
"(. c #EDB96C",
"). c #EEBB76",
"_. c #F0BC70",
"`. c #ECC847",
"'. c #EDDA44",
"]. c #EBC555",
"[. c #ECDA56",
"{. c #F2D258",
"}. c #ECE748",
"|. c #EFEB54",
" X c #EDC668",
".X c #F2C567",
"XX c #EEDC64",
"oX c #F1D966",
"OX c #EDC579",
"+X c #F1C477",
"@X c #F1CC7B",
"#X c #F1D878",
"$X c #EEE668",
"%X c #F2E769",
"&X c #EDF265",
"*X c #F1F66D",
"=X c #F3E77A",
"-X c #EFF275",
";X c #F3C985",
":X c #EED088",
">X c #F5D589",
",X c #F3CC98",
"<X c #F4D494",
"1X c #F4D39C",
"2X c #F6DA99",
"3X c #EEE48A",
"4X c #F4E889",
"5X c #F3F787",
"6X c #F4E798",
"7X c #F5F899",
"8X c #F7CCA6",
"9X c #F5D3A3",
"0X c #F6D8A8",
"qX c #F8CBB2",
"wX c #F5DBB3",
"eX c #F7DCBA",
"rX c #F8E7AB",
"tX c #F5FDA4",
"yX c #F7F3A9",
"uX c #F6FBAB",
"iX c #F8E9B6",
"pX c #F6E4BB",
"aX c #FAE4BB",
"sX c #F6EBBC",
"dX c #F8F7B6",
"fX c #F6FEBE",
"gX c #FAFBBC",
"hX c #F8DDC3",
"jX c #F6E5C4",
"kX c #F8E3C7",
"lX c #F6EAC3",
"zX c #F9EBC3",
"xX c #F6ECCA",
"cX c #F9ECCB",
"vX c #FAF3C5",
"bX c #F6FDC3",
"nX c #FAFBC4",
"mX c #F7F2C9",
"MX c #F9F3CB",
"NX c #F7FCCC",
"BX c #F9FCCC",
"VX c #F8EDD2",
"CX c #F7F5D4",
"ZX c #FAF4D3",
"AX c #F7FBD3",
"SX c #F9FCD4",
"DX c #F9F5DB",
"FX c #F7FCDB",
"GX c #F9FDDC",
"HX c #F8F9E1",
"JX c #F9FDE4",
"KX c #FAFDEC",
"LX c #FBFCF5",
"PX c #FDFEF9",
/* pixels */
"# . . . X . . X X o O O $ o X X o + o o o $ # # . X X $ $ $ . o X O = < < $ < + # X % # . . . X . . X o O o O $ o o X O o - 7 & ",
"; % 8 8 i 5 $ X r e i a t X O r 7 r & O X w y , ; p j b M b : $ 3 : : u a 7 t 9 7 o > 5 : 7 i N = $ - 6 y i 9 3 X $ 6 y 1 6 > @ ",
"% > V D H 7 - n M M d i o O n Z F C a 5 7 S d l k M W ! W G b i f a 5 C D ( z x l d l x x Y W G 3 : M V V n > O < m V D K B 5   ",
"2 r G ] W q Z G ~ 0 d 8 0 E Y ~ { E w h g 0 6 j E l X.! _ W ~ d W ( n ! O.^ L k z L T ` Q ] O.K N F ~ Z s n r Z E E ] ' ! G 8 . ",
"1 d Q {  .+. .o.' V h h ' | ,.| *.L c L L  .G l A #.1.<.#._ { ,.4._ D 4.<.<.^ L T $.1.<.<.#.X.l $.o.X.F k l E { o.<.1.,.] Y m $ ",
"2 9 S X...w.e.6.l z U 1.:.*.3.3.3.#.L #...r.e.w.I ` r.r.,.5.4.r.r.E ' w.w.e.E ,.e.6.9.2.2.&.2.W w.w.` z c ^ ,.2.3.6.w.J l F q @ ",
"$ 6 C ' -.i.d.a.I R a.y.t.y.w.p.p.R @.p.L x.v.v.s.^ s.x.:.f.j.u.s.{ d.f.t.6.^ d.u.u.u.6.5.m.u.f.d.x.e.R T m.y.y.e.a.e.<.K - O @ ",
"@ X t ~ <.w.d.v.^ 8.p.B.0.u.t.N.W.^ @.P y.Q.^././.c.#.Z.u.l.l.Z.Q.*.C.A.,.9.N.V.l.b.Z.u.o.S...W.C.Z.N.I 4.C.x.j.t.u.w.=.! y + @ ",
"$ & 4 ~ o.3.f.V. .(.s.u.F.j.h.(._.M.) @.l.;X@XOX;.].q.v.b.D. XOXa.i.+X].<.!._.L.l. XI.b.2.:.+X+X_._.Q.1.(.w.c.b.s.o.Z X.` V 5 X ",
"1 n > i =.6.x.c.k.f.f.A.L.z.l.,X,Xe.' ^ F.0X2X9X*.2X2X<XD.<X,X1Xy.>X1XF.;X<X1XU.L.0X`.`.9.C.,X8X1X<XQ.S.e.s.I.b.*.E x l j C y X ",
"1 b f w l ;.m.C.9.V.j.v.0XF.b.wXaXrX:.s.>XiX4XaXC.sXhXrX3XwXwX3XY.wXwXF.9XeXiXY.XXlX'.6XV.<XeXeXeX0X{.H.OXk.1X~.3.&.W l d f 9 $ ",
"1 d j f l Y ..i.q.i.b.:XsXH.2XjXkXb.P.}.4XSX4XVXvXNXmXwXxXxXxXF.rXsXsXJ.rXjXzXR.iXvX=XrXoXlXlXjXkXkXoXJ.wXb.:X0.S.m.;.k q n a O ",
"$ d Z j V D I ] d./.U.%XsX'.VXxXxX'.[.R.7XDXCXDX'.GX=X6XmXCXmXI.jXzXsX[.MXvXvXT.mX4X5XiXMXZXcXVXcXVXL.%XxXoX{.b.j.u.2.o.u > q $ ",
"# t V ` ' -.>.B.B.H.A.I.[.=XDXZXCX7XyXdXMXJXBXbXl.AX}.5XFXFXAX$XSXZX$X6XBXSXnX=XNXAX7XNXGXCXDXDXDXDX'.ZXsXoXL.b.h.y.3.X.! & O O ",
"# $ i ( -.e.f.Q.+X,XeXjXDXcXvX7XiX7X5XNXNXKXJX$XF.JX7X5XFXFXFXbXGXGX}.BXSXSX-XGXAXbX-XJXKXJXJXKXJXJXGXDX3XL.z.k.y.r.4.<.~ p   X ",
"# $ > Z ,.9.B.Q.+X1XeXcXVXFXKXJXnXSXuXAXAXKXKXP.K.GXGXtXHXHXHXFXGXSX7XSXSXGXuXKXSXNXgXKXJXKXKXLXKX=XJXDXVXeXqXQ.p.a.6.=.] C : X ",
"$ f G C C t.B.!.+XqXjXcXVXJXJXKXFXSXSXGXKXLXKX}.T.HXHXfXHXHXHXHXHXFXAXFXCXCXHXLXJXuXbXKXKXKXLXLXKX&XJXvXlXaX9X(.W.m.6.;.] C 7 $ ",
"1 j ( +.$.i.X.!.).1XaXjXZXDXJXKXKXJXGXKXPXLXLXuX&XFXKXFXHXKXKXHXHXFXFXFXKXHXLXLXJXfXNXKXLXKXLXPXLX*XdX4XpX{.,X(.!.d.w.-.{ D 9 O ",
"# d Q ` o.a.C. .m.,XaXcXDXHXKXKXKXKXKXKXLXLXKXJXtXbXLXLXLXLXHXKXJXbXHXHXLXLXLXLXKXNXAXKXLXLXPXPXLXuXrX$Xb.k.w.@.^ ^ P L A n o o ",
"# 8 S ] <.w.>.8.3.^.rXaXDXDXJXJXKXLXKXLXLXLXLXLXHXyXLXHXLXHXKXHXJXFXHXLXLXLXLXLXKXHXJXLXKXLXPXPXKXBX|.4XI.3.) ^ R m.R L j 6 $ O ",
"= w Y ^ $.:.t.V.`.:X>X#X6XAXKXKXKXKXKXLXLXLXKXLXLXjXLXLXHXLXLXLXJXKXLXLXLXLXLXLXLXLXLXLXLXPXPXPXKXSXnXyX6XJ.F.u.^ P w.c l 7 X X ",
"= g T X.1.w.u.c.L.J.J.T.=XdXfXfXbXFXKXLXLXLXLXLXLXVXLXLXLXLXHXVXLXLXLXLXLXLXLXLXLXLXHXLXPXPXPXPXKXGXAXMX6XI.2XD.k.a.L L h z * X ",
"X * g L 5.e.k.V.:X0XmXvXfXNXBXnX5XAXAXKXLXLXLXLXLXLXLXLXLXLXLXLXLXLXLXLXLXLXLXLXLXLXLXLXLXLXKXLXLXKXnXnXZX6X].;X/.B.a.=.8 l 8 # ",
". s z I X.t.j.l.H.:XpXzXNXAXSXnXbXAXbXFXKXLXLXLXLXLXLXLXLXLXLXLXLXLXLXLXLXLXLXLXLXLXLXJXbXbXbXAXJXKXGXFXMXsXwXOX.XB.9.! e B : & ",
"; d c k T 8.v.l.H.G.G.K.$XdXSXBXFXJXGXJXKXLXLXLXLXLXLXLXLXLXLXLXLXLXLXLXLXLXLXLXLXLXLXHXfXuX7X5XR.J.F.L.l.x.e.+XQ.B.;.v H V ; # ",
"= 7 c / T L 8.!.+X9XaXvXmX7X&XtXAXKXKXLXLXLXLXLXLXLXLXLXLXLXLXLXLXLXLXLXLXLXLXLXLXLXLXLXLXLXLX7XT.P.U.%XZXzXp..XM.w.8.` ( B : # ",
"% a U ^ 2.y.,.p.+X0XaXzXNXMXSXSXbXfXFXKXLXLXLXLXLXLXLXLXLXLXHXLXLXLXLXLXLXLXLXLXLXLXLXLXLXLXKXbX*X&XsXmXcXiX0X`.d.X.e.| O.( N @ ",
": d / O.1.e.y.| e.8XaXzXvXNXSXSXAXFXJXLXLXLXLXLXLXLXLXLXLXLXLXLXLXLXLXLXLXLXLXLXLXLXLXLXKXKXKXKXKXGXAXCXrX>X>X.Xp.c.t.4...( B 2 ",
"3 q G H w.p.x.V.b.H.L.U.$XmXSXSXAXFXKXLXLXLXLXLXLXLXLXLXLXLXLXLXLXLXLXLXLXLXLXLXLXLXLXLXLXKXJXKXGXGXSXZXzXP.'.A.B.9.6.#.[ D m 1 ",
"3 % 8 j Q w.M.!.+X<XrX6X}.R.7XnXFXFXGXJXHXLXLXLXLXLXLXLXLXLXLXLXLXLXLXLXLXLXLXLXLXLXLXKXKXKXKXJXJXGXGXZXzXaX;XL.A.c.*...` W k * ",
"; - d ( I { | w.@X:XkXsXmXNXFXSXBXdXNXGXFXLXLXLXLXLXLXLXLXLXLXLXLXLXLXLXLXHXLXLXLXLXLXLXJXKXKXJXGXFXAXZXzXaX2X`.z.x.5.[ ! V a $ ",
"+ t j ] 3.w.B.w.w.j.rXrXmXAXFXSXFXJXGXJXLXLXLXKXLXLXLXLXLXLXLXLXLXLXLXLXLXLXLXLXLXLXLXLXKXKXJXJXAXyX#XXXrXwX1X.XA.j.r.1.~ t O X ",
"X + 9 H 5.w.v.Q.@X1X`.H.#XdXGXGXJXJXJXLXLXLXLXLXLXLXLXLXLXLXPXLXLXLXLXLXLXLXLXLXLXLXLXLXLXKXJXGXGXGXSXzXrXu.^..XQ.v.a.5.S n 3 o ",
"X % s ' 8.w.c.b.+X1XwXsXnXSXGXJXJXKXJXLXLXLXPXPXPXLXPXLXPXPXLXLXLXLXLXLXLXLXLXLXPXPXLXLXLXJXJXGXGXGXBXvXsXaX>Xw.2.M.<.4.` m : O ",
"- k W ! | e.B.z.`.2XpXcXZXSXGXGXJXKXKXKXKXLXPXLXLXPXLXPXLXPXLXPXLXLXLXLXLXLXLXLXPXLXPXLXLXKXGXtX*X5XMXvXzXpX<X(.S.6.@.v l 6 : 1 ",
"> V G [ [ 5.y.I.^.L.cXcXCXDXJXJXJXKXKXKXLXLXPXLXPXLXPXLXPXLXPXLXLXLXLXLXLXLXLXLXLXPXLXPXLXLXKXKXGXgX4XR.J.$X X_.!.f.e.-.l i y < ",
": M ( { 1.t.v.Q.b.0X=X$X=X*X*XtXBXKXKXLXLXLXLXPXLXPXPXPXPXPXLXPXLXLXLXLXLXLXLXLXPXLXPXLXKXKXLXLXLXKXGXrXU.b.b.l.j.j.e.5.+.D e = ",
"- C ] { 6.t.p.$..X<XaXsXT.|.SXJXKXKXLXLXLXLXLXLXPXLXPXPXLXPXPXLXLXLXLXLXLXLXLXLXLXPXLXPXLXGXJXLXLXLXKXZXcXaX<Xv.y.t.t.-.^ / y % ",
"# d x D 7.8.T A. X<XvXNXJXKXKXGXGXgX7XtXFXLXLXPXPXLXPXLXLXLXPXLXLXLXLXLXLXLXLXLXPXLXPXLXLXGXBXtXdXJXJXMXsXaX9XZ.e.^ 5.` ^ c t $ ",
"@ 5 F ~ X.[ C.n.&.1.rXiXl.z.G.K.}.-XSXLXLXPXPXLXPXPXPXPXPXPXPXPXLXLXLXLXLXLXLXLXPXLXPXPXLXLXSXSXSXuX}.|.>XrX<X.X/.M.P c v v 9 & ",
"@ % l k c w.B.].;X0XaXsX7XL.F.E.SXLXLXLXLXPXPXPXPXPXPXPXPXPXPXPXLXLXLXLXPXPXPXPXPXPXPXPXPXKXSXBXAXBXbXvX|.G.G.H.l.j.e.I x x w & ",
"o 6 f 8 7.u.B._.>X0XsX4XGXGXKXLXLXLXLXLXKXPXPXPXPXPXPXPXPXPXPXPXLXLXPXPXPXPXPXPXPXPXPXPXLXGXgXSXSXNXSXBXvXpX0XH.b.y.e.o.I f > X ",
"% s S 8 6.a.Z. X<XwXsXSXGXHXLXLXLXPXPXPXPXPXPXPXPXPXPXPXPXPXPXPXPXPXPXPXLXPXPXPXPXLXPXPXPXKXfXfX&X7XBXbXvXrX2X@X].x.e.5.T w . X ",
"X X 0 l L R 8.k.l.#XrX[.ZXBXSXKXPXPXLXPXPXPXPXPXPXPXPXPXPXPXPXPXPXLXLXLXLXLXGXKXLXLXKXPXPXLXKXnX7X-X|.E.J.G.F.l.s.w.6.<.+.U 7 = ",
"X o 7 v c w.P R @.#.L.T.5XAXGXKXLXPXPXPXPXPXPXLXPXPXLXPXPXPXLXPXPXPXLXLXLXLXLXBXJXLXLXLXLXPXLXKXKXJXFXMXU.h.e.6.!.y.1.>.] l > # ",
"O & d B U R p.^ R | y.Y.4X4X5XGXLXPXPXPXPXPXLXPXPXLXLXLXPXLXLXLXPXLXKXKXKXLXLX7XBXKXLXPXLXLXLXKXKXJXGXZXzXrX@XW.p.d.5.o.O.D 8 # ",
"O 9 I ` I P R ' p.C.I.'.oXgXyXBXGXKXLXLXPXLXLXPXLXKXLXPXPXLXLXLXLXLXKXKXJXKXLX*X5XLXLXPXLXLXLXLXKXJXHXZXzXeX9X+X{ c.8.o.O.Y a # ",
"$ 0 / X.4.e.N.!.).9XeXcXiXcXdXgXGXKXKXKXLXLXPXPXKXSXLXPXLXGXKXLXLXHXHXLXKXGXBX|.*XLXPXPXPXPXKXGXLXKXDXVXcXeX8XOXW...E ` Y G N = ",
"O y z _ 2.e.N.W.).8XwXxXVXiXAXHXKXKXKXKXKXLXPXLXJXMXPXPXKX7XJXJXJXJXJXJXJXgX|.R.4XLXPXLXLXGXGXSXGXJXDXCXkXhX8X.X~.f.e...n n p $ ",
"X $ C [ &.9.r.j.h.l.].hXVXDXHXJXKXKXKXKXLXKXPXJXGXJXPXLXJX*XGXGXgXGXJXJXGX|.|.Y.uXLXLXdXtXtXdXrXiXJXCXcXxXwX1X).Q.f.e.#.J 3 $ $ ",
"O X o ~ o.3.0.h.g.z.D.P.[.R.NXHXHXHXGXDXSXJXKXGXyXLXPXKXzXgXSXGXoXGXGXJXJX=X=XF.GXJXKXKXgXyX4XAXFXmX'.lXvXaX,X(.C.u.w.1.( m o # ",
"$ n 1 H  .2.u.h.D.L.0XyX3XXXCXCXDXCXDXDXtXSXBXSX*XKXLXJX=XZXNXZXI.CXSXZXBXyX7X'.SXBXGXsX|.=X=XcXZXyXP.rXXXL.g.R R I z O.( J t = ",
"< b > w D 3.t.g.g.B.@XjX$XvXcXcXVXkXcXoX=XMXSXzX=XZXZX6XJ.zXsXaXL.vXcXMXlXxXnX[.ZXZXvXsX=XU.I.cXkX'.G.mX#X:Xe.(.m.R x k i M e = ",
"& s b w l 1.p.u.a.B.k.<XL.jXeXhXhXaXaXl.R.dXsXU.#XkXiXV.G.zXsXS.rXiXsX0X6XiXZXx.zX2XXX'.w.b.0XjXhXH.F.wXj.h.a.0.w.r._ x d n a 2 ",
"< i j b M U ^ C.(.B.B.a.b.9X9X0X0X0X].u.F.I.wXH.>X0X9XA.H.0X<Xc.1X2X<XF.>X0XQ.:.rXI.0XF.@.r.v.8XqXz.L.`.u.0.V.j.B.t.5.l q q q 2 ",
"+ d G S G G ~ [ 9.b.e.Q.^ ).).;X;X;X/.3.l.{.:XF.].@X;Xy..X;XW.].@X:XI.l.OX+X{.f.,X+X`.F.#.' ).;X(.j.z.z.B.:.i.r.B.u.4. .B = a 2 ",
"X o f ` -.9.x.c.b.g.u.!.L W.~.~.~.~.C.^.k..XL.l.^.a.t.4.~.^.;./.^.z.Q.l.i.A.Q. X(. XV.e.^ @.C.(.~.h.h.k.s.r.4.-.Z.f.6.X.~ O o $ ",
"X X 6 C 7.d.a.t.u.u.d. .T M.B.B.Z.6.C.t.r.Z.B.k.C.@.e.h.B.a.Z.Z.x.l.c.y.B.' >.W.Z.A.c.R R #.1.N.q.r.0.x.N.<.T Y f.M.i.<.~ n @ = ",
"  5 8 m ;.e.e.r.6.e.;.U W 9.t.e.} w.-.:.r.x.r.y.P E s.y.a.:.^ y.t.e.e.4.s.y.[ i.t.s.-.9.*.R 1.i.3.:.r.3.r.o.T | 0.a.t.-.] C r 2 ",
"& n ! S  .-.1.$.=.~ x k K -.,.-.c 4.E 4.,.w.1.' c | 1.2.3.U 4.:.4.<.X...:.-.-.v [ 1.Q L L c 1.4.1.=.#.=.h C V A *.,.~ o...D 8 2 ",
"X g D ' | { ' ] ~ 0 s f F ] H M D [ ] @.%.' L R z ^ ' #.A k  .' { Q ] X...[ E H s 0 A z z x | | { ' ] Z 0 s m _ ] _ k _ ..W 7 2 ",
"* 0 M T E Y V 6 > 5 w n W k w 7 ~ ~ Y D T h h c L L I ^ F 8 l j 8 C ! W ` O.S S 0 0 c 0 0 g ^ Y D l u > b s Z A m 7 g ~ E V > 1 ",
"o % - s d 0 - X 6 s f d n % # - k l g 8 h * 8 g g w s j u : > : & 9 l x k C > 8 . h 7 o o - s w 0 X # f s s s 9 X + g k g w 5 > ",
"o * & = & O   X + 3 : ; + X   X : . X # * . . % > & : > ; > & + X * 5 t r : + $ * * * + + o ; $ X X o - 3 3 & X o X & :   . # # "
};
