/* XPM */
static char *port21693303856[] = {
/* columns rows colors chars-per-pixel */
"64 64 252 2 ",
"   c #020105",
".  c #04030A",
"X  c #040213",
"o  c #05011B",
"O  c #08041D",
"+  c #060223",
"@  c #070827",
"#  c #06022B",
"$  c #08032C",
"%  c #050B2C",
"&  c #06122D",
"*  c #050233",
"=  c #080233",
"-  c #050C34",
";  c #06023B",
":  c #08033C",
">  c #040C3A",
",  c #090C38",
"<  c #051134",
"1  c #06133C",
"2  c #08133B",
"3  c #081739",
"4  c #060343",
"5  c #090143",
"6  c #0A024B",
"7  c #060A49",
"8  c #091543",
"9  c #081847",
"0  c #061A4B",
"q  c #090254",
"w  c #080A57",
"e  c #0A035B",
"r  c #081A56",
"t  c #062447",
"y  c #09234C",
"u  c #0A2352",
"i  c #082755",
"p  c #0A245C",
"a  c #0B2B5B",
"s  c #142B57",
"d  c #0B0868",
"f  c #0B1867",
"g  c #111C67",
"h  c #0B0677",
"j  c #0A147A",
"k  c #092466",
"l  c #0B2B63",
"z  c #0A2C6B",
"x  c #0C336B",
"c  c #0B2874",
"v  c #142D74",
"b  c #0C3175",
"n  c #0D337C",
"m  c #0C3C79",
"M  c #12367C",
"N  c #0D0785",
"B  c #120787",
"V  c #0D1886",
"C  c #0E0796",
"Z  c #11079A",
"A  c #0C1695",
"S  c #111891",
"D  c #0C2884",
"F  c #0E3283",
"G  c #0D3A8A",
"H  c #123788",
"J  c #0E2797",
"K  c #12269A",
"L  c #0D3996",
"P  c #123A94",
"I  c #1208A6",
"U  c #0D17A6",
"Y  c #1216A9",
"T  c #120BB5",
"R  c #0E19B7",
"E  c #1316B7",
"W  c #1129A6",
"Q  c #0D31AD",
"!  c #1339A8",
"~  c #1327B7",
"^  c #1539B4",
"/  c #14428B",
"(  c #0E4596",
")  c #15469B",
"_  c #0C47AE",
"`  c #1446A7",
"'  c #1653AD",
"]  c #1745B8",
"[  c #1656B7",
"{  c #2252AC",
"}  c #1306C3",
"|  c #1319C9",
" . c #120FD5",
".. c #1419D8",
"X. c #0D25C4",
"o. c #1525C7",
"O. c #1535C8",
"+. c #1528D9",
"@. c #1737D8",
"#. c #2036D9",
"$. c #1618E7",
"%. c #151CE4",
"&. c #1819F0",
"*. c #1729E9",
"=. c #1738E8",
"-. c #1827F4",
";. c #1737F4",
":. c #193DF3",
">. c #0D46CC",
",. c #1649C9",
"<. c #1757C8",
"1. c #1747D5",
"2. c #1859DA",
"3. c #2555CE",
"4. c #1B63C9",
"5. c #1965D8",
"6. c #1846E9",
"7. c #1657E7",
"8. c #1C5BE5",
"9. c #1A5BEC",
"0. c #1A44F4",
"q. c #1B4BF3",
"w. c #1848F5",
"e. c #1A57F5",
"r. c #1B5CF4",
"t. c #2150EF",
"y. c #2359F5",
"u. c #1865E6",
"i. c #1A64EC",
"p. c #1C6CED",
"a. c #0E7AE9",
"s. c #1777EC",
"d. c #1B64F4",
"f. c #176AF5",
"g. c #1B6CF4",
"h. c #1676F4",
"j. c #1B74F5",
"k. c #1C7BF5",
"l. c #1D74F9",
"z. c #1C7CF9",
"x. c #2270EA",
"c. c #2266F6",
"v. c #2278F8",
"b. c #178AEB",
"n. c #1C99EC",
"m. c #1C84F4",
"M. c #1C8CF5",
"N. c #1C87F8",
"B. c #1D94F4",
"V. c #1D96F7",
"C. c #248BE9",
"Z. c #238BF5",
"A. c #2286F9",
"S. c #2394F5",
"D. c #239CF5",
"F. c #2698F8",
"G. c #239CFA",
"H. c #1FB5EF",
"J. c #1CA9F3",
"K. c #1DB6F5",
"L. c #25A6ED",
"P. c #29B9EE",
"I. c #35B8EE",
"U. c #22A3F5",
"Y. c #2AA5F6",
"T. c #25ABF4",
"R. c #2AACF5",
"E. c #26A6F9",
"W. c #26ACF9",
"Q. c #31ADF6",
"!. c #2BB3F5",
"~. c #25B9F7",
"^. c #2DBCF5",
"/. c #2CB3F9",
"(. c #31BCF5",
"). c #33B9F8",
"_. c #1EC5F7",
"`. c #2ACCEF",
"'. c #3BCAEE",
"]. c #3AD7EF",
"[. c #2BC4F5",
"{. c #29C6F6",
"}. c #33C3F5",
"|. c #3AC4F5",
" X c #34CBF4",
".X c #3BCBF5",
"XX c #37C7F9",
"oX c #28D8F8",
"OX c #34D3F5",
"+X c #39D7F6",
"@X c #2CE2F9",
"#X c #39E4F6",
"$X c #4AD9EE",
"%X c #44C9F6",
"&X c #44D3F4",
"*X c #47D7F6",
"=X c #4CDBF3",
"-X c #55D9F5",
";X c #5CDCF4",
":X c #68D9EE",
">X c #78DBEE",
",X c #64DCF3",
"<X c #6CDDF4",
"1X c #78DBF4",
"2X c #44E4F5",
"3X c #4CE3F4",
"4X c #4FE9F1",
"5X c #48E8F7",
"6X c #54E3F4",
"7X c #5BE3F4",
"8X c #56E7F8",
"9X c #63E2F4",
"0X c #6CE3F4",
"qX c #68E8F8",
"wX c #74E3F5",
"eX c #77E6F8",
"rX c #8DDDEF",
"tX c #84DDF5",
"yX c #97DCF3",
"uX c #A7DCF4",
"iX c #B9DDF4",
"pX c #99E3EE",
"aX c #85E3F5",
"sX c #87E7F7",
"dX c #8DE4F5",
"fX c #97E6F6",
"gX c #A2E4F5",
"hX c #ABE3F4",
"jX c #A7E8F9",
"kX c #B6E5F7",
"lX c #C7DCF3",
"zX c #D6DDF5",
"xX c #E9DEF7",
"cX c #F3DFF6",
"vX c #C3E2F6",
"bX c #C6E6F8",
"nX c #D4E3F6",
"mX c #D3E5F9",
"MX c #DBE3F9",
"NX c #D9E9F9",
"BX c #E3E5FA",
"VX c #ECE4FB",
"CX c #E4EAFA",
"ZX c #EAE8F8",
"AX c #F3E6F6",
"SX c #F4E5FA",
"DX c #F9E6FB",
"FX c #F5EBFB",
"GX c #FAECFC",
"HX c #E3F3FB",
"JX c #F4F1FC",
"KX c #FCF2FC",
/* pixels */
"KXFXbXHXKXFXVXBXZXFXGXGXcXzXcXxXBXAXBXGXGXFXAXKXKXKXKXDXKXKXFXGXSXSXGXGXFXBXGXGXGXGXGXZXAXFXAXFXcXxXZXAXFXGXSXxXcXxXxXAXAXCXNXCX",
"GXFXfXgXgX0X<X,X<XuXDXlXlXmXyXtXgXhXdXpXAXFXZXbXCXAXDXzXlXlXpXdXyXdXAXMXiXjXgXSXuXkXdXfXpXCXxX>X7X0X0X>XSXxXnXlXiXrXgXyXfXtXjXJX",
"GXfX7X7X;XP.&X.X&X,XfX<XtXhX-X].].4X3X8XwXeX3X;X>X'.-XiXaX:X=X&X*X=XbXlXaX=X7XtX7X3X2X8X:X:X;X-X[.*X'.7XuX>X0XhXyX$XOX2X8XqXNXZX",
"FXpX4X=X6X!.(./. X.X,X'.|.wX'.~.`.+XwX3X#XoXOX X~.L.T.dX0X}.Q.Q.R.%XiX-X.X X}.=X8X3X[.pXhX$X$X'.!.P.}..X.XqX.X9X9XP.{.`. X-XgXGX",
"SXkX5X].~.M.G.T./.W.V.m.{.*XM.S.V.{.2XXXV.b.F.G.V.Z.Z.-XI.D.F..X!.-XsXW.D.V.Y.oX#X#Xk.U.Q.8X/.+XZ.J.W./.B.M.N.8XP.M.S.n.2X9X9XGX",
"DXuX$X`.R.h.l.S.m.M.z.j.+XE.k.j.g.oXM.j.z.g.f.k.v.p.b.D.m.m.[.V.6X5XV.N.z.k.M.@XoXoXg.g.v.A.k.m.h.v.F.M.k.h.b. Xz.z.g.m.W.P.-XkX",
"DXrX=X~.S.j.9.v.2.d.i.u.W.p.9.f.m.{.u.d.d.7.2.c.r.4.[.d.d.k.E.~.F.g.l.5.5.5.p.oXJ._.w.2.2.7.i.H.r.d.r.5.d.u.5.b.2.2.g.S./.+X-XkX",
"DXyX,X.Xn.k.2.7.q.0.,.<.S.<.,.G.k.<.6.q.6.! 1.q.2.( T.0.6.e.K.V.<.r.r.[ ' ' K._ 7.{.q.` ` ` Z.7.s.,.,.q.1._ g.7._ c.A.W.R.}.8XjX",
"VXzXkXwX8XP.p.,.=.! G v.5.G O.U.` / =.6.L ! =.w.L ,.P O.] h.m.V.! q.w.G m / J.h.s.K.;.F F G ,.! ` ) @.@.P F [ H :.2.j.U.XX}.-XkX",
"DXnXyX%X/.XXW.v.G z l d.b x :.G x l +._ y W -.-.f [ x F c v.z.G ^ ;.:.a i a N.i c ( *.p r P U.z D n W z l p c n :.e.k.B.).qXbXKX",
"GXnX1X=XF.j.u.] H l r O.t 0 =.k t 9 -.z 2 K &...< f.3 t y z.9.y X.-.;.3 9 k L 8 1.k $.0 8 F b 8 k +.0 u K @.k n ` 8.g.m.).dXVXKX",
"GXDXuXwXG.z.d.3.H u =.r 8 8 *.9 2 < ..3 - - &...# ,.< , < :.J < ..*.+.& < O.% @ v.Y  .% j D 7 % g f < < 0 r 7.v.z.<.j.A.T.qXiXDX",
"GXyX<X&X(.G.r.0.@.l ~ 1 1 - S < - - | , d : $.$.o w % @ @ *.> % ..| J % % +.+ # ~  .N + % o.q.% 0 + % - 8 3 l n m.E.J.+X X0XmXmX",
"AX>X*X{.).M.u.q.=.c k % % S f - $ > w * = d $.: X o X X * | + + E | S + + r o *.d # # + + :.=.+ 4 w T V 8 9 a n ) 5.m.OX8XrXCXmX",
"AX<X&X!.R.V.A.d.6.;.O.- $ E # # + Z * = $ E  .X V X . X N ; X 4 e  .f o + o h R N + + X X ;.+.; + # * S o.+.;.:.>.t.g.A.%X+X1XNX",
"DXtX'.}.G.z.9.1.7.c r 1 - d # # # B + $ : q } X ... X . h . X N o } * o * o  .* ; + X . X o.E d + # % & 1 9 l x.~.j.l.N.J.{.eXkX",
"DXtX.XP.U.k.a.F.,.l y - 8 7 * ; # ; X $ d = N . &     . C . X Z O T X X e d I $ O X . O o : h d * # $ % 1 1 i n ' J.j.M.^.oXeXBX",
"FXiX9X9X).R.[.u.! F 0 % # # * ; ; + + = ; # * .   . . . h   . C X h X X O h e 6 X . o X X + O + $ N B : > 8 i n ` s.@X].OX5XsXZX",
"KXZX9X'.8X*Xi.{ ` V.j.@.j 0.@.j e S h 5 # o o   . . . . # . . 6 5 : . O $ : $ O . . X . . X . . . + - j %.-.*.+.0.8.b.{.8X#XeXbX",
"FXlX:X>XqXk.7.` / l 9 - + + ; w N B 6 $ X # .   . . . . .   . o h + . O $ : $ O . . . . . . X o O o $ = < 1 a =.6.r.f.G.oX5XqXKX",
"KXpX0XjX-Xl.i.` F c W r % % X . X O . O . +     . . . . . . . . h X . X $ 5 O . . . . . . . o 4 7 * $ * w % y k ` r.l.M.+XqXkXKX",
"ZXrX3X;XY.z.9.] H k 0 * O X . . . . . . X =     . . . . . . . . q X . . . . . . . . . . . X X + o 4 j T Y j c =.;.t.f.k.W.OXqXJX",
"FXgX7X3XT.a.{.oX~.b k | d O X . . . . . . . . . . . . . . . . & . . . . . . . . . . . .   . . X + e } $.-.&.*.;.O.3.d.D. X2XNXHX",
"AXvX;X3X#X@X{.F.M.Z.A.7.E B e X X . . . . . . . . . . . . . . . . . . . . . . . . . . .     . . X X o C $.%.*.;.q.t.j.M.}.#XkXJX",
"GXvX9X7X2X@X~.u.z.a < : +.O.7 + 7 O X . . . . . . . . . . . . . . . . . . . . . . . .         . d ..f o o % 3 c L y.g.m.E.-XVXGX",
"KXAXlX].[._.{.~.h.p.1 & + + %...w $ $ $ X . . . . . . . . . . . . . . . . . . . . . .         . . X . + 0 ! k U./ { u.v.F.}.mXKX",
"DXpX;X{.D.k.5.[ 8.F 6.r.0 + X j Y h q : O X . . . . . . . . . . . . . . . . . . . . .           X X X + - 8 s b ` OXXXz.E..XVXxX",
"SXzXyXOXW.v.u.[ / a t 8 % - S 7 o + : $ @ X . . . . . . . . . . . . . . . . . . . . .         . . . X o % 3 c ~ @.y.N.=XeXfXBXzX",
"GXmXyX*XR.m.g.[ / i 3 & % O X X X X o o . . . . . . . . . . . . . . . . . . . . . . .   . . = Z T U | : % 8 l ! 6.y.k.R.*X1XuXGX",
"KXFXmXvX1XV.v.r.7.1.O.J g % X X X X X X X . . . . . . . . . . . . . . . . . . . . . . .       . . X V $.*.e.A.N.g.c.j.M.).&XjXDX",
"SXyXtXtXfX8Xf.d.w.;.;.-.-.$.| I e + X X X X . . . . . . . . . . . . . . . . . . . . . X X . . X X X O @ 2 W 6.A.W.!. XY.Y.XXeXCX",
"GXrX-X).Q.8XM.e.:.;.*.+.| 7 + + 4 C Z N : O . . . . . . . . . . . . . . . . . . . . . . . o q I I I d 1 2 8 y ' J.~.n.).D.XXeXMX",
"AXyX=X!.).XXOXXXm.b t V | $. .} N * X X o $ . . . . . . . . . . . . . . . . . . . . . * N h # o X o d R ..+.O.@.' i.2X|.G.XXeXBX",
"GXpX-X!.S.OX/.^.a.u.r < @ + + X . . + # # X . . . . . .   .   . . . . . . . . .   . . . . o # h T  .$.$.-.-.;.:.y.c.D.9XfX=XeXbX",
"KXkX,X(.S.k.F.s.M.j.@.~ | W X X X .         .     .   . . .   . . . . . . . . .   .   . . X . X X o w A ~ @.=.q.t.x.v.eXjXmXBXDX",
"KXAXtX7X!.m.d.w.1.Q K f h E $...N o .         .   . .   .   .   . . . . . . . . .   . . . X X . . X o o & 3 s a ) 4.A.D.|.yXVXGX",
"GXnXhX>XqXZ.f.8.L x t < @ X X . .   X o * +     .   . . .   . . . . . . . . . . .   . . . o o X r * o @ % 3 t x ) 4.j.V.^.<XuXMX",
"SXAXuX;XZ.%XXX<.G a u , @ X X X . .           .   . .     . .   . . . . . . . . .     . . o ; N 7 o o j O.=.y x / [ k.m.(.#X0XMX",
"KXSX-XT.S.s.<.2.D.v.9 2 % o X .               . . .   . .     . . . . . . . . . . . . . . o * h ..%.o + @ < p.B.~.Z.W.W./.8XfXFX",
"GXSX:XT.D.p.8.` b H M 8 V @.V o .                       .       . . . . . . . .         X o # 6 # e *.Y * < t u.5.L.oX#X*X7XkXGX",
"GXkX$X}.R.k.c.q.q.;.-.-...+ X X . . .                       .   . .       .             . X X + o w h A 9.l.i.) A.D.{.#X3X5XeXDX",
"GXMX9XOX!.m.e.] =.-.+.$.$. .# X X .   .         .     .         . .             .     .     . X + + # q E U t C.{. X{.#XOX5XdXDX",
"ZXkX4XP.Z.l.9.q.;.@.j r | A h 5 6 q 6 5 4 =             .     . . .                   . X o X X o + $ # } ....*.=.0.9.j.T.#XqXHX",
"KXAXdX+XJ.l.d.] G i 0 > * # o + X X X o X X       + + = + . . o 4 .   . +         . q X . X X X X X X = @ < c b P <.d.S.fXsXqXZX",
"KXHXeX5X{.l.f.6.=.l 0 > * o . .   .     .   .   . # # = o   . ; X %     6           h X + # o O o X + + - 2 y z / 3.d.S.sXfXHXKX",
"FXfX8X9X#Xv.p.q.=.*.-.+.f * o X .   . .         o 6 q 4 o . . C X q   . * .         h X : 6 q q N X.0.X.:.e.v.L ` 3.s.4X=X8XfXFX",
"GXjX8X+X5X5Xb.{ / z y 1 7 V Z 4 o o o X . . . . + $ h 5 X   X C X 6 . . X .     o . N o *   . : d A R A 7 - 2.^ ^ C.F.E.XX6XbXGX",
"DXkX5X{.{.g./.v.] b 3 1 > * # # h 6 d 6 . X . . ; # Y o   . * Z # + X # . .     + . Z * + . + h 4 q - @ 2 7 s M ] P.g.).XX%X=XBX",
"FXyX$X{.J.l.9.p.g.x u < 1 @ # $ # + T o.X X   o e d | o . . e e h X X N . . . . o X h N + X + e + + + w 2 c c F S.2.d.A.R.(.7XbX",
"AXuX$XP.Z.z.r.y.w.:.0.~ J $ # = # + +.W . X o o * *.% w X X A 4 T X X ..X X . O X X N h X + 7 * # # 4 6 @ W +.] 1.c.k.U.!..X7XjX",
"DXuXgX7XOXm.u.<.P z k J *.R w e C X w.w # o : I d d o ~ o X ..* $.+ X *.o X X V X * A + % = E = $ % j - $ , k #.] 8.v.!.(.}.;XkX",
"cXlXhX0X8X+XJ.z.` b u 2 : $ + f | + Q # % + ; U d.+ + r @ @ &.0 $.+ ~ E + + @ =.4 $.E : 5 = U > - < | - < 1 p M 0.t.v.Y.|.*XsXMX",
"GXMX1X.XS.b.p.2.v.2.u r 1 - < r 1 @ w % 9 # | X.j @ ! k < r -.o. .< W U < < & K -...V > * f f 8 1 o.*.8 3 r r v ` c.g.S.!.fXBXKX",
"KXxX<XeXV.j.u.[ P z 7.! 0 8 3 0 2 , ,.1 D > ..k.% 8 d.3 3 F -.*.D 9 ^ ~ 3 9 8 ] :.%.g 8 8 *.r 3 9 6.j 8 9 d.u r H 2.g.Z.).<XCXGX",
"KXFXuX|.U.m.e.q.P z ) p k p :.c k p M.y r 0 D V.y t >.i u ^ ;.;.a H f.O.i i ' x.y.+.+.f u ;.a i l e.F a b ! x z { <.{.A.Q.8XlXSX",
"SXdX,X*X}.m.u.q.@.n <.F n ^ 0.] H H m.b b b 6./.<.h.<.x x ,.:.:.F M.M.@.m M /.n q.;.;.z H ;.P L ( q.n P k.c H F #.5.m.2X9XfXNXmX",
"KX0X%X(./.G.i.,.] s.2._ 0.=.6.>.Z.] ` ` P L K.n.u.u.s.( ) <.e.e.E.V.W.6.] _ M./ r.1.;.! 1.0.` 2.j.d.` _ N.) ,.0.] ,.Z.M.7XeXvXBX",
"AXsX*X}.W.A.r.2.5.C.2.9.e.2.l.2.b.[.<.2.,.<.J.{.a.oX<.4.5.p.d.g.[.{.s.d.d.s.2.<.d.1.7.9.9.e.5.~.v.r.5.m.<.2.9.9.7.c.d.V.G. X0XvX",
"AX,X.XW.D.l.g.j.S.^.j.j.m.j.N.g.j.n.!.h.g.d.i.@X`.oXf.k.k.m.Z.8X+Xb.m.v.v..Xx.g.j.j.f.g.j.j.@Xj.g.f.s.V.J.h.j.v.Z.l.g.z.E.OXeXNX",
"FXtX-X3X XV.M.m.+X[.m.M.U./.W.S.M.b.&X3XS.m.k.#X#X{.M.V.G.*XeX&X/.*XN.E.-XL.A.A.S.J.m.M.V.{.4XE.S.N.n.6Xm.N.B.W./.J.A.*X/.#XaXCX",
"KXDX0X;XOX~.J.=X9X^.XXXX^..XW.(.!.&XP.eXfXsXY.#X3X}.^.(.|.rXkX%XF.L.!.XX<X-XU.Y.(. XY._.#X].5X{.{.U.7XqXR.XXW.|.^./.W.&X.X*XeXbX",
"FXmX4X2X2XOXOX$XgX<X9XfX8X.X.X%XP.=X=X0XwX+X2X8X2XdX+X7XwXCXdX.X.X%X&XtX1XdX X|.+X8X].eXqX2X5X+XoX.X1XjX9XeXfX5X.X2X^.;X=X8XeXkX",
"FXkXwXaXgXdXwXyXBXmXiXSXkX9X7XqX-XdXjXFXfXqXsXsXjXSXsXvXvXMXgX0X1X<XdXvXmXVXSXSXmXZXdXJXjXqXeXsXsXeXbXmXvXMXSXeX,X7X8X8XbXjXHXjX",
"FXHXFXCXSXCXMXBXlXBXGXKXFXNXbXNXCXKXKXJXGXCXFXGXDXKXDXBXGXGXVXDXSXDXGXKXDXVXKXKXKXKXZXKXKXKXCXGXmXmXSXMXGXKXGXGXNXnXCXKXKXKXGXJX"
};
