/* XPM */
static char *port6_c1693383949[] = {
/* columns rows colors chars-per-pixel */
"64 64 256 2 ",
"   c #030D03",
".  c #0B0F02",
"X  c #1B0F02",
"o  c #051403",
"O  c #061705",
"+  c #0A1505",
"@  c #0B1A05",
"#  c #0A1409",
"$  c #0D1B0A",
"%  c #151505",
"&  c #1B1606",
"*  c #131A05",
"=  c #1C1A05",
"-  c #131D0A",
";  c #1B1C0B",
":  c #271807",
">  c #2C1A06",
",  c #371907",
"<  c #15210C",
"1  c #29220C",
"2  c #36240C",
"3  c #481906",
"4  c #451C0B",
"5  c #4B1C0B",
"6  c #561A08",
"7  c #4D1F10",
"8  c #661908",
"9  c #6C1C0B",
"0  c #791906",
"q  c #731B0A",
"w  c #7B1D0B",
"e  c #711A10",
"r  c #4C2209",
"t  c #57210B",
"y  c #69230C",
"u  c #77240D",
"i  c #7B220C",
"p  c #682212",
"a  c #7C2311",
"s  c #525648",
"d  c #861807",
"f  c #841B0A",
"g  c #8B1C0A",
"h  c #941A0A",
"j  c #9B1D0B",
"k  c #831F10",
"l  c #A71809",
"z  c #AB1B0C",
"x  c #B51808",
"c  c #B31C0B",
"v  c #BC1D0A",
"b  c #AD1D11",
"n  c #83210B",
"m  c #892108",
"M  c #97220A",
"N  c #872511",
"B  c #952612",
"V  c #A3220C",
"C  c #AC230A",
"Z  c #A82B0B",
"A  c #B52509",
"S  c #BA220C",
"D  c #B4290A",
"F  c #BB2C0B",
"G  c #BA3407",
"H  c #BD330B",
"J  c #A92110",
"K  c #B82811",
"L  c #C41B09",
"P  c #C71B08",
"I  c #D81D05",
"U  c #C72709",
"Y  c #D62907",
"T  c #C53707",
"R  c #C3340A",
"E  c #CB340C",
"W  c #CD3C0B",
"Q  c #D63708",
"!  c #D43C0B",
"~  c #C42E10",
"^  c #C63611",
"/  c #E23506",
"(  c #CC4609",
")  c #D44605",
"_  c #DB4405",
"`  c #DC4C04",
"'  c #D3440B",
"]  c #DA430B",
"[  c #D44B0B",
"{  c #DB4C0A",
"}  c #D95706",
"|  c #D5540B",
" . c #DC540B",
".. c #DC5A0B",
"X. c #CC4B11",
"o. c #D85412",
"O. c #E24D0B",
"+. c #E1590B",
"@. c #DD6506",
"#. c #DE6C05",
"$. c #DD630A",
"%. c #DC7305",
"&. c #DC7B05",
"*. c #DC7309",
"=. c #DE7A09",
"-. c #DC7412",
";. c #E36B06",
":. c #E3650B",
">. c #E26C0B",
",. c #E27406",
"<. c #E27B06",
"1. c #E3740A",
"2. c #E8760B",
"3. c #E37B0B",
"4. c #E56712",
"5. c #E47816",
"6. c #E16121",
"7. c #DE8A05",
"8. c #DD9409",
"9. c #E28406",
"0. c #E28B06",
"q. c #E3830A",
"w. c #E58C0A",
"e. c #E9890D",
"r. c #E3930B",
"t. c #E59708",
"y. c #E49B0C",
"u. c #E68814",
"i. c #F18D18",
"p. c #E49313",
"a. c #E49B14",
"s. c #E7951A",
"d. c #E49B1C",
"f. c #DDA50B",
"g. c #E5A409",
"h. c #E4A50B",
"j. c #E5AB0C",
"k. c #E5B40A",
"l. c #E6B908",
"z. c #E5A513",
"x. c #E5A917",
"c. c #F0A119",
"v. c #E7B816",
"b. c #DB9E25",
"n. c #E79726",
"m. c #E99830",
"M. c #E6A827",
"N. c #E7B626",
"B. c #E8A738",
"V. c #E9B734",
"C. c #E8C80B",
"Z. c #E5D50B",
"A. c #E7C616",
"S. c #E7D616",
"D. c #E9E714",
"F. c #E8E717",
"G. c #E9C727",
"H. c #E8D825",
"J. c #EAC737",
"K. c #F1C63B",
"L. c #EBD937",
"P. c #EBE426",
"I. c #EBE538",
"U. c #EEF034",
"Y. c #EB9442",
"T. c #EAAB46",
"R. c #EBB747",
"E. c #F3B64C",
"W. c #EAAC55",
"Q. c #ECB459",
"!. c #EDBB66",
"~. c #F2BB68",
"^. c #EFBB77",
"/. c #F2BB78",
"(. c #ECC749",
"). c #EBD645",
"_. c #ECC858",
"`. c #ECDB58",
"'. c #F2D154",
"]. c #EDE646",
"[. c #EDE659",
"{. c #F2EB58",
"}. c #EEFB53",
"|. c #EBC466",
" X c #F3C669",
".X c #EED567",
"XX c #F4DD69",
"oX c #EEC479",
"OX c #F2C47B",
"+X c #F2CD7B",
"@X c #EED778",
"#X c #F3E46A",
"$X c #EEF26A",
"%X c #F1F46A",
"&X c #EFE972",
"*X c #F2E879",
"=X c #F3F478",
"-X c #F0BD85",
";X c #EEC685",
":X c #F2CB82",
">X c #F3C888",
",X c #EDD38E",
"<X c #F4D789",
"1X c #F3CC94",
"2X c #F2CD9A",
"3X c #F4D49C",
"4X c #F5D998",
"5X c #F3E789",
"6X c #EDF285",
"7X c #F3F789",
"8X c #F5E896",
"9X c #F4FB93",
"0X c #F4F899",
"qX c #F7CDA5",
"wX c #F5D4A4",
"eX c #F5DBA4",
"rX c #F6D6A9",
"tX c #F6DBAB",
"yX c #F6DCB4",
"uX c #F7DDB8",
"iX c #EEE1A2",
"pX c #F6E6A6",
"aX c #F7F8A8",
"sX c #F6E4B4",
"dX c #F8E2B4",
"fX c #F6E5BC",
"gX c #F9E4BB",
"hX c #F6EBBB",
"jX c #F9ECBB",
"kX c #F8F7BA",
"lX c #F6FEBB",
"zX c #F6E4C3",
"xX c #F8E3C7",
"cX c #F7ECC3",
"vX c #F9ECC4",
"bX c #F7EECC",
"nX c #F9EDCA",
"mX c #F6F7C3",
"MX c #F9F5C4",
"NX c #FAFCC4",
"BX c #F7F6CB",
"VX c #FAF4CC",
"CX c #F7FCCC",
"ZX c #F9FCCC",
"AX c #F9EED5",
"SX c #FAF3D1",
"DX c #F6FAD3",
"FX c #F9FDD4",
"GX c #F8F5D8",
"HX c #F7FADA",
"JX c #F9FDDC",
"KX c #F7FFE1",
"LX c #FAFEE3",
"PX c #FAFDEC",
"IX c #FBFCF5",
"UX c #FDFEF9",
/* pixels */
"+ :     + * O . o O @ @ @ . o * o   o o . %   o o o . o + & %   o o # : : & @ = o   + .   .   @ @ + . + @ @ * o o % * o o > % % ",
"O 4 > * @ @ > , 0 B g M 3 > 3 4 d % 6 0 d d q q 3 6 0 f V g % @ % 9 f 0 h q d h & : 0 X : % = + * , 3 0 g f n * % t d f 6 j 4 + ",
"O , S T E q g n H F R H 8 = M l U q c c S S l 3 h M ! E T T q > d q j c l S x U z 8 V c x G E H 6 f D R G T D , t m P H H M % o ",
"O , 6  ...H M ' ` $.$.G 3 n W ( [ ! c L .._ E h W R $...+. .g D T j j _ O.! Q ] v U ' Q Q [ :.| M j [ [ $.} u 3 ( W ' $.[ ^ -   ",
"@ 9 K ! =.-.D ..%.G ` z f G ;.>.1.! v P q.{ z S W U *.%.1...' ) >.S S 3.3.$.+.L ] P 1.1.:.*.=.&.C [ 2.#.R { j g ..4.5.*. .F $ + ",
"- 2 f ' ;.R 7.&.3.4.A l #.<.9.q.e.Y Y I a. .x L q.%.3.3.3.3.3.q.<.*.5.0.q.&.! Y >.w.w.t.q.0.p.| ,.9.9.G e.z R 2.7.0.1.K w 3 ; @ ",
"@ > 0 R ..<.y.h.i.Q ) 0.r.u.n.B.m./ 3.Q 3.a.n.) n.#.a.r.w.&.a.y.s.` ;.n.t.w.Q r.y.y.f.M.h.h.Y.! t.g.7.2.! q.r.r.n.d.7.( l i 2 o ",
"o # : 3 M 2.c.v.` ` ..h.x.B.Q.Q.3.u.M.:.+.x.R.T.s.n.z.f.t.h.j.h.T.p.T.B.n.u._ T.x.j.A.V.v.p.!.n.l.N.j._ :.B.g.h.B.a.q.$.( M ,   ",
"$ y 9 t 0 [ a.l.;.#.:Xl.l.(.1X1Xz.q.T.Q A.;X;XoX;X9.|.f.-X^.R._.E.^./.l.x.*.-XV.oXJ.J.C.l.(.-.+X).|.%.3.=.(.k.h.6.3.( 1.[ F 9 + ",
"@ a F X.[ c 0.j.7.|.3XC.C..XrXrXc.wXyX;..X4XeXqXwXp.eXl.;X,X2X2Xx.2X1XC._.M.qXG.;XwXeXZ.Z.pX XwX4X3X%.3.2X(.J.7.:._ 3.G | H i O ",
"@ 9 F ..( ) Q W a.gX#XC.Z.4XxXgX8.hXSXa.F.sXgXsXdX*XtXJ.,XrXiXiX(.yXtXC.rXyX`.XX@XfX5XZ.P.kXd.fXzXzX7.h.sXL.J._.B.,.z } | F i @ ",
"O u K ..[ E ] _ 3.eXF.I.Z.hXbX<XeXGX).].I.VXcXhXdXgX4X`.uXP.fX,XjXfXiXH.dXfX].4XhXLX&XD.F.NX_.bXbXbXZ.).pXS.C.k.h.w.l z Z F i $ ",
"O 5 J o.>.q.,.>.$.t.I.jXS.GXHX8XHXLXf.{.DXLXVXSX8XnXfXL.cXI.BX,XhXVX).8XvXbX8X5XIXUXlXF.P.KXNXHXGXHXS.aX*XS.C.l.z.r.;.f r 3 = O ",
"  1 u A } &.y.k.J._.@XkXI.LXKXJ.LX7XaX=XUXPXGXDXaXGXhXI.bXBXDXBXVXVX].JXJXMX8XZXIXUXFXF.JXPXPXPXPXGXL.LXAXxXwXOXW.n.<.' M 2 * o ",
"@ 1 3 n z <.t.M.~.<XzXcX7XPXKXmXMXS.NXPXLXIXJXKXaXJXHX].iXDXKXHXCXDX8XIXIXMX8XIXIXUXHXU.PXaXPXPXIXkXLXLXbXzXrX;XW.n.q.>.R g r * ",
"$ @ M G <.A T R.OXwXfXbXSXPXLXKXI.9X0XUXUXIXKXKXNXKXJX0X6XKXIXPXIX0XZXIXIXNXCXIXIXIXLX}.IX].IXPXIXlXkXJ.).<XwX;X!.m.e.,.E S 6 * ",
"  $ R  .&.p.B.b.+.(.gXVXGXPXKXPX{.FXKXUXUXIXPXLXHXKXKXHXBXIXIXIXPX$XKXIXKX0XAXIXIXIXKX7XIXaXUXIXCX=XKXJXHXB.&.;.+.d.w.>.! c q O ",
"o $ Z  .*.p.M.!.<XQ.iXMX#XA.aXaX7XFXUXUXUXUXIXPXIXKXIXKXKXIXPXIXKX0XIXIXDXaXIXIXIXIXIXFXIXIXUXIXKX[.H.KXFXdXrX9.E.Y Y Y ~ y @ o ",
"o 4 K ! $.0.f.k.l.C.Z.D.&XPXPXJXlXlXUXUXUXIXIXPXKXIXAXIXPXIXIXIXKXCXIXIXCXMXIXIXIXIXIXPXUXUXUXIXCX9XaX).y.XXwXn.V.@.Y P z V y o ",
"O : l E ..e.x.V.C.Z.S.F.F.}.JXPXLXPXUXIXIXIXIXPXIXIXIXIXPXIXIXIXKXKXIXIXCXHXIXIXIXIXUXUXUXUXUXPXKXLXNXU.`.XXB.O./ / Y P v c 3 o ",
"; 9 v  .3.w.z.l.C.L.gX8X].$X9XkXaXkXkXBXHXIXPXIXAXIXIXAXAXIXIXIXJXPXIXIXIXIXIXIXIXIXIXIXUXUXUXIXPXLXJX=XI.F.S.A.z.k.y.w.) P d # ",
"o - 3 x P w.p.x.E.rXzXhXkXCXZXHXKXPXPXPXPXIXIXIXIXIXIXIXIXIXIXIXIXIXIXIXIXIXIXIXIXIXIXIXIXIXIXIXIXPXGXSXnXfX4XoXV.a.x ^ Q b w ; ",
"# + q c Q q.t.R.R.`.8XhXMXBXDXHXPXIXIXIXIXIXIXIXIXIXIXIXIXIXIXIXIXIXIXIXIXIXIXIXIXIXIXIXIXPXPXIXPXLXHXSXhXsXwXOXE.s.L l j k p $ ",
"- 9 v Q P +.p.B.N.OXwX`.VXMXZXFXKXPXIXIXIXIXIXIXIXIXIXIXIXIXIXIXIXIXIXIXIXIXIXIXIXIXIXIXIXPXPXPXPXLXGXGXnXsX3X^.n.+.P ! d 4 , $ ",
"$ u S ] A U +.3.~.+XS.`.5X6XMXHXGXKXPXIXIXIXIXIXIXIXIXIXAXIXIXIXIXIXIXIXIXIXIXIXIXIXIXPXIXPXPXKXJXZXlXpX+XM.>XOXT.n.9.W ~ g 5 $ ",
"$ a z E _ ,.9._ 5.1XuXzX8XjXaX8XaXDXKXKXPXIXIXIXIXIXIXIXIXIXIXIXIXIXIXIXIXIXIXIXIXIXIXIXPXPXPXLXJXJXHXcX8XG.K.l.y.w.E  .O.R 4 # ",
"; a M ! $.q.r.y.R.|.:X'.cXBXDXHXHXGXDXLXIXIXIXIXIXIXIXIXIXIXIXIXIXIXIXIXIXIXIXIXIXIXIXBXaX9XlXFXJXJXVXxXgXyX3XE.x.y.3.3.o.R a # ",
"; a z ! 1.7.a.j.k.l.G.<XsXmXDXHXPXLXPXIXIXIXIXIXIXIXIXIXIXIXIXIXIXIXIXIXIXIXIXIXIXIXIXPXCXDXKXKXJXaX[.H.Z.A.G.j.g.0.3.;.{ ~ B $ ",
"- u J l ..5.q.B.!._.@XH.H.`.kXJXKXPXPXIXIXIXIXIXIXIXIXIXIXIXIXIXIXIXIXIXIXIXIXIXIXIXIXPXPXPXLXLXZX7X5X8XtX<X1X-Xy.0.3.;.| H B - ",
"# 9 q B x E $.d.^.1XyXcXhXMX&X&XlXHXLXPXPXIXIXIXIXIXIXIXIXIXIXIXIXIXIXIXIXIXIXIXIXIXIXIXPXPXLXKXJXJXSX%XP.<XOXE.z.w.,...' F N 1 ",
"# 1 9 J ( 7.p.$.&.M.eXtXvXVXDXDXKXHXZXJXPXIXIXIXIXIXIXIXIXIXIXIXIXIXIXIXIXIXIXIXIXIXIXPXIXPXLXPXJXHXDXVXhXeX1XR.j.a.3.F m 5 $ - ",
"O $ 6 F ) <.w.T.!.1XJ.J.@XmXDXJXHXKXLXPXPXIXIXIXIXIXIXIXIXIXIXIXIXIXIXIXIXIXIXIXIXIXIXPXIXPXPXKXDXHXkX@X(.4X1X~.M.t.q.) D , @ $ ",
"O @ , N c <.a.j.V.2XtXfXnXVXFXJXPXLXPXIXIXIXIXUXIXIXUXIXIXIXIXIXIXIXIXIXIXIXIXIXIXIXIXPXPXLXLXLXJXDXVXvXsXpXa.=.5.s.9...C y 2 # ",
"; N D H } ;.0.g.R.:X<X[.aXGXJXJXLXLXPXIXIXIXUXIXUXUXIXIXUXUXUXUXIXIXIXIXIXIXIXIXUXIXUXIXPXLXFX0X=XkXMXvXsXfX>XQ.p.} Q l h q p - ",
"$ N H | ;.<.9.t.^.3X,XwX&X$XaXJXJXPXPXIXIXUXIXUXIXUXIXUXIXUXUXIXIXIXIXIXIXIXIXIXIXUXIXIXIXIXPXPXLXVX#XI.).4XOX~.B.=.5.[ V V a - ",
"@ B ~  .;.,.7.g.j.J.A.S.L.5XNXJXJXJXZXLXIXIXUXIXUXIXUXIXUXIXIXUXIXIXIXIXIXIXIXIXUXIXIXIXIXPXIXPXPXPXGXcX@XA.k.k.j.d.0.3.E J a : ",
"o a R +.3.3.y.x.V.<XuXgXcXVXJXZXlX9X7XlXJXUXIXUXIXUXIXUXUXIXUXIXUXIXUXIXIXIXIXIXIXUXIXIXPXLXPXPXPXPXJXAX@X+X XR.a.r.q.>.! V N 1 ",
"# 5 R o.$.` y.z.k.'.v.+XsXHXJXJXLXPXPXPXIXIXUXIXUXIXIXUXIXUXIXUXIXUXIXIXIXIXIXIXUXIXUXIXPXPXLXFXVXJXZXjXnXuX>X5.{ w.*. .E z a - ",
"$ 7 f E ! 3.d.T.^.M.N.tXbXSXLXLXLXLXPXIXIXIXUXUXUXUXUXUXUXIXUXUXUXUXUXUXIXIXIXIXIXUXIXUXUXIXPXPXLXMXjX8XL.L.qX/.+._ Y o.! K a $ ",
"$ > 3 g ! U :.u./.wXsXcXBXJXJXLXPXPXPXPXIXUXIXUXIXUXIXUXUXUXIXUXUXUXUXIXIXIXIXIXUXUXUXUXUXIXIXIXPXLXSXVX`.rX Xv.T.p.O.L ! L k ; ",
"# 6 8 g z P i.W.OXrXdXjXSXDXJXPXLXPXPXPXIXUXUXUXUXUXUXUXUXUXUXUXUXUXUXUXUXUXUXUXUXUXUXUXUXUXUXIXIXPXJXBXjX<X'.|.B.y.e.Q x f $ $ ",
"; a b ] W x p.R.^.3XgXcXAXHXLXPXPXIXPXIXIXIXUXUXUXUXUXUXUXUXUXUXUXUXUXUXUXIXUXUXUXUXUXUXIXIXIXIXPXLXHXNXjXzXwXV.z.a.y.P L 6 - # ",
"# e L { 9.t.k.j.Z.S.F.P.6XJXPXPXIXIXPXIXKXUXUXUXUXUXIXUXUXUXPXUXIXIXUXUXIXIXIXIXIXUXPXPXLXLXJXFXLXlX7X].5XpX'.C.l.z.e.3.{ U q ; ",
"O 6 c c P / / Q O.rX#X].{.FXPXPXPXIXUXUXaXUXUXUXUXUXUXIXUXUXJXUXPXUXUXIXLXIXIXPXPXUXUXUXIXIXIXPXZX7XU.D.D.S.Z.C.(.x.r.:.E b % + ",
"o p l l L Y } M.s.:XN.r.'.aX0XJXPXIXUXUX7XUXUXUXUXUXUXPXUXIXNXUXPXUXUXPXFXIXPXIXPXUXUXUXUXUXFXPXPXPXKX{.F.S.Z.l.k.f.q.#.E c , # ",
"o * N K Y I Q R.w.tXjXFXFXC.=XJXLXIXIXIX=XIXUXUXUXUXIXJXUXIXaXUXIXUXPXZX9XPXPXPXPXUXUXUXUXJXFXFXNXP.#XHXJXSXdX:X_.j.r.=.+.f $ # ",
"o p z ' @.<.p.` @.,.+XSXJXJX=XaXIXUXJXIX%XUXUXUXUXUXlXLXUXPXCXIXUXUXLXlX$XLXPXPXPXIXUXUXUXCXNX7XPXPXPXGXbXsX X@.T.B.p.&.| R *   ",
"* 6 A Y ;.e.m.W.;XtXK.L.G.FXLXIXUXUXFXPX}.UXUXUXUXLXZXFXPXZXJXUXUXIXLXNX9XLXPXLXLXIXUXUXIX0X9X$XFXPXPXHXVXfXwX:XE.Q T 3.( D @ - ",
"$ r 0 ! ;.&.n.W.-XrXzXbXGX0XIXPXIXPXKXIX=XUXUXUXUX9XGXCXZX&XHXUXUXJXJXFX0XJXKXLXPXPXIXIXKXJXF.FX*XPXPXCXbXuX<X_.N.r.3.z i 3 1 @ ",
". * , Z _ ,.n.T.;XwXbXGXPXL.PXIXPXPXPXPX%XPXUXUXLX5XDXBXVXI.DXPXUXJXZXHXNXJXJXJXJXLXIXJX9XaXP.LXNXHXmX{.cX8X+XK.k.h.=. .C i 2 o ",
"o - , , 0 2.r.h.k.C.S.pXHXD.KXIXPX*XPXaX%XCXIXUX8XkXVXBX*X0XBXBXVXSX&XMXMXVXHXHXDXDXJXCX=XL.KXJXJXLX7XF.5XK.0.,.y.,.3.;.' Z 3 o ",
"@ 0 A M V l 0.z.k.A.S.CX).].HXHXGXA.aXF.].lXmXVX8X5XvXfXL.cXcX<XvXvX].&XvX@XvXVXAXVX9X5X[.`.JXJ.SXGX[.S.I.pX X<._ { E | o.D 9 @ ",
"@ y F | X.z ;.B.(.L.{.nX(.).BXbXVX(.Z.P.5XjXjX`..X5X<XpXS.gXsXJ.vX5X3XL.sXv.eXVXjXcXF.].0.ZXGXA.bXAXL.Z.F.jX<Xe.} Q +.( | R i O ",
"+ q H | G ,.! 5.y.H.4XdXN.H.zXsXfXb.k.H.5XdXdX4XH.yXQ.(.J.yXyXx.tX4XwXA.yXK.J.yXyXdXF.*X0.nXjXJ.zXxXA.C.A.gXN.x.M.9.z W | F w $ ",
"$ p C o.,.) u.Y.C.C.1X_.e.G.qXwXp.-.z.Z.S.wX+X>X_.qXa.l.G.1XR.>X1X>X1X(..X:Xe.3X3X3XS.rXM.rXq.rXwXyXC.C.C.1Xp.9._.p.' m y 0 u < ",
"  , V [ $.u.T.R.l.l.T.,.+.A.OX;X` :Xr.C.C.~.v.R.^.T.B.k.!.^.u.!.A.R./.M.N.k.~./.OXOXC.} c.e.>.>X;X;Xk.k.A.3.q.;.(.B.<.d , > # o ",
"o 2 w V T m.T.B.g.g.` ` ` v.V.B.1.!.j.V.l.j.R.x.n.` a.g.B.B.| T.z.h.h.y.j.j.T.@.W.R.j.Y r.M._ Q.Q.Q.j.h.x.+._ y.v.N.s.+.F q : o ",
"O 1 5 0 X.n.a.p.w.w.Y ) q.y.t.| n.M.h.z.x.a.0.p.:._ r.y.s.1.u.p.y.w.q.9.y.8.a.u.=.p.k.Y O._ :.n.n.d.7.0.2.Q +.%.y.t.' -.' n r * ",
"O $ D { 7.q.<.,.[ l U ` u.&.<.S p.p.q.q.q.0.q.4.Y 2.3.9.3.U 9.<.3.;.3.3.3.2.q.} L x y.O.I Y Q 3.3.3.,.A z +.W 3.<.,. .u.' S q @ ",
"  $ ~ ' 1...$.T 0 ( ( ( ,. .z ;.*.*.:.+.3.P U P c ` $.,.>.c F [ S ) ;.>.3.1.] Q l W w.U P L ( ;.@.} 0 m ) T :.:.o.l 3.*...0 4 O ",
"o , l E ' ! R y r T ..|  .~ B Z | ..W E ' l v U _ U ! ! Z h V F m D |  .+.| ! Z f ! ] v x z Q E W F , i | } | ' C q [ | ..H > O ",
": d c t S M g = 6 H F F D n q w H H S l S 6 8 c S z V z z 9 w 9 : C ^ K R R 0 8 3 b L c l A d x w 8 > M A H D Z i 3 D E f c k O ",
"3 4 6 @ q , , % 4 w i i 6 1 > * @ @ , X 6 % o 9 0 i q w w w , @ @ y M g a 8 5 , 8 q q 6 8 > 3 q r & $ i w i 9 3 2 = @ * + , & & ",
"; o o o O = + o @ @ @ + +   O *     o o *   . # $ @ : = @ @ o     * % O     o o . % . o O o o @ * o o * O o @   o @ +   . o + s "
};
