/* XPM */
static char *barrel_side1693225139[] = {
/* columns rows colors chars-per-pixel */
"64 64 10 1 ",
"  c #997140",
". c #8B673C",
"X c #805E36",
"o c #664D28",
"O c #553A1F",
"+ c #785836",
"@ c #6B5332",
"# c #302C29",
"$ c #453F3B",
"% c #28221C",
/* pixels */
"      ..              ..              ..              ..        ",
".....XoO ...X.........oo ......X...X+X@o .....XXX....X@o .......",
"..X.+XoO .X.XX..XX.X+X@o ..X...XX.XX++@o ....XX+XX.XX+@O ...X..X",
"X.X+X+oO .XX.X.XX..++X@o .X...XX..X+++@o .X...+++X.X++oO ....X.X",
"X.X+X+@O ..X.XX+X.++++oO..+.X.XX.X.+X+@o .X.X.+++XX.+X@o...X.X..",
"X.XXX+@o ..+XX++..+X++oO..+XX.XX+X..X+oo .XXX.+X+XX..Xoo...XX...",
"+X.X++@o...+XX+X.XXX++oO .+X+X.X+XX.XXoO...X+X+X.X.X.XoO .X+X.X.",
"+X.X+Xoo.X.X+XXXXXXXX+@o .X++X.X++XXX+oO...X+XXX...XXX@O .XX+.XX",
"+X..XXoO.XXX++X.X+X+X+@O .X+XX..++X+X+oO....X+XXX..XX+@o ..X+XX+",
"++X.X+@O..X+++..X+X+++@O .X.X.X.X+X++X@O..X.X++X+.X+X+@O ...X+X+",
"++X+X+@o .X+X+.X.X++++oO....X..XX++X+X@O .XX.X+++XX+++@O .X.X+++",
"+++XX+@O .XXXXXX.X++++oO ....X.X+++XXX@o .XXX+++XX++++oO .XX++++",
"##$$$$$$$#$$$$$$$$$$$$$$$$####$$#$############$$$$$#$$$$$$$$####",
"#####%%########%%%#####%%########%%#####%%#####%%#########%%%###",
"##%%#####%%%##%#########%%%#####%#####%%###%%#%%###%%%##%%%####%",
"%%####%%%%######%%##%%#######%%###%%###%%#######%%##########%%%%",
"###%%##%%%%%%%%###%%%###%%%###%%%%%%%#####%%%%%######%%%#####%%%",
"%%%%%%%%%%%%%%%%%%%%%%%%%%%%%%%%%%%%%%%%%%%%%%%%%%%%%%%%%%%%%%%%",
".XXX++oOXXXX+XXXX+++++oOXXXXXX+++XXX+XoOXXXXXXX+XXX+++oOXXXX.XXX",
"XX+X+X@O.XXXX+X+X++X++oOXX.XX.X+X+XX++oOX.XX.X++XX+X++oOX.+X..X.",
"X.X++X@O..XXX+++XX+X++@OX.X+X.X.X+X+++oO..XX..+XX.XX++oO..++X.X.",
"X..+X+@O..X.X++XXXXX++@OX.++XX..XXX+X+@O...X.X+X..XX++@O.XX+X+XX",
"...XX+oO ..X.X+X+XX.X+oO..+X+X.X.X++XXoO....X.XX.X.X+Xoo XX+++.X",
".X.X++oO .XX.XXX++X.X+oO.XXX+XXX..+XXXoO..X.XXX+XX.X+X@o X.++X..",
".XXXX+oo..XX..XX++.XXXoO X.X++X.X.XX+Xoo .XXXXX+X+..X+@o ..X+XX.",
"X.XXXX@o .X.X.X.X+.X.XoO ..X++X.XXXX+Xoo ..X+XXX++X.X+@O .XXXXX.",
"X+XX+XoO ...X..XX+X..+@O ..XX+..XXX.X+@o ..X++.XX+XXXXoO .XX+XX+",
"+XX++XoO ..X...X.XX.X+@O ..XX+..X.X.X+@o ..XX+.XX+XX.XoO .X.++X+",
"+.X+++oo ....X...XXX+X@o ...XX.XX...++@o .X.+XX.+XXX.Xoo .X.X++X",
".XX+X+oo .X.XX.X.XXX+X@o .X.X.XXXX..+X@o ...+XX.XX.X..oo ..XX+XX",
".X+XXX@o .XX+X.X.X+XXXoo .X...X+XX.X.X@O...X.X...X..X.@o...X.XX+",
"XX+X+X@o ..X+X..XXX+XXoo ..X..X++X+X.X@O...XX.......XX@o.....X++",
"X.X.++@o ..++X.XX.X+X+@o ..X.XX.+X+XX+oo..XXX.X...X.X+@o ..X..+X",
"X...X+@o .X+++XX..X+++@o ..XXX..X++XX+oO..X.XXX.X.XXX+@o ..XX+XX",
"+..XX.oo .X+X++X..XX++@o....X+.XX+X+X+@o .X.X+..XX.X++oo .X.X+XX",
"+X.XX.oo .XXX+X+X..X+X@o....++.XXXX+++@o X..X+.XXXX.+Xoo .X.XXXX",
"XX.X.XoO ..X.XX+.X..XX@o X.X+XX.+XXX++oo.X.X++X.+XX.XXoO .XXXX.X",
"+XX..XoO ..X.XXX.XX.X+@o X.X+XX.+XXX+Xoo...X+XX.+XX..XoO .+X+X..",
"++X.X+@O ...X+X.XXX.X+@o ..+XXXX++X.XXoO ..+XXXXX+.X.XoO .+++...",
"++.X++@O .X.++X.X.X.X+@o .X+X.X+X+X.X+oO .X+.X.X++.X.XoO X.++.X.",
"X+XX++@O..X.+X.XX...+Xoo..XX..X+XX..X+oO .XX..XX+X..XXoo X.+X.XX",
"X+X+X+@o..XXXX..XX.X+Xoo...X.X++XX...XoO .XXX.X.XXX.X+@o ..X..X.",
"XX++XXooX.XXX.X.X+.XXXoO..X..X+XXX...+oO..X.X.X.XX+XX+@o..XXX...",
".++++X@OXX.XX.X.X+XXXX@O.XX.X.+X+X.X.+@O..X.X..XX++X+X@o..XX+..X",
"X+X+++oO.X.X...X++X+X+oOXX..XXXX++.XX+@o.X..XX.XX++X++oo.XX+XX.X",
"+X++++oOXXX...XX+++XX+oOXX.XXXX+X+X.+XooXX...XXX++X+++@oXXX+XXXX",
"$$$$###$####$$##$$$$$$$$$$$$####$$$$###$###%%%####$$$$##$$#$##$$",
"#####%%%##%%###########%%%#####%%%###%##%%###%%%######%%%%%#####",
"%%###############%%%%#######%%%####%%#####%%%%%######%%%########",
"##%%####%%%%##%%########%%####%%######%%########%%%#####%%##%%##",
"%%%##%%######%%%%%%###%%%###%####%%%%###%%%###%%%%###%%######%%%",
"%%%%%%%%%%%%%%%%%%%%%%%%%%%%%%%%%%%%%%%%%%%%%%%%%%%%%%%%%%%%%%%%",
"X+++XXoO.XX+++XX++++++oOX.XXX+XXX++++XoOXXX+++XX++X+++oOX+++++XX",
"XX++X+oO .XX+XXXX+X+++@OXX.X++.X+XX+++oOXXXX+XXX.XXX++oOXX++X.XX",
"+X+X++oo ..XXX.X+XXX++@o.X..+X..++X+X+oO.X.XX+.X.X.X++@O.X+X..XX",
"+XXX+X@o ..XXX.X+X+X++@o X..XXX.++.XX+@O.X..X+..XX..+X@O .XX.X.+",
"XX.XXX@o .X.X+X.X.++X+oo ..XX.XXX+..XX@o ...X.X.X...XX@O..X+XX.+",
".X..XX@o .X.X+X...X+X+oO .XX.XXXX+X.X.@o .X.XXXXX.X.X+@o...X+.+X",
"X...X+oo..XX++XX...X.+oo .XX.XX+X.+X..oO .XXXXXXX+XX.+oo ...+++X",
"X.X.++oo...X+++X.X...Xoo X.X..++..XX.Xoo .X+XX.XX+XX.+oo .X.X++.",
".+X.++oO ...+X+X.X..X+@o.X...XX+.XX.X+oO .X+X..X++X+X+@o .XX++X.",
"++.X+X@O .X.+XX+XXX.+X@O.XX..X.X.X+.X+@O X+X..XXX+X+++@o.X+X+XX.",
"+XX+XX@O .X+XX++XXXX++@OXXX.XX..X++X++@O.X++X.XXX++X++@OX++XXX+X",
"XXX+X+oOX++XXX+XXXX+++oO++++XXX.++++++oOX++XXXXX++++++oOX+++X+++"
};
