/* XPM */
static char *port51693303858[] = {
/* columns rows colors chars-per-pixel */
"64 64 254 2 ",
"   c #020106",
".  c #04030A",
"X  c #050213",
"o  c #06021B",
"O  c #08061E",
"+  c #060223",
"@  c #080324",
"#  c #060A24",
"$  c #06032B",
"%  c #08042C",
"&  c #050B2C",
"*  c #080A2B",
"=  c #07122D",
"-  c #060333",
";  c #080333",
":  c #060C34",
">  c #080D36",
",  c #05043B",
"<  c #09023C",
"1  c #050C3A",
"2  c #061334",
"3  c #091335",
"4  c #06143C",
"5  c #09153C",
"6  c #071C38",
"7  c #091A3B",
"8  c #08223D",
"9  c #050443",
"0  c #090141",
"q  c #070849",
"w  c #091443",
"e  c #051B44",
"r  c #091B44",
"t  c #071649",
"y  c #090454",
"u  c #080C56",
"i  c #0A025B",
"p  c #071854",
"a  c #082345",
"s  c #0A244C",
"d  c #07344D",
"f  c #092757",
"g  c #0A2C5C",
"h  c #083359",
"j  c #0A0766",
"k  c #0B1867",
"l  c #0C0878",
"z  c #0B1776",
"x  c #111C76",
"c  c #092566",
"v  c #0B2C63",
"b  c #0B2B6B",
"n  c #0C3367",
"m  c #0A2A76",
"M  c #0C367B",
"N  c #113077",
"B  c #100D8A",
"V  c #0D1885",
"C  c #0E0992",
"Z  c #130D9A",
"A  c #0D1996",
"S  c #111998",
"D  c #0E2787",
"F  c #0E3384",
"G  c #0E3B88",
"H  c #123A86",
"J  c #0E2699",
"K  c #11239B",
"L  c #0D3A98",
"P  c #123998",
"I  c #1014AB",
"U  c #1318B7",
"Y  c #0D2DA7",
"T  c #1325A9",
"R  c #143AAA",
"E  c #1225BB",
"W  c #1337B8",
"Q  c #0F438F",
"!  c #114489",
"~  c #124693",
"^  c #0E48A8",
"/  c #1244AB",
"(  c #1349A8",
")  c #1050AE",
"_  c #1449B7",
"`  c #1456BA",
"'  c #0F17C9",
"]  c #1419C9",
"[  c #1519D8",
"{  c #0E2ECA",
"}  c #132AC7",
"|  c #1637CA",
" . c #162AD7",
".. c #1637DA",
"X. c #181BEC",
"o. c #1727E6",
"O. c #1837E9",
"+. c #1729F3",
"@. c #1839F4",
"#. c #1A3BF4",
"$. c #0D4FC9",
"%. c #1648C8",
"&. c #1553CB",
"*. c #1858CA",
"=. c #1748D6",
"-. c #1857D7",
";. c #1865C8",
":. c #1866D9",
">. c #1973DA",
",. c #2260DA",
"<. c #1947E9",
"1. c #1B5CE4",
"2. c #1857E8",
"3. c #1B5BEC",
"4. c #1A43F4",
"5. c #1A49F6",
"6. c #1B53F4",
"7. c #1B5BF4",
"8. c #1B58F8",
"9. c #2157F1",
"0. c #1A64E3",
"q. c #176AE7",
"w. c #1A63ED",
"e. c #1B6BED",
"r. c #1974E8",
"t. c #1C7BEC",
"y. c #1B63F3",
"u. c #196AF6",
"i. c #1B6CF4",
"p. c #1B77F7",
"a. c #1C74F4",
"s. c #1C7BF4",
"d. c #216EEA",
"f. c #2069F7",
"g. c #2177F8",
"h. c #1989EC",
"j. c #1793EA",
"k. c #1C84F5",
"l. c #168AF5",
"z. c #1C8BF4",
"x. c #1D84F9",
"c. c #1D8CF9",
"v. c #1D94F4",
"b. c #1D9BF4",
"n. c #1C97F9",
"m. c #2494EF",
"M. c #2186F7",
"N. c #218BF5",
"B. c #2194F5",
"V. c #229BF6",
"C. c #2295F9",
"Z. c #249AF9",
"A. c #1DA6EE",
"S. c #1EA3F4",
"D. c #1DA7F6",
"F. c #1EB6F5",
"G. c #24ACEE",
"H. c #2AB7EB",
"J. c #22A4F4",
"K. c #24ACF5",
"L. c #2BADF5",
"P. c #28A7F8",
"I. c #25ABF9",
"U. c #38AFF6",
"Y. c #24B2F5",
"T. c #2AB4F4",
"R. c #2BBBF3",
"E. c #27B8F8",
"W. c #32BCF5",
"Q. c #33BCF8",
"!. c #1EC4F7",
"~. c #37C8EE",
"^. c #35D0EF",
"/. c #29C8F6",
"(. c #34C3F4",
"). c #3AC5F4",
"_. c #34CAF5",
"`. c #3BCCF4",
"'. c #35C9F8",
"]. c #2AD8F8",
"[. c #33D2F4",
"{. c #3BD3F4",
"}. c #3CDCF4",
"|. c #36D9F8",
" X c #2AE6F8",
".X c #39E5F8",
"XX c #4BD6EE",
"oX c #50D1EF",
"OX c #46CBF5",
"+X c #44D3F3",
"@X c #4BD3F3",
"#X c #44DAF4",
"$X c #4BDBF5",
"%X c #49D7F8",
"&X c #55DBF4",
"*X c #55D8F6",
"=X c #5BDBF3",
"-X c #66D9EE",
";X c #79DBEE",
":X c #64DBF2",
">X c #6DDCF3",
",X c #74DCF3",
"<X c #7BDDF2",
"1X c #51E2EF",
"2X c #47E5F4",
"3X c #54E3F4",
"4X c #55E7F7",
"5X c #5CE3F4",
"6X c #63E3F5",
"7X c #6BE3F5",
"8X c #67EAF7",
"9X c #6BE9F6",
"0X c #73E3F4",
"qX c #7BE3F4",
"wX c #77E7F8",
"eX c #89DAED",
"rX c #97DBEC",
"tX c #87DDF3",
"yX c #95DEF5",
"uX c #9ADDF3",
"iX c #A7DDF4",
"pX c #B7DEF5",
"aX c #92E0EF",
"sX c #83E3F5",
"dX c #8BE3F4",
"fX c #89E7F7",
"gX c #92E2F4",
"hX c #99E6F5",
"jX c #A6E6F7",
"kX c #ACE3F6",
"lX c #B8E4F6",
"zX c #C8DFF7",
"xX c #D6DDF5",
"cX c #EDDBEF",
"vX c #E8DCF2",
"bX c #F2DDF5",
"nX c #C2E2EC",
"mX c #C8E5F7",
"MX c #D3E3F6",
"NX c #DBE2F7",
"BX c #D6E4F8",
"VX c #ECE3F4",
"CX c #ECECF7",
"ZX c #EDE5FA",
"AX c #E7E8F8",
"SX c #F3E4F5",
"DX c #F4EBF5",
"FX c #F8ECF7",
"GX c #F4E5F9",
"HX c #F8E6FA",
"JX c #F5EAFA",
"KX c #F9ECFA",
"LX c #F7F3FA",
"PX c #FAF2FB",
/* pixels */
"DXLXLXLXKXLXLXKXKXJXGXHXSXJXKXKXJXGXJXJXJXSXDXDXPXKXKXSXSXSXLXJXKXHXVXbXbXSXbXGXDXKXAXDXLXLXLXKXLXLXKXJXHXJXHXSXJXJXKXHXJXBXjXZX",
"NXAXhXhXtXlXSXKXpXyXtXeXiXKXHXpXjXpXZXHXKXsXuXnXNXrX7X<X:X<XMXSXxXMXMXyXeXjXiXgXjXJXmXlXMXjXtX;XVXSXBXkXuXtXgXxXKXSXkXuXvXkXmXFX",
"AXmX=X#XOXjXBX,X-X:XqXtXJXHX,X&X@X*XeXlXjX$XqX5X6X:X`.).`.+X<XtX0XeXlX&X#X~.4X3X5XqX5X3X3X{.`.+XxXMX:X=X=X,XmXHXbX>X=X#XXX-XlXLX",
"cXpX+XR.`.dX&X+X(.fXqXhXfX'.{.(.E.'.sX8X8XfXkX7X'.5XK.).Q.`.(.qX`.~.,X).H./..X6X4X.X[.W._.R.H.@X;X@X).XXwX,XpX*X'.'.R.E.).+XhXLX",
"vXqX_.Y.P.G.P.J.E.=X8X8XE.I.n.I.C..X2X.X.XP.+X5X%XS.v.b.D.Q.Y.n.z.Q.#Xz.b.V./..X[.S.v.b.b.D.K.5XD.J.I.@X6X5X'.Y.J.b.v.n.R.{.>XSX",
"cXgX$XK.L.s.a.k.5X4X}.v.M.C.x.x.x.D..XD.L.p.a.s.|.W.p.p.n.l.z.p.p.'.E.s.s.p._.n.a.k.g.c.c.Z.c.`.s.s.W.4X2X/.n.c.x.k.s.oX5X@XdXFX",
"SXkX&XE.B.t.q.e.|.].e.u.i.i.s.r.r.].F.r..X2.1.1.w./.w.3.M.0.7.y.w.Y.q.0.u.k./.q.y.y.y.k.l.>.y.0.q.3.a.].[.>.i.i.a.e.a.b.oXBXHXFX",
"FXKXiX(.b.s.q.1./.h.r.-.u.y.i.;.` /.F. Xi._ / ^ ^ 2.D.&.y.5.5.&._ C.*.%.n.s.;.=.5.<.&.y.J.$.L.` *.&.;.|.z.*.3.8.i.i.s.V.).uXGXFX",
"SXZXzX(.J.x.0.=.P.~ w.y.@.8.8.~ ! :.!.F.5.M F H N.R d.1.<.#.P H e.t.G R b.( Q ..4.P | <.c.M.G G Q Q _ v.~ p.1.<.w.J.&XK.W.=XlXKX",
"vX,XmXtXV.x.3.2.6.0.0.%...4.5.n n a.E./.@.f c g C.c c b #.b n v u.m v @.M b v { ..f W W g.*.n h v b _ $.a.w.| <.C.'.3X5X7X&XuXKX",
"vX<X0XsX5XN.>.*.g.=.8.1.f @.<.s e p M.w.m t z e &.w 8 p x s s x { s s @.g a t { K 5 E k =.b a a a f Y O.G 6.v ( x.C.`.5XqX0XgXSX",
"vXqX7X0X5X{.L.t.d.t.<.N w O.c 7 6 <. .U z $ z 2 1 ; > s 3 3 3 @.p w w o.p 7 4 ' t 1 V p J 5 5 7 6 6 J o.s <.N f.$.>.N.6XdX,XeXHX",
"SXqX*X7X=X#X|.R.q.^ } A w E = 3 3 E T ] j # * # E @ V k : & > | 7 4 w T : 1 1 [ > z l t : & 2 = 2 = ..A 3 J Y <.7.y.z.J.yXmXdXSX",
"DXiX=XW.E.B.m.-.-.O.%.| T V # & * j u q : o - , 5.% U l @ @ % S $ & A k ; $ , V ; % j ; @ * # # # # E & w K ..<.8.i.x.K.).ZXHXHX",
"DXHXtX~.B.a.0._ G n a 7 # 3 1 j t j l ; ; X o S @.o j l @ @ @ < @ + U - $ $ B @ % < B o X o o X o o + # x ..4.6.u.p.z.b.(.rXPXKX",
"DXSXmXoXn.g.-._ G v a 2 = O X o , $ y % % X X  .X.+ + i O O O @ @ $ j $ $ @ y X $ ; 9 X o X X . X V o # = a d _ r.e.k.V.E.&XMXKX",
"SX0X+X&X1Xi.-.) G d 7 2 = o o X @ $ $ @ X . X U [ O O 0 O O O O O @ % @ * * O . o y < X X X . . X Z o 1 5 e g ~ ` >.k.N.R.&XjXSX",
"vX7X~.G.S.t.P.) ! v e 7 & # o X X o @ X   . . y Z @ X @ O X X O O @ @ @ X O . . o 0 ; X . X .   . C q z r Y n ~ ) q.s.B.Y.#XgXHX",
"DXqX_.W.J.e.*.P.>.n e 2 # O X X X X X X . . X o i < . . . . O X o < O O . . . . X ; % X . .     . y p S <.6.g.F././. X.X$X,XJXJX",
"DXhX$XR.b.s.m.h.x./ p e # # o o X . X . . . . . O u . O . O X O o @ O . . . . . X O o . X .     X - I z | x.!./.].>.]..X7XkXSXHX",
"VXsX{./.S.M.i.=.W N m D k % X X X X X . . . X . . 7 . . O . . . o X . . . . . . . . . . .       X $ , u k o.@.y./. Xs.2X5XjXKXKX",
"VX9X[.K.n.s.y.2...o.o.[ V q 0 0 < @ X . . . . . . = . . . . O = . . . . . . . . . . O .         X + % : k | c #.6.e..X.X8X4XCXDX",
"FXCX9X.Xl.a.6.=.N f > 1 0 ; - , l $ $ X . . . . . . . . . . . . . . . . . . . . . . . . . . X . . X , , & k R M ^ -.e.V.hX5XhXDX",
"LXwX4X|.K.i.7.5.O.N r 4 ; % $ , < % < @ X . . . . . . . . . . . . . . . . . . . . . . o < < < % o X + @ : w s G L -.a.).yX-XBXZX",
"NXqX2X6X[.h.1.4.O.+.+.X.S q $ - @ o @ o X . . . . . . . . . . . . . . . . . . . . . . O 0 y j l ' o.@...5.3.p.G _ -.N.3XOX=XNXDX",
"VXjX2X^.[..Xh.) G g e 1 > j Z i % X X . . . . . . . . . . . . . . . . . . . . . . . . . . . . j [  .} A & 4 r.L :.s.h.W.~.-XMXDX",
"AXeX}./.c.i.n.r.G f e 4 ; : $ $ < 0 @ X . . . . . . . . . . O . . . . . . . . . . . . . . . X < C Z w > 2 t f W q.K.p.K.H.~.;XDX",
"MXqX^.H.v.a.i.I.p.h e 4 1 ; $ $ $ @ o . . . . . . . . . . . . . . . . . . . . . . . . . X X X X X + % * p m m L r.1.u.N.L.~.-XcX",
"xXdX+XOXs.r.3.=.<.O...} S > $ $ % @ X . . . . . . . . . . . . . . . . . . . . . . . . . . X o X + + $ & 4  .E %.-.g.k.S.T.#X>XvX",
"xXAXhX7X_.s.:.) G b p k U ] j , @ @ + o O . . . . . . . . . . . . . . . . . . . . . . X X X X o o + @ & 4 e M ..%.2.C.L.W.`.6XCX",
"NXBXqX~.|.Y.I.s.F N 6 w > ; @ $ - q ; @ @ . . . . . . . . . . . . . . . . O . . . . . . o X X o + @ % & 4 e c W 4.3.l.T.).=XeXSX",
"HXiX7XR.x.s.-.s.p.7.p p > % @ $ @ o @ o . . . X . . . . . . . . . . . . . . . . . . . . X X o o % u D K p s v L %.7.p.v.(.iXHXKX",
"KXGXgXOXl.p.1._ F v W O.D q + + o o o . . . . . . . . . . .   . . . . . . . . . . . . . . X o + + + $ 4 p y./ L _ 1.e.l.$X,XxXJX",
"KXAX0XE.h.p.2.<.G v s w , $ + o o X o . . .       .   .     . . . . . . . . . .     . . . o o + + + - 1 w e m s.c.:.b.z.W.>XMXHX",
"BX6X`.).I.p.-.4.W c r 2 & $ + + o X X X X .   . .   .   .   .   . . . . . . . .   .   . . X + i C l : 1 4 r b ~ $.x.F.1X5XkXMXvX",
"mX=X+XT.T.l.i.| / ..2 2 & # o o o X X X . .   .   .   .   .   . . . . . . . . . .   .   . . X X + 9 z ] o.S P ! ) 0.p.m.5XtXuXbX",
"BX:X~.Y.v.i.1._ <.g V S V C C i - X X . . . .   .           .   . . . . . . . .   .   . X X . . . X + p } <.<.5.7.7.a.l.G.#XaXVX",
"BX&XR.Y.k.i.r.S.L b e w [ I $ o X X . . . . . .   .     .     . . . . . . . . . .   .   . + o . . . X & 2 e b 1.i.i.i.B./.~.hXAX",
"DXqX3X#Xj.h.[.%.P b 1 - o X X + + 9 j i @ . .     .   . . .   . . . . . . . . .   .   . . + - i q o o : w e g &.a./.l.W./.2XiXSX",
"FXlX@X(.G.T.*.,.Z.v.p t 5.4.+.X.U B $ . .     .                 . . . . . . . .   .     . . $ $ $ y U I m p b L ^ :. X2X1X1XgXZX",
"FXVX5X6X2Xs.-.R M f e w j ..@.' $ . . . .                       . . . .                   X $ - % - < 1 I +.+.O.5.7.a.|.3X3XsXZX",
"JXkX0XhXj.y.-.Q m f w z + @ X . . . . . X                       . .                     . + 9 $ $ ; $ - 1 r f O.<.i.a.J.|.0XmXJX",
"AXwX$XhXk.e.&.P b s w $ + O . . .                                       .         .       X 0 0 Z j ; < 1 p c F R 3.p.l.[.sXLXFX",
"KXKXfX5X.X].h.8.5.D p T & - $ X     .                             . . . . . + X . . X     . X , j B I ' o.+.@.5.w.p.k.n.G.}.jXVX",
"KXJXjX1X2Xp. X].F.D...[ l $ + X .             .     .       .       . . . . . - o . . . .   . X X o + : } 8.p.k.^ i.v.m.R.5XmXDX",
"KXZXqX-X}.].r./.].K.i.{ z z l + .           .     . . .   . . .   . X X X . . j - X .   . . . X X o + & 4 p F ` t.q.l.J.H.#XhXDX",
"GXgX|.W.|. X].E.r.*.| E J 0 u - + X . .   . .   . X .     . . . . . X X o X . C l . .   . . . . X o O * 5 a g G Y.2.h.J.H.{.eXDX",
"SXdX^.G.z.p.;.) Q g a 2 t 2 q 9 + X X X . .     X $ .   . @ X . . O O . X + - I C .         X + . X # = 2 a h G ` L.'.W.{.+X;XVX",
"HXuX4XQ.c.a.;.` ! h s 3 = t % O X X X X X .   . o :     X j o o o o o o o 9 I ' z .   . . + + $ + o # * 6 8 h L ) 0.a.L.,X,XrXSX",
"KXSX*XE.Z.g.a.7.8.5.R 8 = # O o X X X X . X   o + o   . o C + + 9 + o o @ I I { y . . q i i q p t o * 2 3 s v ! _ 0.a.S.oXxXSXSX",
"HXKXJX(.J.x.f.8.9.4.#. .T ] ; O O O @ # $ o X + u .   X 4 0 $ @ J + + o o V V @.+ o X X 9 u z % @ > E 5 1 e n ~ *.w.s.B.~.>XJXDX",
"SX,XvXOXP.c.y.8.@...g u x K * * # & # # i $ - $ C X . o V & - & | & $ & - u j E $ - + w I V V 2 & u  .p K ..9.].].|.4XH.~.oXiXVX",
"bX<XmXfX#Xx.i.9.9.-.F 7 S 1 2 2 = 6 2 J V : $ 5 V & & k o.4 w e ..1 2 : 5 3 < T & & 1 w V } | 2 7 E +.: D N a.~ >.].3X6XtX:XaXVX",
"ZXwX<XsX5Xv.r.y.q.-.6.b ..7 a 8 8 e e 5.] q w } D 6 t =.+.4 w $.p w w f k t & 3.4 c K E s.<.f 6 8 O.@.s 7.8.e.f.s.p.W.3XqX,XeXcX",
"bXtX7X;X:X}./.*.~ -.-.e.<.g g f f f R y.@.| s O.m f g %.O.f b 2.v c b @.m f _ N.p | f @.F.p.1.h d 4...W y.f.=.7.-.i.l.5XdXdXdXcX",
"GXqX+X$X+X+X(.T.g.<.a._ /.! ! M M M ^ x.5.Y m @.R F M i.L M ` R F m | 5.H G Y 0.n G W #.D.E.Q M ~ 8.4.4.-.M.t.p.-.y.z.P.-XVXeXcX",
"KXGX0XW.B.g.3.1.<.9.y.) .X` ( ( / ( *./ 6.L ..5./ e.i.z./ / N.^ / 4._ 5.t.%._ P ~ P =.a./.Y.*.~ ( 8.8.6.w.g.z.B.&.0.k.K.(.HXJXSX",
"KXKXkX&Xj.q.e.i.y.y.q.P.[.:.-.-.&.k.*.i.p.*.-.6.*.F.p.8.-.e.&.&.3.5.2.i.-.E.B.` &.%.2.].].D.v.;.r.p.f.3.;.b.[.{.0.:.t.b.(.,XKXVX",
"PXlXhX>XN.a.a.a.k.a.M.}.^.g.f.a.U.s.B.M.p.3.p.i. X'.w.i.e.M./.i.i.s.a.z.w.i.T.t.i.w.B.g.C.].v.t.x.M.p.x.p.J.[.I.f.e.i.B.R.&XpXcX",
"ZX,X).$XP.B.v.D.V.(.3X6XXXB.n.B.2Xz.'.N.n.s.v.E.2XI.v.c.x.}.N.M.z.b.K.L.M.B.B.1XT.v._..X.X2Xv.z.v.Z.S.V.8X&X=X%XC.n.(.J.L.#XhXcX",
"KX9X#XE.I.Y.E.R.(.fXwX0X@XR.OX:X#XT.R.F.A.E..X].4X/.E.D.%X6XP.E.Y._.R.K.L.T.'.OXwXfX%X4X4X3XI.I.Y.E.R.oXfXwX>XQ.R.Q.6XW.L.`.jXcX",
"CXfX:X[.'.{.=XkXmXlXsX,X`.6XsXjX(.(.{.#X[.8X8X2X.X.X|./.@XhX5X7XhX&X).`.W.H.$X$XfXfX2XfXfX9X/.{.#X5XyXmX<XwX*X%X>XjX8X(.'.=XmXvX",
"JXAXBXwXqXfXBXKXkXwX0XqX,XAXJXBX6X5X9XhX8XCXhX9X9XsXwX7XgXBXmXMXAXgX5X3X6X*XmXhXLX8XjXJXJXBXwXsXfXKXJX0XwXwXwXgXKXGX9X6X9XsXlXmX",
"JXCXZXVXZXGXPXKXGXxXBXNXGXKXPXKXMXLXKXDXCXLXLXAXmXAXMXmXNXzXZXGXKXCXlXiXpXMXHXSXCXCXCXGXGXJXNXSXKXKXKXBXxXxXZXKXJXKXZXMXPXLXDXDX"
};
