/* XPM */
static char *f4edc24d10c74d21fd144e4a1db4ddf5B5msABeWYFpnElRf[] = {
/* columns rows colors chars-per-pixel */
"64 64 186 2 ",
"   c gray12",
".  c #202020",
"X  c #222222",
"o  c #232323",
"O  c gray14",
"+  c #252525",
"@  c gray15",
"#  c #272727",
"$  c #282828",
"%  c gray16",
"&  c #2A2A2A",
"*  c gray17",
"=  c #2C2C2C",
"-  c #2D2D2D",
";  c gray18",
":  c #2F2F2F",
">  c gray19",
",  c #313131",
"<  c #323232",
"1  c gray20",
"2  c #343434",
"3  c #353535",
"4  c gray21",
"5  c #373737",
"6  c gray22",
"7  c #393939",
"8  c #3A3A3A",
"9  c gray23",
"0  c #3C3C3C",
"q  c gray24",
"w  c #3E3E3E",
"e  c #3F3F3F",
"r  c gray25",
"t  c #414141",
"y  c gray26",
"u  c #434343",
"i  c #444444",
"p  c gray27",
"a  c #464646",
"s  c gray28",
"d  c #484848",
"f  c #494949",
"g  c gray29",
"h  c #4B4B4B",
"j  c #4C4C4C",
"k  c gray30",
"l  c #4E4E4E",
"z  c gray31",
"x  c #505050",
"c  c #515151",
"v  c gray32",
"b  c #535353",
"n  c gray33",
"m  c #555555",
"M  c #565656",
"N  c gray34",
"B  c #585858",
"V  c gray35",
"C  c #5A5A5A",
"Z  c #5B5B5B",
"A  c gray36",
"S  c #5D5D5D",
"D  c gray37",
"F  c #5F5F5F",
"G  c #606060",
"H  c gray38",
"J  c #626262",
"K  c gray39",
"L  c #646464",
"P  c #656565",
"I  c gray40",
"U  c #676767",
"Y  c #686868",
"T  c DimGray",
"R  c #6A6A6A",
"E  c gray42",
"W  c #6C6C6C",
"Q  c #6D6D6D",
"!  c gray43",
"~  c #6F6F6F",
"^  c gray44",
"/  c #717171",
"(  c #727272",
")  c gray45",
"_  c #747474",
"`  c gray46",
"'  c #767676",
"]  c #777777",
"[  c gray47",
"{  c #797979",
"}  c gray48",
"|  c #7B7B7B",
" . c #7C7C7C",
".. c gray49",
"X. c #7E7E7E",
"o. c gray50",
"O. c #808080",
"+. c #818181",
"@. c gray51",
"#. c #838383",
"$. c #848484",
"%. c gray52",
"&. c #868686",
"*. c gray53",
"=. c #888888",
"-. c #898989",
";. c gray54",
":. c #8B8B8B",
">. c gray55",
",. c #8D8D8D",
"<. c #8E8E8E",
"1. c gray56",
"2. c #909090",
"3. c gray57",
"4. c #929292",
"5. c #939393",
"6. c gray58",
"7. c #959595",
"8. c gray59",
"9. c #979797",
"0. c #989898",
"q. c gray60",
"w. c #9A9A9A",
"e. c #9B9B9B",
"r. c gray61",
"t. c #9D9D9D",
"y. c gray62",
"u. c #9F9F9F",
"i. c #A0A0A0",
"p. c gray63",
"a. c #A2A2A2",
"s. c gray64",
"d. c #A4A4A4",
"f. c #A5A5A5",
"g. c gray65",
"h. c #A7A7A7",
"j. c gray66",
"k. c #A9A9A9",
"l. c #AAAAAA",
"z. c gray67",
"x. c #ACACAC",
"c. c gray68",
"v. c #AEAEAE",
"b. c #AFAFAF",
"n. c gray69",
"m. c #B1B1B1",
"M. c #B2B2B2",
"N. c gray70",
"B. c #B4B4B4",
"V. c gray71",
"C. c #B6B6B6",
"Z. c #B7B7B7",
"A. c gray72",
"S. c #B9B9B9",
"D. c gray73",
"F. c #BBBBBB",
"G. c #BCBCBC",
"H. c gray74",
"J. c gray",
"K. c gray75",
"L. c #C0C0C0",
"P. c #C1C1C1",
"I. c gray76",
"U. c #C3C3C3",
"Y. c gray77",
"T. c #C5C5C5",
"R. c #C6C6C6",
"E. c gray78",
"W. c #C8C8C8",
"Q. c gray79",
"!. c #CACACA",
"~. c #CBCBCB",
"^. c gray80",
"/. c #CDCDCD",
"(. c #CECECE",
"). c gray81",
"_. c #D0D0D0",
"`. c gray82",
"'. c #D2D2D2",
"]. c LightGray",
"[. c gray83",
"{. c #D5D5D5",
"}. c gray84",
"|. c #D7D7D7",
" X c gray85",
".X c #DADADA",
/* pixels */
"$ $ $ $ $ $ $ $ $ $ $ $ $ $ $ $ $ $ $ $ $ $ # # # # $ $ # # $ # $ $ # # $ # # $ # $ $ $ $ $ $ $ $ $ $ $ # # # # # $ $ $ $ $ $ $ ",
", , , , , , 4 4 4 4 , l R _ [ _ _ _ [ _ ! ! U U J S N f 4 s J U V v v v l v l N S N y $ $ 9 s l l l l l s y w 4 , - - $ - - - - ",
"s f f f f s s f s y y ^ p.C.S.S.C.S.C.C.b.p.r.0.9.<.X.R l U 9.r.&.[ _ [ [ _ [ #.:.#.S , , l R [ [ [ _ _ ! U V v s y y y y y y y ",
"#.#.#.X.[ ^ U S l s s X.S.(.Q.E.E.E.E.P.K.C.M.l.h.p.<.^ v ^ p.M.0.:.2.2.2.<.:.<.9.:.J 4 9 J <.p.r.0.r.0.9.9.<.:.&.#.#.X.X.X.X.#.",
"S.S.S.M.h.9.&.! l , y #.S.Q.K.C.C.C.M.C.M.l.h.p.h.r.&.R l R 0.h.9.2.r.p.p.r.2.:.&._ v , 9 _ M.P.K.C.C.C.K.K.K.P.K.K.S.S.S.S.S.S.",
"Q.Q.E.P.C.h.2._ f # w X.S.E.M.p.p.h.p.p.p.p.9.0.h.0.X.J f J <.0.<.2.0.p.l.p.9.:.[ J f 4 4 X.K.`.K.M.M.S.K.P.E.E.E.E.E.P.E.E.P.P.",
"S.S.C.M.l.p.:.! f $ w #.S.P.h.2.0.0.2.9.0.0.2.9.p.r.X.V s N _ &.:.:.<.9.p.h.p.2._ S s , 4 #.K.Q.b.0.0.0.r.r.p.h.p.h.l.b.M.M.h.r.",
"l.l.l.h.h.0.X.J y $ w X.C.K.p.<.2.2.<.<.2.2.<.2.r.0._ N w s U _ X.#.#.:.2.9.9.<.! l w - 4 X.S.E.p.:.&.:.:.<.<.<.2.2.0.0.h.p.<.&.",
"r.p.h.h.p.<.! l , $ y [ M.S.p.2.<.:.:.&.:.:.:.2.p.0.^ f 4 9 l U _ [ ^ ! ! ^ ! J v w , # , X.S.P.p.&.&.:.<.9.2.9.r.r.r.r.h.r.:.[ ",
"2.2.9.9.<.X.S w - $ y _ h.C.l.0.2.<.:.:.<.2.2.0.h.0.^ s - - s N J J V l s y w 9 4 - # # 9 X.C.K.r.&.&.:.2.2.9.9.0.0.2.2.9.<.X._ ",
"X.X.X.X.^ J f 4 $ $ y ^ p.b.l.p.0.2.<.2.0.p.p.h.h.9.^ f - , y f f y w 4 - - $ - - $ # - s [ b.C.r.:.:.:.<.<.<.<.&.X._ ^ [ ^ ! U ",
"J J J S l y 9 , $ - y ^ r.l.h.r.0.2.<.2.r.p.p.p.h.9.! s , - y l V R ^ X.#.#.[ ! J l y 9 f _ p.l.2.X.X.[ X.[ [ ^ ! J S N N v N N ",
"y w y 9 , , - $ # , s ! 0.h.0.2.<.<.2.2.2.<.2.0.p.0.^ f , - w J &.r.M.P.Q.E.K.l.9._ S f l R :.<.X.R U J S S V N l f s y w w 9 9 ",
"# o # o # # $ $ $ 4 f ! 2.r.9.2.2.9.9.2.<.:.:.<.0.2.! s , $ y ^ p.K.E.`.|.|.Q.C.p.&.J f f V ! ^ S v f s y w 4 , , 4 4 , - $ $ $ ",
"4 , , , , , , 4 4 w f U #.9.r.p.r.r.2.:.:.&.&.<.<.#.U s , $ w X.S.Q.E.K.K.C.M.h.9.#.V w w y f f y 9 4 , , , - - 4 4 9 4 4 4 4 4 ",
"S S S S J S S S S N l V _ <.h.b.h.r.2.:.&.&.&.:.&.X.J s - # y &.P.`.K.l.h.r.0.2.:._ v 9 4 s V V l y 4 9 y f v V V S S S V S S S ",
"&.&.:.&.&.:.&.&.:._ N f R <.l.M.r.2.2.2.&.#.#.&.:.[ J s , # w :.Q.|.K.h.r.9.2.&.X.! l 4 4 S #.:._ J l l S ^ #.&.&.:.:.&.&.:.&.&.",
"r.0.0.2.2.0.0.0.2.X.l 9 V #.l.l.0.2.9.9.<.&.&.:.&.[ J s , # y &.P.Q.b.0.2.<.&.#._ U l 4 4 R 0.p.<.^ N U :.r.h.h.h.p.p.r.r.p.p.r.",
"h.r.9.:.<.9.p.r.:.! s 4 l ^ 9.r.2.<.r.h.p.0.<.#.[ ^ V s , $ y ^ r.l.2.X.X.X._ ^ U v s , 4 ^ h.b.0._ S [ b.E.E.P.S.M.b.l.b.l.l.b.",
"l.p.2.:.&.2.p.r.X.V 9 - s U X.:.#.#.2.0.9.<.#._ R V v y - $ 9 V [ X.! J J J J V l y 4 4 w _ h.b.0.[ S &.K.`.E.K.C.M.l.h.p.p.h.h.",
"l.p.2.&.&.2.p.0._ l 4 , s V R ! U U ! ! ! U S v f w 4 - # # - y v V v s y y w w 4 - $ 4 l [ r.h.9.[ S #.P.Q.M.r.0.9.9.2.<.<.2.9.",
"r.0.<.#.:.2.p.0.^ s - , y l N N f s y s w w 4 - $ $ # # # $ $ 9 l S R ! U S V l w - $ l ^ <.p.p.2._ V #.K.E.p.:.:.:.&.#.[ X.#.&.",
"2.<.#.X.&.2.p.0.! s , , s v l f 9 - , - - $ $ - 9 w y w y w w v ! &.r.l.p.9.:.[ V y 9 U 0.l.b.r.:.! V #.S.P.p.&.&.&.&.#.[ X.#.&.",
"&.:.:.&.:.2.r.2.R s - l _ X._ R S V V S V l w v ^ &.:.:.&.#.#.&.2.h.C.K.C.M.h.9.! f w ^ b.K.M.r.&.R N X.C.P.h.<.:.&.:.&.:.:.2.2.",
":.<.9.0.<.:.<.&.J w - R l.C.p.2.:.:.<.<.:._ S _ l.P.(.Q.E.K.S.C.C.S.K.K.K.K.S.p.[ s w [ S.Q.C.r.#.U N [ b.S.b.0.<.&.:.<.9.r.p.p.",
"X.&.9.2.:.X.[ ^ N 9 - [ K.Q.S.p.0.9.r.r.9.&.U &.P. X X|.(.Q.P.K.S.S.C.C.C.S.S.l._ s 9 #.E.`.S.r.X.U v ! 0.h.r.<.#.X.[ #.<.0.9.9.",
"R ! _ _ ! R J N f , $ [ K.(.C.h.2.<.2.9.2.X.J &.P.`.E.K.S.b.r.r.l.l.p.p.l.M.b.r.! y 9 &.Q.|.S.0.[ S v V R ! ! R J S S J U ! ! ^ ",
"N N v N v l y 9 , $ - X.K.(.C.r.9.<.:.:.&._ V #.P.Q.C.p.h.r.<.:.0.0.2.<.0.p.p.2.R w 9 &.(. XK.0._ V v f 9 9 w y y y y y y y s f ",
"4 9 4 4 9 4 4 - - - w #.K.Q.b.0.9.2.9.<.#.! N X.K.Q.M.r.h.r.<.&.<.<.:.:.<.2.2.&.J w 9 &.(. XK.0.^ v v f w 4 4 9 9 9 4 - - - - - ",
"4 s V R _ _ [ _ _ ! S :.P.Q.M.0.0.0.0.9.#.U f X.S.Q.M.p.p.0.<.&.&.&.&.&.&.:.:.[ S 9 9 &.Q.|.S.9.! v l S _ [ ^ U V v f s y 9 4 - ",
"v ! :.h.C.K.S.C.S.h.#.2.P.(.M.p.r.r.p.0.#.U y ^ b.P.S.b.r.<.:.&.X.X.&.&.&.&.&.[ N 4 4 #.P.`.S.9.! l f [ l.C.h.9.&._ ! U V v s w ",
"J [ p.C.E.Q.Q.E.Q.M.<.9.E.`.S.h.r.p.r.9.[ S w S 9.C.E.K.h.<.:.#.X.X.#.#.:.:.&._ N , 4 X.P.(.S.0.! f f #.K.(.S.p.9.&.&.[ ! S l s ",
"J X.p.C.C.C.C.C.C.h.:.0.(.|.S.h.p.p.9.&.^ N 9 y ! r.Q.`.C.0.<.:.&.#.X.X.&.#.[ ! l , 9 X.K.(.C.9.! f f #.K.Q.C.p.2.<.<.:.[ R l w ",
"S [ r.l.l.h.h.l.r.2._ 9.(. XS.h.h.p.2.#.! v 9 - s <.Q.|.S.p.9.2.:.&.X.#.&.#._ J f 4 9 X.K.Q.M.<.R f s X.C.P.C.p.2.<.9.2.#.R l 4 ",
"J [ r.l.l.h.h.r.2.X.U <.P.`.S.h.r.r.9.:.^ N 4 $ s &.E.`.S.l.p.0.<.&.&.&.&.X.! S s 4 w #.S.P.r._ V s f [ b.K.M.p.2.<.2.2.#.R l 9 ",
"J [ 0.l.l.h.p.9.&.^ S #.K.Q.M.h.p.r.0.<.^ v 9 - s #.C.E.M.l.l.p.9.2.2.2.:.#.R v y 4 s [ l.l.&.S v s f ^ r.b.p.9.<.&.2.<.#.! l 4 ",
"J [ r.b.l.p.0.<.:.[ J X.M.K.M.h.h.r.r.<.^ N 4 $ w _ h.C.b.l.h.l.h.p.p.0.<.X.U l w w y J #.#.J f s s s J #.:.:.#.X.X.X.X.[ ! l 4 ",
"S X.p.b.b.p.2.:.#._ J _ p.M.b.h.h.h.p.<.^ N 9 $ 9 R 2.p.p.p.r.0.0.0.0.9.&.^ S f w 9 s l S S f w s s f v U R R R R R R R R J f 9 ",
"J [ p.b.l.r.2.#.#._ S ! 9.h.h.h.h.h.h.9.[ N 4 # 4 N [ :.<.<.&.#.X.[ [ ^ R S v s w w y f f f s s f l f f v v f f s s s f l f w 9 ",
"J X.r.b.b.r.9.:.#._ S U X.2.p.l.l.l.p.9._ N 4 # - s S R _ ^ U J V N N v f s y w 4 9 y y w y l N V V N N N v f y s s s s l f w 4 ",
"S X.p.b.l.p.0.9.2.&.U N J X.0.l.l.h.r.2._ N 4 o $ 9 f N v v l f s s y y y w w w 9 w s s f N U ! ! ^ ! ^ ! R ! R U R R R R J f 9 ",
"J [ r.b.l.h.0.0.9.:.J s f ! 9.h.h.r.0.:.^ N 9 o o 9 v S ! ^ ^ ^ ^ ^ ^ ^ ^ ^ ^ ^ ^ _ [ #.&.<.9.p.p.p.p.p.p.p.p.r.0.9.0.2.:.^ v , ",
"J [ r.l.l.h.r.0.0.&.S 4 y ! 9.h.p.0.2.&.! v 9 o o w S #.r.l.l.l.h.l.l.l.l.l.l.l.l.b.C.S.P.E.(.`.|.`.`.`.`.|.`.`.Q.P.P.C.r.X.N - ",
"S [ 9.p.p.r.0.9.2.#.N $ w R 2.p.0.2.:.[ R N w # o w J :.C.P.K.S.S.K.S.K.K.S.K.S.S.K.E.Q.Q.(.|.|.|.`.`.|.`.`.`.(.(.E.P.C.p.X.v # ",
"J _ 2.0.9.<.<.<.<.[ v - w R <.0.<.:.#._ R N y - # 4 v &.S.Q.S.C.C.C.C.C.C.M.M.C.C.S.S.S.C.C.C.b.l.l.l.h.p.p.p.p.p.p.p.9.&.! f $ ",
"V ! :.2.:.#.#.#.#.^ f - w J &.2.:.#.[ ^ U N s , $ $ s #.S.Q.S.b.b.b.b.b.b.b.b.b.b.b.b.l.h.r.9.<.<.&.&.X.X.[ [ X.#.:.&.#.[ J s $ ",
"l U #.&.#.[ _ [ _ R s - w J X.:.#.[ _ ! U N s , # $ y #.K.(.C.l.l.l.l.l.l.l.l.l.l.l.l.h.9.2.<.:.&.#.X.[ [ [ _ X.#.&.&.#._ U y # ",
"s N ! ^ ! R R R R S s 4 y V _ X._ ^ ! R S N s , # # 9 #.K.(.C.h.p.h.p.p.p.r.p.p.r.r.p.p.9.<.:.&.&.#.X.[ [ [ [ X.#.:.&.#._ J y # ",
"f f l f s f N V V v w 9 y v U R R U J S V l y , # o 4 X.K.Q.M.r.r.r.r.0.9.2.2.<.:.<.9.r.p.0.<.&.X.X.[ [ [ X.#.&.&.&.#.[ _ J y o ",
"s y 4 $ $ , y f f y 9 4 y s v v v N N v l y 9 - #   , _ M.K.p.<.<.<.2.<.<.<.<.:.X.#.:.9.r.0.<.#.[ [ [ [ [ X.&.&.&.#.[ _ ! J w   ",
"s s y w w y s s 9 4 9 9 9 w 9 4 4 9 9 4 , - $ # o   $ U 0.p.:.X.[ X.[ &.<.2.2.2.&.&.#.&.<.<.#.[ [ [ [ X.#.&.&.&.X.[ _ ^ U V 9 o ",
"s N ! [ #.&.#.X.^ ! U S v y 4 $ o     o o   o       # l _ X.! J J U U ! #.:.:.&.X.[ _ _ [ [ _ ^ ^ ! ^ ^ [ X.X.[ ^ ! ! U S v 4 o ",
"f ! 0.M.S.P.P.S.M.p.0.:.^ S l y 4 , , , , , , , , 4 4 y v V l l f f f N S U U U U J S S S J S V S S S S J J J J S S V V N f 4 # ",
"f [ M.E.(.(.(.E.S.M.M.h.r.9.:.&.#.X.#.X.X.X.#.X.X._ _ ! R U U J S v s y y s s s s f f f f f f f f s s s s f s f s s f f f s 9 , ",
"s #.S.(.K.S.S.C.h.p.C.K.P.E.P.P.K.K.K.K.P.K.K.K.S.C.b.p.0.2.9.2.#.^ N s w w w w w w w y w 9 4 4 4 4 4 4 , , , , , , 4 4 w y y y ",
"f #.K.Q.C.l.l.p.2.9.l.S.E.Q.Q.E.P.E.E.E.E.E.E.Q.Q.P.K.C.b.l.h.r.:.^ V s w N ^ [ ! J V v l s w , - - - - - $ - $ - - , , 9 y f f ",
"f #.S.Q.C.h.p.0.<.<.2.p.M.M.l.p.r.r.p.p.r.r.p.l.M.C.M.M.b.l.l.r.X.U l w y _ l.C.p.<.#._ ! S v s y y y y w y w y y w y y f f l l ",
"f _ b.C.h.9.<.:.#.X.#.&.9.2.:.[ _ ^ X.X.[ _ [ &.2.0.0.0.0.0.0.<.! v y 4 y X.C.E.C.p.0.2.:.[ J J _ #.[ _ ! R U J U J J S V V l f ",
"s R <.9.#._ ^ ^ ! R ! ! _ ^ ! R U U R U R U R ! _ [ _ [ [ [ _ ^ J l 4 - y _ l.S.C.b.l.l.h.2.^ [ b.S.M.h.r.9.<.:.:.&.X._ ^ J s , ",
"s N ! ^ S N v N N v N v N N v N N N v N N v v N N N N v N N N v f w - $ y R <.r.r.p.p.p.r.2.! X.C.Q.K.M.b.p.r.0.9.9.9.<.&.! s o ",
"f f f s w 4 4 9 4 9 9 4 4 9 4 9 9 9 4 9 4 9 9 9 4 4 9 4 4 9 4 4 , - # - w N R ^ [ #.#.#.#.! V ^ p.C.l.h.l.h.0.9.0.0.p.0.<.^ l   ",
"f s 9 , , - - - - - - - $ $ # # $ $ $ $ $ # # $ # # # # $ $ # # $ # # - w f l N V S J J V v l J :.2.:.:.2.<.:.&.&.:.2.<.X.R s   ",
"l l s y y w y w y w y 9 4 , , , , , , , , , , , , , , , , , , , , 4 4 4 9 y f l v v l f s w w l J R V N V S N N N N S V v s - o ",
"l l v l f f s f s f s y w 9 4 9 4 4 9 9 4 9 4 4 9 9 4 9 9 4 9 4 9 4 4 4 9 w f v v f w 4 4 9 9 y f s , o   o       o   o         "
};
