/* XPM */
static char *fc301c23dc5c415bdf074a7382f75e21WfYt6kPj2t4MOJwy[] = {
/* columns rows colors chars-per-pixel */
"64 64 76 1 ",
"  c #35270D",
". c #36280D",
"X c #473214",
"o c #493717",
"O c #413118",
"+ c #473818",
"@ c #4B3818",
"# c #543519",
"$ c #533C1B",
"% c #593D1D",
"& c #623F1E",
"* c #5E3E20",
"= c #57401E",
"- c #5C411E",
"; c #61441E",
": c #5C4121",
"> c #654321",
", c #654521",
"< c #664423",
"1 c #634424",
"2 c #664524",
"3 c #674425",
"4 c #694121",
"5 c #694523",
"6 c #6C4523",
"7 c #694425",
"8 c #684624",
"9 c #6A4725",
"0 c #694526",
"q c #6A4526",
"w c #6B4526",
"e c #6C4727",
"r c #6E4727",
"t c #674820",
"y c #684820",
"u c #6B4822",
"i c #6B4824",
"p c #6E4925",
"a c #6E4827",
"s c #6F4927",
"d c #6F4728",
"f c #6F4828",
"g c #714925",
"h c #704A24",
"j c #744925",
"k c #724C25",
"l c #754D25",
"z c #764D27",
"x c #704828",
"c c #764A28",
"v c #774D28",
"b c #794D29",
"n c #7A4D2A",
"m c #7A4D2B",
"M c #7D4E29",
"N c #7F4E29",
"B c #804F2A",
"V c #82502B",
"C c #83522B",
"Z c #84512B",
"A c #81502C",
"S c #83522C",
"D c #84522C",
"F c #87532C",
"G c #87532D",
"H c #86542C",
"J c #87542C",
"K c #87542D",
"L c #87542E",
"P c #8B552F",
"I c #8C552E",
"U c #8D562F",
"Y c #8D572F",
"T c #8E5730",
"R c #905830",
"E c #915830",
/* pixels */
"OOO.OOOOO.OOOOOO.+OOOOO.O.OOOO OOOOOOOOOOOOOOOOO.OOOO.OOOOOO ..+",
"***1*****1************&*11*1**1*********::%*****1***&*1*****31*3",
"BBSBMBBBSBBBBBBBVVVVSMSVSSSNDDBVBMBBBBBSMBZMVBBBBBSBDBSMSBBSAAAA",
"SSDTTDTYTTTBTLBBVZZJLLLDNDTTDDDITTTTTBLBSSDLETTBTBSDDDIITDLBAmTR",
"1<kzvmmBYDj53311<;jmzNll0xIDjrjMNBYDx441*11vLIj;*1*9cmmmmc0**0BE",
"+$-taa9cZZ<#**@++-rau;;;$1BD;%<hxmIB4%*:*@:iFB;$@++$3rxfd0%X.#BE",
"+@%199*4DD4$11$@@-;ku;h-$1BB;%;6dmYB3%:9**0cFB4@+++*3ddfd6*X.#BE",
"$$$:99%<ZZ-%33%@$-ul;k;;$*SB4%;5dmLM<%30336mEB;#o++$3dddd4#X.#ME",
"1-@*43$1BD;&49$$-;5uutk;#;BF;$1;dmJV;%4xrrdmIB4@+++$3xxrd;%X #BE",
"<1$$1&$3BZ;%49*%;5t;;u;;$<ZV;%;<amIV4%4xxxxmIB;#o++$3xxr0;#X.#ME",
"a<$#$$o*BD<%30*:99<-uu;;$;BZ;%%1umIV4%9hxxxmIB;@o++%<rx91%$X #BE",
"h;$@@@*4DD4%391:99:-;;u;$<BI;#$*9mLV;%3fxxxmYL&$@++%9xr9%$$X #ME",
"u;=+@$*cFL;%3d<5a9%%;;;;$;VV;#$%9mIB;%1ufxhmTB&#+++%3xx9#$$X #BE",
"<1=$@$9mYB4%3daua<%%;k;;$;VV&@o$1mYZ;#-tafrmTB;@@++$0xx3%@@X.#NE",
"-111$%4mZB4%iaaah5=-;ku;$;VV<@+$<mIV4%-19ruvDB;$@++%3hr<$o@X #NE",
"%:i;%%1MLZ;%1afhk-=-;;;;$;VV<@@%<mZZ;#$:99;hDD4@@@@@3xx<-@+X.#NE",
"@*a9:%%9DZ<%;6axx1$$:u;;$;VV<$$:;zYZ;$@=;-%4FB&@+++*3xx<%o@X.#BE",
"@@1i1:$1ZZ;%;5axh<$%;;u;$;VZ;#::<jZZ;@@@--$<BF;$@++@0rx3%o$X.#ME",
"@=1i91$&ZZ;%%1aax9%@;h;;$;VV;%53<uZZ4$@@$@@;BF;#@+@*3xx0$@@X #BE",
"+@-tr4$;ZB;@#:aax<$$;;z;$;VZ5%49-uZB;#@+o++4ZB&@@++@3xx9$@@X #MR",
"@@-1r<$&VZ<#@:9f;-+=;;u;$;VV<%aa:1VV;#+@o@+1BB4$+++@1ff1%ooX #BE",
"@@$-11$1ZZ;#@%3f;===;u;;$;VV&%5;$1VV;##$@@@;FB;#@++*9fh<$o#X.#ME",
"@@$#%#@1ZZ4@@%1r;-=+;;u;$;ZZ4%;;%;VV;%--=@-uFB;@+++$3fi1$o#X.#VE",
"#$@$@@o&DM;@+%1<-=--;u;-$1VZ;#--@;VV;-;;=-;mYL;#@++:3dt-$o@X.#MR",
"@@@@o@@;YZ;#@@::==++=;;;=;BB;##@@1VZ<%4r1;rmYB;#+++%19-%$@#X.#ME",
"%$@oo@$;ZZ;#+@:@=+o@=-;;=;BC;@@@+;VZ;%4huarmJB-@o++$9i*%$$oX.#ME",
";-$o+@-jFB;#@@@@@@@@@=;;$;CC;#o+@;VZ4%1xdafmYB;#+++%39%$%%$X.#ME",
";;@oo$-jFB;$+@+++@@@$=;;$;CC<@@@$5ZZ<%<hxdhmYB;%@+@$39%$==$X.#ME",
";-$ooo%;FZ&#@@+@@@=@@=;;$;BF;$oo$5LB<%;4ahxmLZ-@+++%34%%;;$X.#BY",
"%$@@+@@;ZZ;@oo+++==-@=;;$;BB;@@@%gFD;%;9aadmIZ4#@++$<3%%;;%X.#BE",
"@$@@o+o1VV;@@@@@+@--@@;-$;ZZ;##$:zZB;$%3iaazDD<@+++*3<%%;4%X.#ME",
"@$#==@@;VZ4$@@+++=;;==;;$;BZ;#o$;zYM;$$-ur<hIB<@@+@@<9$%56%X #ME",
"o$--;-$;ZZ3$$$@++$55@=;;#&BZ;$@%<mDV;$@%591aVV;#@o@$<3%%33%X #mE",
"+=-<;%$;ZB-#::$+@%44==;-%;BZ;##-6mYV;#+%<9:9LV;@+@+%33$$33%X #ME",
"++:::%@1VZ1$:1@@@%;h=@;;$;ZZ;%-5amYV;$o$;;#1VV;$+++$93$%39%X #BE",
"@@@=%$@;VZ1*09:@@:;;==;;$;ZL;%;4amZV;@@@--$;VV4++++%11:$39%X #BE",
"@@@-@@+1VZ<%99*%=:r9$=-;$;VV4%49;zJV4@o@@$@1BB;@@++%<9$$54%X #ME",
"++++@+@<VV;%1r3*:1r1$=;-$;VV&%9rukJV4#@o+++1FF;#@++$30%$<5%X #ME",
"++++oo@;ZZ4%rrrriu51=@;;$;VV<%999aIV4@@+o+o;BF;#+++%3<%$1;%X #ME",
"o+++oo$5BZ4%1frxxh;-$$;-$<VV<%04:;ZZ<@@@o@o<ZB;#@++$1<$@-;#X #ME",
"+@oo@@=;FB;%;hhxxf::@=1-$;BV;%5911VV<#$@@@+1VZ<+o++$;;@=--$X #BE",
"%%o+o@-hFB4%&;xxx9:*+@--$1VV;%<4$1VV<#%*@@@1VZ;$o++=--=@$$$X #BE",
"-;$+@@-zFB;$#;4xx1%@+=-=@<VZ4%;;$;VV;%<1:@$<DZ;#o++@--$#$$@X #NE",
";;=++=-kLD;@@%4xx9$@@@@=@;VV4%;-$;ZV4%3r:@:aDZ4@o++@$=$@+##X #NE",
";;%#@$=hDZ4#o$9xa<=@@=@+o1MZ1%$%+<VZ<%90::1mLS4#o++@@$$###@X.#NE",
";;%&=$=6DZ<@@$11u:=@::=++;BZ9@$$+;ZZ;%4x1:9mLS;@@+@@##$oo@#X.#NE",
"%-;;;;$;ZZ<$+@$*::@=--@+o3BL;#@@$;VZ4%rxaafmIS<@@++oo$$$@@$X.#NR",
"o%;;h;%;ZB&@o@@@*$@=<:=+o5BB;@+@@6ZZ;%&xfffvDS;#o++@+$--$@+X.#NR",
"o$;ha<%1BB;##@@@@@@=;<$++-VV<@@@%uDB;%<gaauzFF;#++@+@$--$o#X.#MY",
"o%5hx<%-BD;$$@o@+++-3<%++1VL;#o#-rLD4-;rha5zFB;@@++++$1;=@@X.#BE",
"+$;6a5%;BB;#%$@@+++%33$++1VV;#@$1vIB4%1rh91uFB4$o+@++$<<%@#X.#BE",
"+$;u91$1DL;%:*@@+oo$<<$@+;VV;$@-9vYD;#-<d9*rZZ;o@+++@%1i-$@X.#ME",
"o@=1;1$;BZ;%11$+@@@$t:=++;VZ<#-<9mLB&#-19q*3FB4#@+oo@=1a;-#X.#ME",
"@@$=--$;BY&%<3%+@@==:-+++;VV;%;ddmTB;$%*94%1BF;#o+@@+$1<;-+X.#ME",
"@@@%-:@1BF;%<;%o+@----:+@;BZ;%5hdmTB4##%9<#1BB;@@@o@o==:;;$X.#BE",
"+@@$-@@1BB;%-;%$+=<1-=@++<BZ4%5hdmTB;$@$11$1LZ;#+@@@o@$-5;%X #ME",
"o+@@@#@5FB;#--1$@*11:@@+o;ZZ;%9xhmIS-@@$*:@1SS;#@+@@@@@%55%X #ME",
"@+@@@@@;BF;%%-;;::1q%+++o3BZ&%0rdmIV;#@@%@@:SS;@@@#$@+@:49%X #ME",
"@@@oo@@;ZZ;#@%rrqqq9$++@o3BZ4%0r5zIV;@@@@@o3BS<$@@--@@+$91%X #BT",
"$$@@o@-;ZZ4@@$<affd:$@@@o;LB&%4x5kZV4@@@o++&BS<oo--1=@+*1<%X #ME",
"%@@@o@-jFB&@+@:1d91:@$--$;MB;&9x1aZZ4@+@o++-FB;$@=<<*++@%-#X #BE",
"-%@@@+;lFF;$@@$:1::$@%;;%1VD;%;4-aZZ;#@@+++1BB;o@=3<$+++$$$X.#BE",
";--+o$;lFZ5+++@*::$@@%19:5DZ;%<;%1ZZ;@++o+o;BF1$$:51$++@@@@X.#BT",
"u-$+o$;mFZ<@++++$*@++$99:aDV;%;-$;ZZ4@++@oo3BF<@*-r9:++@@@#X.#MR"
};
