/* XPM */
static char *bf76d2c2b80c4d42fc083e4f7a3ac6b2iJYeTwZJaTpte2oH[] = {
/* columns rows colors chars-per-pixel */
"64 64 43 1 ",
"  c #1B1B2B",
". c #00003F",
"X c #0D0D39",
"o c #000040",
"O c #000046",
"+ c #00004A",
"@ c #00004E",
"# c #000050",
"$ c #000055",
"% c #000058",
"& c #00005F",
"* c #000060",
"= c #000066",
"- c #00006A",
"; c #00006D",
": c #0A0A6A",
"> c #0A0A6D",
", c #161667",
"< c #000070",
"1 c #000075",
"2 c #00007A",
"3 c #00007C",
"4 c navy",
"5 c #000087",
"6 c #000089",
"7 c #00008C",
"8 c #000090",
"9 c #000097",
"0 c #00009A",
"q c #00009E",
"w c #09099B",
"e c #09099D",
"r c #0303A1",
"t c #0000A2",
"y c #0000A4",
"u c #0000AA",
"i c #0000AC",
"p c #0000B0",
"a c #0000B7",
"s c #0000BB",
"d c #0000BF",
"f c #0000C0",
"g c #0000CB",
/* pixels */
"o#=<<<<<<<<<<<<<;<<<<<<<<<<=@#=<<<<<<<<<<<<=##=<<;<<;;<=##=<<<<<",
"o$<22<<1221<122121<<<1<<<<;*@$<221<1221<<<;&@%1555555551%$131<<1",
".&4631<255213444441<11<<;;=$+&46542366321<&@O=8yyttttyt8-*574112",
".&463<;1552<4545543111;--=%@O*6964356631<=#Oo;qiiiiiiuy8=*574111",
"o%12<==;1211232223442;*&$$@+o*585345421;*$@Oo;qiyyuiy083%%242<1<",
"o$<211<12333432123441;=%#@+OO*6865431;;-%@+oo-0yqtuut84-#$<21;--",
"o%268877788887542121<;;=*%@oo*698742--<<*$@OO=9t0quuq83=#%141-%$",
"o%279000998976542<;;--;-*%@OO*69973<<111-*#+o=7qqqtt084;$$;1;&#O",
"o%26799977762121-=;-&$**&$@oO*5953;<462<;=%#O=7tq0888961$+$$$@Oo",
"o$1567777674;=--**--$$&*&%#+o*473<-<662;-=%@O=7tt0536751$+%&&$$$",
"o$;478655686;&%%%=;-&&=-*&%@O&363;=-231;&##+O=8yut62342;$%2531;;",
"o#=266334576<&#@$&=*%%*=*&%#+%242;*=;;;*$++Oo=7yiy7221<*#*587643",
"o#=<13211122<=#+@@##+@#%&&%#O%252<=&***&%#+Oo=7yiy841;-&#*477654",
".+&==----====*@OO+@+Oo+@$$%#+%243<=&$$$#$#@oo=9uiu842;*%@$<22222",
".O@@@@###@@##@OooO#@+OO+@@@+o$<33<*$#+@+@++Oo-0ipy732<*$++$%%&%%",
"*=*====**===***&+O@@+OOOoOOoo@=;;-&@+OOOOOOoo;0uuq511<*#OoO$=<<<",
"6677776556776552%oo+oooooooooO@###+OOoOoOoooo=8t073<<;*#+O#<9yyt",
"qqq0009989908895*O@#%&%&===&#O++Oo.+$%#####+O=608641<;*$+@-6ifff",
"iy97678954675463&@&-12347773=$$$@oo$;1;====&@&3899631-=%+%3tsggg",
"ut8666763243;<31$#-245777884=$&%%#O%241<;;-*@&50q0631;*$+&6udggf",
"q088q063442;&&;-#%1445761;21&#$&=&@#<31;-==&@=9yt93;;;*#O=7uaspu",
"0967q05243<=%&*&@&465586-&=*$#%&*&@@*--*%%%@O-8yt71=-=&@+=7yiit0",
"q94378532<-*=*&@O*609875<=&&$%&%$+OO@##@+++Oo*59071**&#+O=8tyyqq",
"q95467653<=*=*#Oo=7q8653<*&%%&*%+@%*--=&&%$@O%26861**&#++=8tyyuy",
"q066807653<=&#@oO*695331*%%*&&*%+%27007432;*@%25751-*&%@O*6tippp",
"q0669087642;%@@OO&464221*&=;=-=%@*5qyy08762=#*59974<=&%@+*6tpspa",
"09448q09752<=%$@O%<44453<1231<<*@*60q076871%@-8yyq73-%#+o*6tpaiu",
"983370q052<-*%$@O#;35676446642;&@*50085564-#O-0uit84<*#oo&40upuy",
"074480071=&$#@@+O#=15687667863*#O*6999862;=$+=7qt0841=#Oo%17quip",
"97458994-$+OO+++O#=25798789951&@O*500985;&&$O&599864<=%@O#;5quii",
"76579851*$++oO#@O@=146766808<*=&@*50q963-&%#+%489851-*&#+#;6yit9",
"6667651-*%$#@+##O+&;13233464*$&&@*50q94;=&%@O&379962-==&@#;6uy85",
"67863<;-&&*=%#@+oO@$%&&&&*=*#+#@O*60072=*&#OO&590q862;;=@#-6qq52",
"46861-;-&%=*%#+OooO+@++@@###@@@+O*5985;%&%@Oo*7qq09631<=##-49963",
"23551;;-$@###@+OOO###$$$%%%%$#$@O*6962&#%$@OO-0ut843441-#+&29075",
"<1221<;-$OooOO+OoO#%===*===*&&%$+*674;%###+oo-9yq94332<*@+%18074",
"<;--;<<-$OoooOOOo+#=131;;;<;=&&$+*683-*$#@+Oo=7tq963<-*%++%18953",
"<;--;;;*#OOo.OOOOO#=2422122<*&&$+*6852;*$#@OO=7qq952=&%$O+%18953",
"<121;=*&#OooooOOoO#*;111432<&#&%+*69863;*%$@O-9yt72=$$%%++%<5764",
"=;1<*%%$+o...ooooO@%*==;12<=%$%%+*49862;*%$@O-0t95<*@@$$+O#=<223",
"##%%@++OOoo.oooOooOO@###%%%%%&&%+&3642-&$@@+O=7052<=#+@+oO+@$%%&",
"o+$&*-;;;;;;;;;;;;-=**&%#@+@$$%#+%341-&#@OOOo*461--*$O+Oo.oooOoo",
"o$;46800qqqqq00qq0876531;&@o+++OO%241-&$@OOOo$;1=&$#++OOooooOOOO",
"o%38qtuuiiiiuuipiiyq0963<*@+#&*&@%242;*$@+++o@&&$@OOOoOOoo.oooOO",
"o*50qtqtyuiu0qipputqq941=%+#;364&#<32<=%@+##OO@@+OooOooooooooooo",
"o*7ttqq0qtyt00tyut00073=%@O&49q7=@*-;=&#++#@O@*;;--=**===*==;-&$",
"o-0ytqqqqq90tq88008775<*$+o*6q06*O@$##@+oOOoo=6qq08766778767982;",
"X:0utqttq880yt86008641=$@oO=6972%@%===&%&$@Oo;qiiutqqq0900980951",
" ,wu09yy868qtq90uy941=%@+Oo&45<&+&48864321=#O;qiutqqut6566433211",
" ,euqqyt9790099qtt83;&@+OOO#;<%o.=9yq86431*#O;qiytyuyq52432<;;-=",
"X>tiiutttq96558864641=#O+Oo+$#O..;qy853<=&#@O;0iyudst854211231*$",
".;tdspttut8523651<33<&#+OOo@=<12<6uu932<*$#@o;qiyidst744112342%+",
"o;qaapytyq864432112<&@+O+oO*7tiiuuaiq753<-&#O;qutyaaq731<2443;$+",
"o;0aapyq086442<;<<<-#oO+OOo-9upapppuq8531;*$+;0utquy06311343<=#O",
"o-qppiy07432<-***==&#OoO+Oo*5899tytq8641-&$+O;quq09853224432-%@+",
"o;qiput86553<-*&%&*&$+OO+OO%365578878641=&#Oo-qiy0852<<<23<-%@++",
".;qppy86899652<=**-=&@++#@O*588654458863<=%@O;0piy06<=&*-=&#@+O+",
"o-0uu053777664<-*=;-&###$@O*599631136663<=%#O-0iiyt92*##%$+OooOO",
"o=8q85321<<144<=%*;-%#%%#+O*58521;-;132<=%#+o-8ytyyq3-%#@@OOoOO+",
"o=7951<-%$#=11-&&***#@$$@oo&573;--**====&$@oO*7q00t03-&$#@@+OoOO",
"o*6841=%#@@$=-=&&%%#++@@+Oo&452-=*&&%$$$%$@Oo*6087652-&%$#$@++O+",
"o&464<=&$#$%*=*==*%$$$$$$#O$131;****%$$$%&$#+&375321<;***&&&$$$$",
"o$<31<;--==--;;;;-=-==-==&@$-11;;;;;-=-=---&@$<221<<<<;--;;--===",
"o#=<<<;<<<<<<<<<<<<<<<<<<=#@=<<<<;<<;<<<<<;=#@=<<<<<<<;<<<<<;<<<"
};
