/* XPM */
static char *_268806fc7e1464ae2259cf7cf748a14JN9gum6Nc0vlu5Pp[] = {
/* columns rows colors chars-per-pixel */
"64 64 64 1 ",
"  c #473318",
". c #4D3718",
"X c #523919",
"o c #5B3E1D",
"O c #5E421E",
"+ c #61421F",
"@ c #67481F",
"# c #574020",
"$ c #5C4121",
"% c #644523",
"& c #6A4625",
"* c #6C4924",
"= c #6F4A28",
"- c #734C26",
"; c #7B4E26",
": c #744C29",
"> c #7B4E2A",
", c #77502C",
"< c #7D512B",
"1 c #84532C",
"2 c #8B562E",
"3 c #86582F",
"4 c #8C582F",
"5 c #855530",
"6 c #8B5730",
"7 c #875830",
"8 c #8D5931",
"9 c #935B33",
"0 c #995E36",
"q c #965E38",
"w c #995F38",
"e c #966036",
"r c #9B6137",
"t c #976239",
"y c #9C6239",
"u c #A16337",
"i c #A3653C",
"p c #A9673C",
"a c #A5693D",
"s c #AA6B3E",
"d c #B06C3F",
"f c #A76B40",
"g c #AC6C41",
"h c #B26E42",
"j c #B86F42",
"k c #AE7143",
"l c #B37344",
"z c #BB7445",
"x c #BF7947",
"c c #B77748",
"v c #BC7648",
"b c #B77848",
"n c #B97848",
"m c #C27646",
"M c #C17947",
"N c #C17749",
"B c #C47A4A",
"V c #CA7B4B",
"C c #D07C4E",
"Z c #CA814C",
"A c #D2824E",
"S c #CF8050",
"D c #D68450",
"F c #DD8652",
/* pixels */
"bbbbbbbnnlsy<-;<499yfhVNi2111129uhmmVVVmVjuudVVVmmVmzzVZxbnbnnbn",
"bbvbbbbbkate<-;129qyfhVNp21;112updhjmmmVVdddjVMmVVVjllBBbbcbbbnc",
"bvbbbbbke<<<;;;189eyfhCVp21112wipsrudmmmdmzzmVmmMVjdslnnclcnbbbb",
"bbbbbkky<---;112899yihvvu21110igpy94uddmzzBMVmmmMddpsbbbllnbnnbn",
"bbccgf83;-;<12249eryppiiu069wugpy836490pMZMnxxMMmp9edZnbbbbblbnb",
"bvckf8;-;1164eeryiiiyu00uupfpffue767249sBZZnxxMxd9;3lZnbblbbnbln",
"bcka5,;;118eyiuiaglgyw0uuhjjgww974774edMMBMBxxdd4;@3snnbddlldbbn",
"lgy95>1624rpsdsssgkgy0uidhNjp06677671rnVxcmmMzdy4;-3ysbldddlddln",
"y95179yuuipdzmdsuriiipssjjdp09928442<9kcchllddae921;12updbsdllbb",
"84<7qpghhhjzzddp00upsgllhdu099229441<8fkllldsieeu91;-19usdlsslls",
"68qyahzmmmmjpuiiuussgkllgu09226981<169risclpiripu021;120aslbsatt",
"tyipssdzmmmdpuuiipsddllgu099226665>>8q90akssuyssu011;112easkatee",
"kkiyeeridlhhdddpgdhgddpu0996292211579q94eeffpgclp0221;-;>5qwtety",
"bla04119sdshmmgpighzmju096299222<19tit9949rpgcbbdu0211--->69etkb",
"blp02118ugslccsw9ujCmmu929929221>7fkkge9rw0ikvBBcsu91111;1qiifcV",
"blsi089qigslclaywpmCCmp09929961119fcblywyuualMVSNzpu922189ifflMV",
"bcllsskkfghhvhkgvNVVVNgw996222;18flbclpw0rslzVVVVmdsi955qifppgvv",
"bncnnbkgfgggkkgvNCVBNNzgw09921;1wgcbcliyrplxBMMBmmdii055qiffhhcc",
"bbncblyyigppiifhvvvvvnNNhw921;;1ygcbblpyscmMmxxxVdu999446qfhNNvh",
"ccbclfytwifiqqipgkcncvCCjg91::12fklclgggcxBzclbbdp41149469whNNck",
"klbkytyyqwppiippwflccBCCCd0;*-10pgclaszNmmczldlsp93144446qwhvvlk",
"dkkkyyyf9qiphhp09wfkcvVSmd4---10yggf0uzVmzdslddsr98eee949wghllkg",
"sayyfgfyqqihNjp099wfcnSnp91;;1199qre90szhgsglsghdskkdarewgvNhfff",
"ayyakgie6qihNju6968tknBc02111126999429usggsgskhgdlkbxkyyihNNpipg",
"eanxs09416ihjp092920sdbdaee88115ri91<14usgggghgfytfhcvfifgjhpifh",
"ykZMsq9119ghpu066249ddddatte61-5sdp91-19aggggsfiqqigfggfpfpgiiif",
"ZZMxlf96qfvvp9924410bZbdsste5:=8lVca41;1yglkiifiq9ifiwppppipfwwq",
"ZZxbla68izNzu929490pxxbddst4::,9lMcla91<qfkkayyt6qghiwiiiwqqwfii",
"xxnbat18hjjg062240hmvllddsr2-;9yislbdae38yfggpw659hjpipi95556izB",
"bbbky88ujjgu99922ucBzdkdsa93<4yyerallaretyklgpq26whzhfiw6>=>6fMD",
"kbbke7ahhgw9992219sldldsae34eryrqeryrreyflBMhp99wihggiw961:<qgcB",
"dkdaeelvjfw0929290sldddaee4eipyer99449rsbSDDhy9qifgggi951>:5tflc",
"skaaascncgpw0249yplllsae84qaspr9q98880ilVDFAdr28ugllcf5:=%&<yfkl",
"lgyyhcbbbcksu949plzckar98qaksp09996140dmAFFCd069fgcckf,=%$=5qifk",
"bsrycVxbbcchp092idmzsre80akkar9492<>2udVAFCmu90plccft<=$=,5518fg",
"bkagvVxbbbcls024yglsiytyfhllaye841>>4imVACCmu0plcnnf5&$&=,88<7ig",
"gkcNBbxbbbblu949aiq9iakklllksay7>;;10dmVVCVdregbcbbf<$&=<56638yg",
"rgBBvbbbvbkg0999q955ykbbbclldspe>-19ihmmVmmdaakbcckt,==,787778yg",
"<elnnbbbblaw04445556adbnbbdsska0>>2usjmmmmhsgklbcf9,==<7896718yf",
"%<ykcbnbkiq444225558yalbnnlllspq1190pdmVVzurklbbcf<=,8tite8115qf",
"**1esbxku4212224ry877ekbcccchfq1>>15qgzVmj91tabbkf87rfccf975,<89",
"**@3abba4111294epae1:5ykccckgw611>>>6whmmj9;3takfyyyhNVBf9q<:=,<",
"**-4skat92139eiair91>,8ykchpu9876151>6whmj0<,3tyyyagNCSBf99<&%,,",
":,4eaayt42240pddyq4<>:<8ghgu9866151518yhmva8<<7trfkbVSSBgi9<&%&:",
";4yayytr499riklkr7>>>;;4ugpw922211769yhmVVcf857eaklvZSxncse1&%:>",
"4eiaytre9erpslls95>:<1;8ppw022111178yhmVVVxkyeetalbZSBnblg9<%%>5",
"piayreteersslcsy611511>8dmu942111169ilVBBxnbkfytszZZZvbcki3*$&79",
"sayerrertislnliq1117<19iddu992226769slVVbbbbblaysxZZvbblfq,&&>qy",
"yyyywrwqeikcMjy8773,:4kxls0422223440slnxncclbliizMMxbbbly8>=>8yg",
"rtttwyrryfcvzhq6<<,-,txZlp0999924240acbbbblllgsdzMxbcccg95>19yag",
"ererwwryalVMse81,,=,ykxxlspy99924419kcbbbbbkagdmvvbbbcki6><qdhsy",
"rrryyuuilvBvae71,%$,kbbbllgp09994238glbbbckfagzvnbbbblf05:8izvgi",
"wuwwuuslxZBbgy8<*$$<kZxbcllsiy044214fkcbnlyyfcllllbbblu4>1rdmmcl",
"fpiuughvMBbblp8<%$,tbZxbcclkspy99212tfkbkayyfclhdllbbse3<9pzmmcc",
"hgpuphNVvckkda3*$,tkbxxbcbcllsay91;18ykbytyfhlhgdldlka818udBxvcn",
"clfphNVNlssksy<%%7sbxbbnbnnclggi91:-<tafyeakgghhdkddat44ygzmnccc",
"clfhNBvjhssggr,%-elZnbbbbbbbblka2**-18qyiiifhhhgssddu434dzzlnnld",
"ccjzNNcggghgs9:&3adxnbbbbbbbbbsr;+O&;180ipppgghgsssue44uhmzlblbd",
"ghNBvzhhpfgsyq=,esdbnxbbbbbbbky6&XXo*,8ypppufgpgsaue44uahzllbbdd",
"fkNNlgghgfgpt8,<aslldbbbbxbbla8-o. .O:9yuu0uifpfsaue44allllcblld",
"fghhggggfpfw97<8adlldlllbbbki6:oX...X*900990iasssar9eesllblldbdd",
"wwwiiiggppuw75qyasslbldlclky8>OX.X.XX&199999ripssa99easlbbkkldll",
">5555qipiifw,,9iskslbdldkk8<>&o...XXX$&>229990uuue44usdlbllkllls",
"===:59ipiift,=tfssddbbldky,$&&o.XXXX##o&1929499ur939aldllbldbbll"
};
